{
.appVersion = "1271";
copyright = "(";
customParameters = (
{
name = trademark;
value = "Please refer to the Copyright section for the font trademark attribution notices.";
},
{
name = panose;
value = (
2,
0,
5,
6,
2,
0,
0,
2,
0,
3
);
},
{
name = unicodeRanges;
value = (
0
);
},
{
name = fsType;
value = (
2
);
},
{
name = blueScale;
value = 0.23975;
},
{
name = glyphOrder;
value = (
.notdef,
exclam,
quotedbl,
numbersign,
dollar,
percent,
ampersand,
quotesingle,
parenleft,
parenright,
asterisk,
plus,
comma,
hyphen,
period,
slash,
zero,
one,
two,
three,
four,
five,
six,
seven,
eight,
nine,
colon,
semicolon,
less,
equal,
greater,
question,
at,
A,
B,
C,
D,
E,
F,
G,
H,
I,
J,
K,
L,
M,
N,
O,
P,
Q,
R,
S,
T,
U,
V,
W,
X,
Y,
Z,
bracketleft,
backslash,
bracketright,
asciicircum,
grave,
a,
b,
c,
d,
e,
f,
g,
h,
i,
j,
k,
l,
m,
n,
o,
p,
q,
r,
s,
t,
u,
v,
w,
x,
y,
z,
braceleft,
bar,
braceright,
asciitilde,
Adieresis,
Aring,
Ccedilla,
Eacute,
Ntilde,
Odieresis,
Udieresis,
aacute,
agrave,
acircumflex,
adieresis,
atilde,
aring,
ccedilla,
eacute,
egrave,
ecircumflex,
edieresis,
iacute,
igrave,
icircumflex,
idieresis,
ntilde,
oacute,
ograve,
ocircumflex,
odieresis,
otilde,
uacute,
ugrave,
ucircumflex,
udieresis,
degree,
cent,
sterling,
section,
bullet,
paragraph,
germandbls,
registered,
copyright,
trademark,
acute,
dieresis,
notequal,
AE,
Oslash,
plusminus,
lessequal,
greaterequal,
questiondown,
exclamdown,
Delta,
guillemotleft,
guillemotright,
ellipsis,
nbspace,
Agrave,
Atilde,
Otilde,
OE,
oe,
endash,
emdash,
quotedblleft,
quotedblright,
quoteleft,
quoteright,
divide,
ydieresis,
Ydieresis,
fraction,
perthousand,
Acircumflex,
Ecircumflex,
Aacute,
Edieresis,
Egrave,
Iacute,
Icircumflex,
Idieresis,
Igrave,
Oacute,
Ocircumflex,
apple,
Ograve,
Uacute,
Ucircumflex,
Ugrave,
dotlessi,
circumflex,
tilde,
macron,
ring,
cedilla,
space,
Euro
);
}
);
date = "2015-11-10 02:08:38 +0000";
disablesNiceNames = 1;
familyName = RugeBoogieAbnormalROB;
fontMaster = (
{
alignmentZones = (
"{620, 25}",

glyphs = (
{
glyphname = .notdef;
lastChange = "2020-01-04 18:09:43 +0000";
layers = (
{
layerId = "9537DB68-ED58-4774-880B-66DB18EF27AD";
paths = (
{
closed = 1;
nodes = (
"50 0 LINE",
"417 0 LINE",
"417 689 LINE",
"50 689 LINE"
);
},
{
closed = 1;
nodes = (
"363 662 LINE",
"232 386 LINE",
"101 662 LINE"
);
},
{
closed = 1;
nodes = (
"381 627 LINE",
"381 74 LINE",
"249 351 LINE"
);
},
{
closed = 1;
nodes = (
"84 76 LINE",
"84 625 LINE",
"215 351 LINE"
);
},
{
closed = 1;
nodes = (
"364 39 LINE",
"100 39 LINE",
"232 316 LINE"
);
}
);
width = 467;
}
);
note = .notdef;
},
{
glyphname = exclam;
layers = (
{
hints = (
{
horizontal = 1;
place = "{-15, 40}";
type = Stem;
},
{
horizontal = 1;
place = "{92, 28}";
type = Stem;
},
{
horizontal = 1;
place = "{186, 28}";
type = Stem;
},
{
place = "{94, 36}";
type = Stem;
},
{
place = "{140, 16}";
type = Stem;
},
{
place = "{160, 26}";
type = Stem;
}
);
layerId = "9537DB68-ED58-4774-880B-66DB18EF27AD";
paths = (
{
closed = 1;
nodes = (
"216 591 OFFCURVE",
"213 598 OFFCURVE",
"212 612 CURVE SMOOTH",
"209 647 OFFCURVE",
"157 643 OFFCURVE",
"160 608 CURVE SMOOTH",
"161 596 OFFCURVE",
"164 589 OFFCURVE",
"164 577 CURVE SMOOTH",
"164 550 OFFCURVE",
"154 523 OFFCURVE",
"150 496 CURVE SMOOTH",
"149 486 OFFCURVE",
"151 482 OFFCURVE",
"150 474 CURVE SMOOTH",
"141 418 OFFCURVE",
"142 359 OFFCURVE",
"139 303 CURVE SMOOTH",
"138 286 OFFCURVE",
"136 273 OFFCURVE",
"136 261 CURVE SMOOTH",
"136 226 OFFCURVE",
"143 186 OFFCURVE",
"178 186 CURVE SMOOTH",
"197 186 OFFCURVE",
"197 214 OFFCURVE",
"178 214 CURVE SMOOTH",
"157 214 OFFCURVE",
"156 240 OFFCURVE",
"156 261 CURVE SMOOTH",
"156 303 OFFCURVE",
"173 346 OFFCURVE",
"176 385 CURVE SMOOTH",
"178 413 OFFCURVE",
"189 435 OFFCURVE",
"194 467 CURVE SMOOTH",
"195 475 OFFCURVE",
"200 478 OFFCURVE",
"201 488 CURVE SMOOTH",
"206 518 OFFCURVE",
"216 546 OFFCURVE",
"216 577 CURVE SMOOTH"
);
},
{
closed = 1;
nodes = (
"198 37 OFFCURVE",
"190 55 OFFCURVE",
"187 46 CURVE SMOOTH",
"185 39 OFFCURVE",
"170 25 OFFCURVE",
"159 25 CURVE SMOOTH",
"137 26 OFFCURVE",
"130 42 OFFCURVE",
"130 62 CURVE SMOOTH",
"130 71 OFFCURVE",
"137 92 OFFCURVE",
"147 92 CURVE SMOOTH",
"166 92 OFFCURVE",
"162 63 OFFCURVE",
"149 58 CURVE SMOOTH",
"138 54 OFFCURVE",
"144 38 OFFCURVE",
"155 42 CURVE SMOOTH",
"166 46 OFFCURVE",
"176 48 OFFCURVE",
"181 57 CURVE SMOOTH",
"197 84 OFFCURVE",
"174 120 OFFCURVE",
"147 120 CURVE SMOOTH",
"121 120 OFFCURVE",
"94 84 OFFCURVE",
"94 64 CURVE SMOOTH",
"94 26 OFFCURVE",
"114 -16 OFFCURVE",
"157 -15 CURVE SMOOTH",
"178 -15 OFFCURVE",
"195 8 OFFCURVE",
"197 25 CURVE SMOOTH"
);
}
);
width = 234;
}
);
note = exclam;
unicode = 0021;
},
{
glyphname = quotedbl;
layers = (
{
hints = (
{
horizontal = 1;
place = "{581, 26}";
type = Stem;
},
{
place = "{93, 19}";
type = Stem;
},
{
place = "{128, 28}";
type = Stem;
},
{
place = "{209, 26}";
type = Stem;
}
);
layerId = "9537DB68-ED58-4774-880B-66DB18EF27AD";
paths = (
{
closed = 1;
nodes = (
"234 571 OFFCURVE",
"228 607 OFFCURVE",
"179 607 CURVE SMOOTH",
"160 607 OFFCURVE",
"127 574 OFFCURVE",
"127 559 CURVE SMOOTH",
"127 538 OFFCURVE",
"149 508 OFFCURVE",
"172 508 CURVE SMOOTH",
"187 508 OFFCURVE",
"198 518 OFFCURVE",
"198 536 CURVE SMOOTH",
"198 543 OFFCURVE",
"192 549 OFFCURVE",
"187 553 CURVE",
"186 553 LINE",
"167 566 OFFCURVE",
"177 539 OFFCURVE",
"177 536 CURVE SMOOTH",
"177 534 OFFCURVE",
"174 536 OFFCURVE",
"172 536 CURVE SMOOTH",
"170 536 OFFCURVE",
"155 555 OFFCURVE",
"155 559 CURVE SMOOTH",
"155 569 OFFCURVE",
"169 581 OFFCURVE",
"179 581 CURVE SMOOTH",
"195 581 OFFCURVE",
"208 544 OFFCURVE",
"208 532 CURVE SMOOTH",
"208 513 OFFCURVE",
"178 447 OFFCURVE",
"168 434 CURVE SMOOTH",
"161 426 OFFCURVE",
"174 415 OFFCURVE",
"181 424 CURVE SMOOTH",
"193 439 OFFCURVE",
"234 508 OFFCURVE",
"234 531 CURVE SMOOTH"
);
},
{
closed = 1;
nodes = (
"111 549 OFFCURVE",
"107 603 OFFCURVE",
"75 604 CURVE SMOOTH",
"62 604 OFFCURVE",
"53 597 OFFCURVE",
"47 589 CURVE SMOOTH",
"44 585 OFFCURVE",
"28 555 OFFCURVE",
"28 548 CURVE SMOOTH",
"28 541 OFFCURVE",
"26 525 OFFCURVE",
"31 516 CURVE SMOOTH",
"35 510 OFFCURVE",
"60 500 OFFCURVE",
"63 500 CURVE SMOOTH",
"72 501 OFFCURVE",
"87 520 OFFCURVE",
"87 527 CURVE SMOOTH",
"87 535 OFFCURVE",
"83 537 OFFCURVE",
"81 543 CURVE SMOOTH",
"78 553 OFFCURVE",
"62 548 OFFCURVE",
"66 537 CURVE",
"66 533 OFFCURVE",
"67 531 OFFCURVE",
"67 527 CURVE SMOOTH",
"67 526 OFFCURVE",
"64 527 OFFCURVE",
"63 527 CURVE SMOOTH",
"60 528 OFFCURVE",
"53 545 OFFCURVE",
"53 548 CURVE SMOOTH",
"53 549 OFFCURVE",
"49 557 OFFCURVE",
"49 557 CURVE",
"52 567 OFFCURVE",
"61 587 OFFCURVE",
"74 587 CURVE SMOOTH",
"91 588 OFFCURVE",
"94 539 OFFCURVE",
"94 528 CURVE",
"95 523 OFFCURVE",
"93 504 OFFCURVE",
"93 503 CURVE SMOOTH",
"87 472 OFFCURVE",
"62 451 OFFCURVE",
"49 423 CURVE SMOOTH",
"42 407 OFFCURVE",
"66 396 OFFCURVE",
"73 412 CURVE SMOOTH",
"75 417 OFFCURVE",
"77 422 OFFCURVE",
"80 426 CURVE SMOOTH",
"101 460 OFFCURVE",
"110 486 OFFCURVE",
"111 527 CURVE SMOOTH"
);
}
);
width = 239;
}
);
note = quotedbl;
unicode = 0022;
},
{
glyphname = numbersign;
layers = (
{
hints = (
{
horizontal = 1;
place = "{471, 41}";
type = Stem;
},
{
horizontal = 1;
place = "{572, 27}";
type = Stem;
},
{
place = "{93, 42}";
type = Stem;
},
{
place = "{240, 17}";
type = Stem;
},
{
place = "{203, 17}";
type = Stem;
}
);
layerId = "9537DB68-ED58-4774-880B-66DB18EF27AD";
paths = (
{
closed = 1;
nodes = (
"398 583 OFFCURVE",
"368 596 OFFCURVE",
"331 599 CURVE",
"340 622 OFFCURVE",
"351 645 OFFCURVE",
"363 669 CURVE SMOOTH",
"369 680 OFFCURVE",
"352 688 OFFCURVE",
"346 677 CURVE SMOOTH",
"331 650 OFFCURVE",
"318 625 OFFCURVE",
"306 599 CURVE",
"270 598 OFFCURVE",
"236 589 OFFCURVE",
"203 576 CURVE",
"206 582 OFFCURVE",
"209 586 OFFCURVE",
"213 588 CURVE SMOOTH",
"229 597 OFFCURVE",
"215 621 OFFCURVE",
"199 612 CURVE SMOOTH",
"183 603 OFFCURVE",
"168 582 OFFCURVE",
"155 556 CURVE",
"97 528 OFFCURVE",
"42 492 OFFCURVE",
"-16 466 CURVE SMOOTH",
"-26 461 OFFCURVE",
"-19 445 OFFCURVE",
"-9 450 CURVE SMOOTH",
"41 472 OFFCURVE",
"90 501 OFFCURVE",
"140 525 CURVE",
"133 508 OFFCURVE",
"127 491 OFFCURVE",
"121 475 CURVE",
"104 469 LINE SMOOTH",
"59 453 OFFCURVE",
"25 433 OFFCURVE",
"-13 395 CURVE",
"-12 394 LINE",
"-24 383 OFFCURVE",
"-7 366 OFFCURVE",
"4 377 CURVE SMOOTH",
"36 409 OFFCURVE",
"70 416 OFFCURVE",
"107 427 CURVE",
"105 423 LINE SMOOTH",
"98 402 OFFCURVE",
"96 380 OFFCURVE",
"93 359 CURVE SMOOTH",
"89 331 OFFCURVE",
"131 325 OFFCURVE",
"135 353 CURVE SMOOTH",
"138 372 OFFCURVE",
"146 390 OFFCURVE",
"152 409 CURVE SMOOTH",
"161 444 LINE",
"193 454 OFFCURVE",
"226 462 OFFCURVE",
"260 467 CURVE",
"255 451 OFFCURVE",
"251 435 OFFCURVE",
"248 421 CURVE SMOOTH",
"242 398 OFFCURVE",
"242 374 OFFCURVE",
"240 350 CURVE SMOOTH",
"239 339 OFFCURVE",
"256 338 OFFCURVE",
"257 349 CURVE SMOOTH",
"258 372 OFFCURVE",
"270 392 OFFCURVE",
"276 415 CURVE SMOOTH",
"293 470 LINE",
"304 471 OFFCURVE",
"316 471 OFFCURVE",
"328 471 CURVE SMOOTH",
"352 472 OFFCURVE",
"366 476 OFFCURVE",
"385 471 CURVE SMOOTH",
"403 466 OFFCURVE",
"410 493 OFFCURVE",
"392 498 CURVE SMOOTH",
"370 503 OFFCURVE",
"356 513 OFFCURVE",
"327 513 CURVE",
"319 512 OFFCURVE",
"312 512 OFFCURVE",
"305 512 CURVE",
"323 572 LINE",
"355 573 OFFCURVE",
"384 568 OFFCURVE",
"400 544 CURVE SMOOTH",
"407 533 OFFCURVE",
"424 544 OFFCURVE",
"417 555 CURVE SMOOTH"
);
},
{
closed = 1;
nodes = (
"273 510 LINE",
"238 506 OFFCURVE",
"204 499 OFFCURVE",
"171 490 CURVE",
"176 509 OFFCURVE",
"182 529 OFFCURVE",
"188 546 CURVE",
"222 559 OFFCURVE",
"257 569 OFFCURVE",
"294 572 CURVE"
);
}
);
width = 412;
}
);
note = numbersign;
unicode = 0023;
},
{
glyphname = dollar;
layers = (
{
hints = (
{
horizontal = 1;
place = "{94, 36}";
type = Stem;
},
{
horizontal = 1;
place = "{300, 25}";
type = Stem;
},
{
horizontal = 1;
place = "{592, 44}";
type = Stem;
},
{
place = "{23, 27}";
type = Stem;
},
{
place = "{120, 23}";
type = Stem;
},
{
place = "{299, 39}";
type = Stem;
}
);
layerId = "9537DB68-ED58-4774-880B-66DB18EF27AD";
paths = (
{
closed = 1;
nodes = (
"339 395 OFFCURVE",
"289 430 OFFCURVE",
"228 445 CURVE SMOOTH",
"218 447 OFFCURVE",
"200 450 OFFCURVE",
"181 455 CURVE",
"172 496 OFFCURVE",
"167 537 OFFCURVE",
"167 576 CURVE",
"186 586 OFFCURVE",
"205 592 OFFCURVE",
"220 592 CURVE SMOOTH",
"243 592 OFFCURVE",
"260 577 OFFCURVE",
"264 557 CURVE SMOOTH",
"269 536 OFFCURVE",
"300 542 OFFCURVE",
"296 563 CURVE SMOOTH",
"288 601 OFFCURVE",
"263 636 OFFCURVE",
"220 636 CURVE SMOOTH",
"209 636 OFFCURVE",
"191 631 OFFCURVE",
"171 623 CURVE",
"175 655 OFFCURVE",
"185 691 OFFCURVE",
"211 701 CURVE",
"211 702 LINE",
"221 706 OFFCURVE",
"215 722 OFFCURVE",
"204 718 CURVE SMOOTH",
"167 704 OFFCURVE",
"143 654 OFFCURVE",
"139 612 CURVE SMOOTH",
"139 609 LINE",
"94 586 OFFCURVE",
"50 551 OFFCURVE",
"50 515 CURVE SMOOTH",
"50 468 OFFCURVE",
"90 443 OFFCURVE",
"113 432 CURVE SMOOTH",
"126 426 OFFCURVE",
"141 422 OFFCURVE",
"157 418 CURVE",
"169 369 OFFCURVE",
"183 320 OFFCURVE",
"197 274 CURVE SMOOTH",
"204 249 OFFCURVE",
"223 218 OFFCURVE",
"237 187 CURVE",
"204 153 OFFCURVE",
"163 130 OFFCURVE",
"121 130 CURVE SMOOTH",
"75 130 OFFCURVE",
"53 182 OFFCURVE",
"52 228 CURVE SMOOTH",
"52 256 OFFCURVE",
"49 300 OFFCURVE",
"79 300 CURVE SMOOTH",
"124 299 OFFCURVE",
"126 265 OFFCURVE",
"118 231 CURVE",
"114 240 OFFCURVE",
"100 237 OFFCURVE",
"102 227 CURVE SMOOTH",
"104 208 OFFCURVE",
"111 202 OFFCURVE",
"115 201 CURVE",
"121 201 OFFCURVE",
"130 205 OFFCURVE",
"135 217 CURVE SMOOTH",
"154 268 OFFCURVE",
"149 326 OFFCURVE",
"79 325 CURVE SMOOTH",
"36 325 OFFCURVE",
"24 268 OFFCURVE",
"24 228 CURVE SMOOTH",
"24 164 OFFCURVE",
"57 94 OFFCURVE",
"121 94 CURVE SMOOTH",
"167 94 OFFCURVE",
"212 116 OFFCURVE",
"249 150 CURVE",
"255 129 OFFCURVE",
"257 109 OFFCURVE",
"250 92 CURVE SMOOTH",
"244 77 OFFCURVE",
"267 68 OFFCURVE",
"273 83 CURVE SMOOTH",
"285 112 OFFCURVE",
"281 142 OFFCURVE",
"271 172 CURVE",
"312 218 OFFCURVE",
"339 277 OFFCURVE",
"339 329 CURVE SMOOTH"
);
},
{
closed = 1;
nodes = (
"117 475 OFFCURVE",
"92 490 OFFCURVE",
"92 514 CURVE SMOOTH",
"92 517 OFFCURVE",
"94 518 OFFCURVE",
"95 520 CURVE SMOOTH",
"104 533 OFFCURVE",
"119 547 OFFCURVE",
"136 559 CURVE",
"137 527 OFFCURVE",
"141 496 OFFCURVE",
"147 465 CURVE"
);
},
{
closed = 1;
nodes = (
"299 290 OFFCURVE",
"282 246 OFFCURVE",
"255 209 CURVE",
"244 235 OFFCURVE",
"232 259 OFFCURVE",
"225 282 CURVE SMOOTH",
"214 323 OFFCURVE",
"201 367 OFFCURVE",
"190 412 CURVE",
"232 403 OFFCURVE",
"272 393 OFFCURVE",
"293 361 CURVE SMOOTH",
"300 351 OFFCURVE",
"300 342 OFFCURVE",
"300 329 CURVE SMOOTH"
);
}
);
width = 368;
}
);
note = dollar;
unicode = 0024;
},
{
glyphname = percent;
layers = (
{
hints = (
{
horizontal = 1;
place = "{27, 19}";
type = Stem;
},
{
horizontal = 1;
place = "{437, 28}";
type = Stem;
},
{
horizontal = 1;
place = "{527, 34}";
type = Stem;
},
{
horizontal = 1;
place = "{666, -20}";
target = down;
type = TopGhost;
},
{
place = "{41, 34}";
type = Stem;
},
{
place = "{176, 17}";
type = Stem;
},
{
place = "{215, 26}";
type = Stem;
},
{
place = "{304, 17}";
type = Stem;
}
);
layerId = "9537DB68-ED58-4774-880B-66DB18EF27AD";
paths = (
{
closed = 1;
nodes = (
"198 599 OFFCURVE",
"170 594 OFFCURVE",
"124 604 CURVE SMOOTH",
"113 606 OFFCURVE",
"110 590 OFFCURVE",
"121 588 CURVE SMOOTH",
"131 586 OFFCURVE",
"159 582 OFFCURVE",
"168 575 CURVE SMOOTH",
"189 562 OFFCURVE",
"172 465 OFFCURVE",
"112 465 CURVE SMOOTH",
"92 465 OFFCURVE",
"75 478 OFFCURVE",
"75 499 CURVE SMOOTH",
"75 520 OFFCURVE",
"91 531 OFFCURVE",
"109 526 CURVE SMOOTH",
"131 520 OFFCURVE",
"140 553 OFFCURVE",
"118 559 CURVE SMOOTH",
"79 570 OFFCURVE",
"41 543 OFFCURVE",
"41 499 CURVE SMOOTH",
"41 458 OFFCURVE",
"74 437 OFFCURVE",
"111 437 CURVE SMOOTH",
"161 437 OFFCURVE",
"187 491 OFFCURVE",
"192 537 CURVE SMOOTH"
);
},
{
closed = 1;
nodes = (
"459 638 LINE",
"473 656 OFFCURVE",
"447 677 OFFCURVE",
"433 659 CURVE SMOOTH",
"321 521 OFFCURVE",
"216 387 OFFCURVE",
"142 223 CURVE SMOOTH",
"105 141 OFFCURVE",
"49 60 OFFCURVE",
"56 -33 CURVE SMOOTH",
"57 -44 OFFCURVE",
"66 -51 OFFCURVE",
"70 -59 CURVE",
"75 -74 OFFCURVE",
"124 -99 OFFCURVE",
"107 -64 CURVE SMOOTH",
"93 -35 OFFCURVE",
"128 76 OFFCURVE",
"141 103 CURVE SMOOTH",
"226 283 OFFCURVE",
"333 481 OFFCURVE",
"459 637 CURVE"
);
},
{
closed = 1;
nodes = (
"249 158 OFFCURVE",
"357 45 OFFCURVE",
"268 45 CURVE SMOOTH",
"246 45 OFFCURVE",
"241 57 OFFCURVE",
"241 84 CURVE SMOOTH",
"241 104 OFFCURVE",
"248 111 OFFCURVE",
"269 126 CURVE",
"269 125 LINE",
"284 135 OFFCURVE",
"269 156 OFFCURVE",
"255 146 CURVE SMOOTH",
"232 131 OFFCURVE",
"215 118 OFFCURVE",
"215 85 CURVE SMOOTH",
"215 40 OFFCURVE",
"232 26 OFFCURVE",
"268 26 CURVE SMOOTH",
"325 26 OFFCURVE",
"340 114 OFFCURVE",
"296 135 CURVE SMOOTH"
);
}
);
width = 432;
}
);
note = percent;
unicode = 0025;
},
{
glyphname = ampersand;
layers = (
{
hints = (
{
horizontal = 1;
place = "{41, 34}";
type = Stem;
},
{
horizontal = 1;
place = "{133, 42}";
type = Stem;
},
{
horizontal = 1;
place = "{352, 26}";
type = Stem;
},
{
horizontal = 1;
place = "{444, 14}";
type = Stem;
},
{
place = "{32, 30}";
type = Stem;
},
{
place = "{148, 42}";
type = Stem;
},
{
place = "{247, 29}";
type = Stem;
},
{
place = "{434, 14}";
type = Stem;
}
);
layerId = "9537DB68-ED58-4774-880B-66DB18EF27AD";
paths = (
{
closed = 1;
nodes = (
"447 436 OFFCURVE",
"423 458 OFFCURVE",
"397 458 CURVE SMOOTH",
"363 458 OFFCURVE",
"338 428 OFFCURVE",
"342 398 CURVE SMOOTH",
"343 389 OFFCURVE",
"357 391 OFFCURVE",
"356 400 CURVE SMOOTH",
"353 422 OFFCURVE",
"372 446 OFFCURVE",
"397 445 CURVE SMOOTH",
"416 445 OFFCURVE",
"434 428 OFFCURVE",
"434 408 CURVE SMOOTH",
"433 379 OFFCURVE",
"412 349 OFFCURVE",
"392 326 CURVE SMOOTH",
"371 301 OFFCURVE",
"327 290 OFFCURVE",
"293 279 CURVE SMOOTH",
"272 272 OFFCURVE",
"249 271 OFFCURVE",
"228 264 CURVE SMOOTH",
"184 250 OFFCURVE",
"147 231 OFFCURVE",
"147 181 CURVE SMOOTH",
"147 147 OFFCURVE",
"175 133 OFFCURVE",
"202 133 CURVE SMOOTH",
"215 133 OFFCURVE",
"219 134 OFFCURVE",
"234 133 CURVE SMOOTH",
"262 131 OFFCURVE",
"264 173 OFFCURVE",
"236 174 CURVE SMOOTH",
"220 175 OFFCURVE",
"216 174 OFFCURVE",
"203 174 CURVE SMOOTH",
"197 174 OFFCURVE",
"189 174 OFFCURVE",
"189 181 CURVE SMOOTH",
"189 207 OFFCURVE",
"216 222 OFFCURVE",
"238 230 CURVE SMOOTH",
"276 243 LINE",
"276 235 OFFCURVE",
"279 227 OFFCURVE",
"285 226 CURVE SMOOTH",
"302 224 OFFCURVE",
"305 208 OFFCURVE",
"305 191 CURVE SMOOTH",
"305 175 OFFCURVE",
"302 164 OFFCURVE",
"294 151 CURVE SMOOTH",
"273 115 OFFCURVE",
"244 74 OFFCURVE",
"195 74 CURVE SMOOTH",
"142 74 OFFCURVE",
"97 103 OFFCURVE",
"97 162 CURVE SMOOTH",
"97 200 OFFCURVE",
"109 246 OFFCURVE",
"132 283 CURVE",
"135 284 LINE",
"162 284 OFFCURVE",
"275 299 OFFCURVE",
"275 339 CURVE SMOOTH",
"275 361 OFFCURVE",
"260 378 OFFCURVE",
"239 378 CURVE SMOOTH",
"192 378 OFFCURVE",
"151 353 OFFCURVE",
"120 317 CURVE",
"83 326 OFFCURVE",
"62 370 OFFCURVE",
"62 410 CURVE SMOOTH",
"62 469 OFFCURVE",
"98 527 OFFCURVE",
"154 547 CURVE SMOOTH",
"172 554 OFFCURVE",
"198 563 OFFCURVE",
"220 563 CURVE SMOOTH",
"253 563 OFFCURVE",
"293 539 OFFCURVE",
"293 501 CURVE SMOOTH",
"293 463 OFFCURVE",
"251 418 OFFCURVE",
"215 417 CURVE SMOOTH",
"191 417 OFFCURVE",
"169 428 OFFCURVE",
"169 455 CURVE SMOOTH",
"169 481 OFFCURVE",
"191 501 OFFCURVE",
"216 501 CURVE SMOOTH",
"245 501 OFFCURVE",
"242 469 OFFCURVE",
"224 464 CURVE SMOOTH",
"215 462 OFFCURVE",
"219 449 OFFCURVE",
"228 451 CURVE SMOOTH",
"269 463 OFFCURVE",
"266 520 OFFCURVE",
"215 520 CURVE SMOOTH",
"181 520 OFFCURVE",
"152 492 OFFCURVE",
"152 457 CURVE SMOOTH",
"151 418 OFFCURVE",
"180 400 OFFCURVE",
"215 400 CURVE SMOOTH",
"260 400 OFFCURVE",
"315 454 OFFCURVE",
"315 501 CURVE SMOOTH",
"315 551 OFFCURVE",
"264 586 OFFCURVE",
"219 586 CURVE SMOOTH",
"195 586 OFFCURVE",
"166 578 OFFCURVE",
"145 570 CURVE SMOOTH",
"79 545 OFFCURVE",
"33 480 OFFCURVE",
"32 410 CURVE SMOOTH",
"32 363 OFFCURVE",
"57 309 OFFCURVE",
"100 290 CURVE",
"75 251 OFFCURVE",
"60 204 OFFCURVE",
"60 162 CURVE SMOOTH",
"60 81 OFFCURVE",
"122 41 OFFCURVE",
"195 41 CURVE SMOOTH",
"248 41 OFFCURVE",
"271 91 OFFCURVE",
"297 131 CURVE SMOOTH",
"309 150 OFFCURVE",
"321 165 OFFCURVE",
"320 190 CURVE SMOOTH",
"320 210 OFFCURVE",
"313 237 OFFCURVE",
"299 251 CURVE",
"340 265 OFFCURVE",
"381 284 OFFCURVE",
"407 314 CURVE SMOOTH",
"430 339 OFFCURVE",
"447 375 OFFCURVE",
"447 408 CURVE SMOOTH"
);
},
{
closed = 1;
nodes = (
"248 333 OFFCURVE",
"238 334 OFFCURVE",
"230 331 CURVE SMOOTH",
"212 326 OFFCURVE",
"184 320 OFFCURVE",
"160 317 CURVE",
"182 338 OFFCURVE",
"209 352 OFFCURVE",
"241 352 CURVE SMOOTH",
"247 352 OFFCURVE",
"248 345 OFFCURVE",
"248 339 CURVE SMOOTH"
);
}
);
width = 472;
}
);
note = ampersand;
unicode = 0026;
},
{
glyphname = quotesingle;
layers = (
{
hints = (
{
horizontal = 1;
place = "{407, 21}";
target = up;
type = BottomGhost;
},
{
place = "{24, 17}";
type = Stem;
},
{
place = "{69, 19}";
type = Stem;
},
{
place = "{97, 24}";
type = Stem;
}
);
layerId = "9537DB68-ED58-4774-880B-66DB18EF27AD";
paths = (
{
closed = 1;
nodes = (
"121 442 OFFCURVE",
"119 449 OFFCURVE",
"118 457 CURVE SMOOTH",
"108 513 OFFCURVE",
"43 513 OFFCURVE",
"29 459 CURVE SMOOTH",
"27 453 OFFCURVE",
"24 448 OFFCURVE",
"24 442 CURVE SMOOTH",
"24 424 OFFCURVE",
"36 408 OFFCURVE",
"55 408 CURVE SMOOTH",
"70 408 OFFCURVE",
"86 416 OFFCURVE",
"87 435 CURVE SMOOTH",
"87 448 OFFCURVE",
"81 450 OFFCURVE",
"73 457 CURVE SMOOTH",
"66 463 OFFCURVE",
"57 453 OFFCURVE",
"64 447 CURVE SMOOTH",
"70 441 OFFCURVE",
"69 441 OFFCURVE",
"69 435 CURVE SMOOTH",
"69 430 OFFCURVE",
"58 428 OFFCURVE",
"55 428 CURVE SMOOTH",
"44 428 OFFCURVE",
"40 432 OFFCURVE",
"40 441 CURVE SMOOTH",
"40 446 OFFCURVE",
"40 450 OFFCURVE",
"41 454 CURVE SMOOTH",
"47 473 OFFCURVE",
"62 488 OFFCURVE",
"79 485 CURVE SMOOTH",
"92 483 OFFCURVE",
"92 464 OFFCURVE",
"94 453 CURVE SMOOTH",
"95 447 OFFCURVE",
"97 441 OFFCURVE",
"97 434 CURVE SMOOTH",
"97 393 OFFCURVE",
"79 343 OFFCURVE",
"57 314 CURVE SMOOTH",
"52 307 OFFCURVE",
"63 299 OFFCURVE",
"69 306 CURVE SMOOTH",
"92 337 OFFCURVE",
"121 389 OFFCURVE",
"121 433 CURVE SMOOTH"
);
}
);
width = 119;
}
);
note = quotesingle;
unicode = 0027;
},
{
glyphname = parenleft;
layers = (
{
hints = (
{
horizontal = 1;
place = "{578, 21}";
target = up;
type = BottomGhost;
},
{
place = "{50, 52}";
type = Stem;
},
{
place = "{316, 21}";
type = Stem;
}
);
layerId = "9537DB68-ED58-4774-880B-66DB18EF27AD";
paths = (
{
closed = 1;
nodes = (
"336 575 OFFCURVE",
"315 599 OFFCURVE",
"286 599 CURVE SMOOTH",
"261 599 OFFCURVE",
"242 591 OFFCURVE",
"225 579 CURVE SMOOTH",
"106 490 OFFCURVE",
"56 386 OFFCURVE",
"50 235 CURVE SMOOTH",
"49 219 OFFCURVE",
"50 209 OFFCURVE",
"50 193 CURVE SMOOTH",
"50 189 LINE SMOOTH",
"50 87 OFFCURVE",
"106 -68 OFFCURVE",
"203 -126 CURVE SMOOTH",
"232 -144 OFFCURVE",
"259 -99 OFFCURVE",
"229 -81 CURVE SMOOTH",
"156 -37 OFFCURVE",
"114 93 OFFCURVE",
"102 195 CURVE",
"102 294 OFFCURVE",
"104 454 OFFCURVE",
"195 523 CURVE SMOOTH",
"223 544 OFFCURVE",
"246 578 OFFCURVE",
"285 578 CURVE SMOOTH",
"302 578 OFFCURVE",
"315 564 OFFCURVE",
"315 546 CURVE SMOOTH",
"315 525 OFFCURVE",
"303 516 OFFCURVE",
"289 502 CURVE SMOOTH",
"279 492 OFFCURVE",
"293 478 OFFCURVE",
"302 487 CURVE SMOOTH",
"321 505 OFFCURVE",
"337 518 OFFCURVE",
"337 546 CURVE SMOOTH"
);
}
);
width = 284;
}
);
note = parenleft;
unicode = 0028;
},
{
glyphname = parenright;
layers = (
{
hints = (
{
horizontal = 1;
place = "{-136, 30}";
type = Stem;
},
{
horizontal = 1;
place = "{590, 22}";
type = Stem;
},
{
place = "{190, 52}";
type = Stem;
}
);
layerId = "9537DB68-ED58-4774-880B-66DB18EF27AD";
paths = (
{
closed = 1;
nodes = (
"242 342 OFFCURVE",
"232 417 OFFCURVE",
"213 483 CURVE SMOOTH",
"195 548 OFFCURVE",
"161 612 OFFCURVE",
"79 612 CURVE SMOOTH",
"42 612 OFFCURVE",
"29 581 OFFCURVE",
"1 563 CURVE",
"1 562 LINE",
"-8 555 OFFCURVE",
"1 541 OFFCURVE",
"10 547 CURVE SMOOTH",
"22 555 OFFCURVE",
"31 561 OFFCURVE",
"39 568 CURVE SMOOTH",
"50 577 OFFCURVE",
"64 590 OFFCURVE",
"79 590 CURVE SMOOTH",
"144 590 OFFCURVE",
"149 521 OFFCURVE",
"163 470 CURVE SMOOTH",
"180 408 OFFCURVE",
"190 337 OFFCURVE",
"190 267 CURVE SMOOTH",
"190 168 OFFCURVE",
"180 46 OFFCURVE",
"132 -42 CURVE SMOOTH",
"119 -66 OFFCURVE",
"101 -106 OFFCURVE",
"71 -106 CURVE SMOOTH",
"63 -106 OFFCURVE",
"53 -106 OFFCURVE",
"46 -101 CURVE SMOOTH",
"33 -91 OFFCURVE",
"11 -98 OFFCURVE",
"26 -110 CURVE SMOOTH",
"40 -121 OFFCURVE",
"47 -136 OFFCURVE",
"71 -136 CURVE SMOOTH",
"112 -136 OFFCURVE",
"148 -94 OFFCURVE",
"167 -60 CURVE SMOOTH",
"200 -1 OFFCURVE",
"225 54 OFFCURVE",
"234 130 CURVE SMOOTH",
"240 181 OFFCURVE",
"242 220 OFFCURVE",
"242 268 CURVE SMOOTH"
);
}
);
width = 270;
}
);
note = parenright;
unicode = 0029;
},
{
glyphname = asterisk;
layers = (
{
hints = (
{
horizontal = 1;
place = "{457, 36}";
type = Stem;
},
{
place = "{229, 34}";
type = Stem;
}
);
layerId = "9537DB68-ED58-4774-880B-66DB18EF27AD";
paths = (
{
closed = 1;
nodes = (
"406 583 OFFCURVE",
"394 605 OFFCURVE",
"379 597 CURVE SMOOTH",
"340 575 OFFCURVE",
"316 559 OFFCURVE",
"286 524 CURVE SMOOTH",
"275 512 OFFCURVE",
"295 489 OFFCURVE",
"306 502 CURVE SMOOTH",
"334 534 OFFCURVE",
"354 555 OFFCURVE",
"391 575 CURVE SMOOTH"
);
},
{
closed = 1;
nodes = (
"271 642 LINE",
"271 659 OFFCURVE",
"246 659 OFFCURVE",
"246 642 CURVE SMOOTH",
"246 599 OFFCURVE",
"240 584 OFFCURVE",
"236 532 CURVE SMOOTH",
"234 515 OFFCURVE",
"267 514 OFFCURVE",
"268 531 CURVE SMOOTH",
"272 584 OFFCURVE",
"272 599 OFFCURVE",
"272 642 CURVE"
);
},
{
closed = 1;
nodes = (
"401 459 OFFCURVE",
"352 470 OFFCURVE",
"301 477 CURVE SMOOTH",
"284 479 OFFCURVE",
"274 449 OFFCURVE",
"291 447 CURVE SMOOTH",
"341 440 OFFCURVE",
"396 434 OFFCURVE",
"444 424 CURVE SMOOTH",
"460 421 OFFCURVE",
"465 445 OFFCURVE",
"449 449 CURVE SMOOTH"
);
},
{
closed = 1;
nodes = (
"263 485 OFFCURVE",
"255 493 OFFCURVE",
"246 493 CURVE SMOOTH",
"237 493 OFFCURVE",
"229 485 OFFCURVE",
"229 475 CURVE SMOOTH",
"229 465 OFFCURVE",
"237 457 OFFCURVE",
"246 457 CURVE SMOOTH",
"255 457 OFFCURVE",
"263 465 OFFCURVE",
"263 475 CURVE SMOOTH"
);
},
{
closed = 1;
nodes = (
"148 591 LINE SMOOTH",
"136 603 OFFCURVE",
"118 588 OFFCURVE",
"129 575 CURVE SMOOTH",
"191 503 LINE SMOOTH",
"202 490 OFFCURVE",
"225 514 OFFCURVE",
"213 526 CURVE SMOOTH"
);
},
{
closed = 1;
nodes = (
"289 426 LINE SMOOTH",
"285 442 OFFCURVE",
"252 436 OFFCURVE",
"257 420 CURVE SMOOTH",
"289 322 LINE SMOOTH",
"295 306 OFFCURVE",
"318 312 OFFCURVE",
"314 328 CURVE SMOOTH"
);
},
{
closed = 1;
nodes = (
"219 449 OFFCURVE",
"205 477 OFFCURVE",
"190 471 CURVE SMOOTH",
"137 449 OFFCURVE",
"104 445 OFFCURVE",
"48 431 CURVE SMOOTH",
"32 427 OFFCURVE",
"38 403 OFFCURVE",
"54 407 CURVE SMOOTH",
"111 421 OFFCURVE",
"148 419 OFFCURVE",
"204 442 CURVE SMOOTH"
);
},
{
closed = 1;
nodes = (
"246 417 OFFCURVE",
"229 435 OFFCURVE",
"217 423 CURVE SMOOTH",
"188 394 OFFCURVE",
"156 370 OFFCURVE",
"133 336 CURVE SMOOTH",
"124 322 OFFCURVE",
"145 308 OFFCURVE",
"154 322 CURVE SMOOTH",
"176 355 OFFCURVE",
"207 378 OFFCURVE",
"235 405 CURVE SMOOTH"
);
}
);
width = 479;
}
);
note = asterisk;
unicode = 002A;
},
{
glyphname = plus;
layers = (
{
hints = (
{
horizontal = 1;
place = "{366, 45}";
type = Stem;
},
{
place = "{240, 50}";
type = Stem;
}
);
layerId = "9537DB68-ED58-4774-880B-66DB18EF27AD";
paths = (
{
closed = 1;
nodes = (
"431 404 OFFCURVE",
"425 411 OFFCURVE",
"413 411 CURVE SMOOTH",
"301 411 LINE",
"301 450 OFFCURVE",
"296 490 OFFCURVE",
"285 524 CURVE",
"285 529 OFFCURVE",
"283 534 OFFCURVE",
"280 537 CURVE",
"278 543 LINE SMOOTH",
"272 556 OFFCURVE",
"259 555 OFFCURVE",
"252 548 CURVE",
"243 550 OFFCURVE",
"231 542 OFFCURVE",
"234 530 CURVE SMOOTH",
"239 509 OFFCURVE",
"242 486 OFFCURVE",
"244 463 CURVE",
"242 446 OFFCURVE",
"241 429 OFFCURVE",
"240 411 CURVE",
"130 411 LINE SMOOTH",
"114 411 OFFCURVE",
"111 392 OFFCURVE",
"120 384 CURVE",
"114 377 OFFCURVE",
"114 369 OFFCURVE",
"129 364 CURVE SMOOTH",
"154 355 OFFCURVE",
"195 354 OFFCURVE",
"240 355 CURVE",
"242 328 LINE",
"240 294 LINE SMOOTH",
"238 281 OFFCURVE",
"237 268 OFFCURVE",
"237 255 CURVE SMOOTH",
"237 240 OFFCURVE",
"252 235 OFFCURVE",
"261 242 CURVE",
"270 234 OFFCURVE",
"284 238 OFFCURVE",
"285 253 CURVE",
"288 256 OFFCURVE",
"290 260 OFFCURVE",
"290 265 CURVE SMOOTH",
"290 302 LINE",
"294 320 OFFCURVE",
"297 339 OFFCURVE",
"299 359 CURVE",
"346 362 OFFCURVE",
"393 366 OFFCURVE",
"427 366 CURVE SMOOTH",
"446 366 OFFCURVE",
"447 393 OFFCURVE",
"430 396 CURVE"
);
}
);
width = 488;
}
);
note = plus;
unicode = 002B;
},
{
glyphname = comma;
layers = (
{
hints = (
{
horizontal = 1;
place = "{-22, 18}";
type = Stem;
},
{
horizontal = 1;
place = "{106, -20}";
target = down;
type = TopGhost;
},
{
place = "{55, 27}";
type = Stem;
},
{
place = "{138, 14}";
type = Stem;
},
{
place = "{167, 36}";
type = Stem;
}
);
layerId = "9537DB68-ED58-4774-880B-66DB18EF27AD";
paths = (
{
closed = 1;
nodes = (
"204 41 OFFCURVE",
"186 67 OFFCURVE",
"173 85 CURVE SMOOTH",
"167 93 OFFCURVE",
"148 106 OFFCURVE",
"136 106 CURVE SMOOTH",
"98 106 OFFCURVE",
"55 68 OFFCURVE",
"55 32 CURVE SMOOTH",
"55 11 OFFCURVE",
"79 -22 OFFCURVE",
"110 -22 CURVE SMOOTH",
"117 -22 OFFCURVE",
"121 -20 OFFCURVE",
"125 -18 CURVE SMOOTH",
"142 -9 OFFCURVE",
"152 4 OFFCURVE",
"152 24 CURVE SMOOTH",
"152 36 OFFCURVE",
"141 44 OFFCURVE",
"131 44 CURVE SMOOTH",
"130 44 OFFCURVE",
"128 44 OFFCURVE",
"126 43 CURVE SMOOTH",
"123 42 LINE",
"118 40 LINE SMOOTH",
"109 36 OFFCURVE",
"113 23 OFFCURVE",
"122 27 CURVE SMOOTH",
"127 29 LINE",
"130 30 LINE",
"135 30 OFFCURVE",
"138 27 OFFCURVE",
"138 25 CURVE SMOOTH",
"138 13 OFFCURVE",
"132 9 OFFCURVE",
"125 4 CURVE SMOOTH",
"120 0 OFFCURVE",
"118 -3 OFFCURVE",
"110 -3 CURVE SMOOTH",
"95 -4 OFFCURVE",
"83 15 OFFCURVE",
"83 34 CURVE SMOOTH",
"82 61 OFFCURVE",
"107 86 OFFCURVE",
"135 86 CURVE SMOOTH",
"142 86 OFFCURVE",
"150 75 OFFCURVE",
"153 71 CURVE SMOOTH",
"164 57 OFFCURVE",
"168 38 OFFCURVE",
"168 20 CURVE SMOOTH",
"168 -25 OFFCURVE",
"106 -111 OFFCURVE",
"68 -128 CURVE SMOOTH",
"59 -131 OFFCURVE",
"65 -143 OFFCURVE",
"73 -139 CURVE SMOOTH",
"116 -121 OFFCURVE",
"205 -32 OFFCURVE",
"204 18 CURVE SMOOTH"
);
}
);
width = 230;
}
);
note = comma;
unicode = 002C;
},
{
glyphname = hyphen;
layers = (
{
hints = (
{
horizontal = 1;
place = "{183, 30}";
type = Stem;
}
);
layerId = "9537DB68-ED58-4774-880B-66DB18EF27AD";
paths = (
{
closed = 1;
nodes = (
"280 211 OFFCURVE",
"271 225 OFFCURVE",
"261 219 CURVE SMOOTH",
"250 212 OFFCURVE",
"220 211 OFFCURVE",
"201 211 CURVE SMOOTH",
"197 211 OFFCURVE",
"183 213 OFFCURVE",
"176 213 CURVE SMOOTH",
"167 213 OFFCURVE",
"161 211 OFFCURVE",
"152 211 CURVE SMOOTH",
"146 211 OFFCURVE",
"136 213 OFFCURVE",
"126 213 CURVE SMOOTH",
"112 214 OFFCURVE",
"98 224 OFFCURVE",
"81 224 CURVE SMOOTH",
"57 224 OFFCURVE",
"48 208 OFFCURVE",
"32 196 CURVE SMOOTH",
"19 186 OFFCURVE",
"34 166 OFFCURVE",
"47 176 CURVE SMOOTH",
"58 184 OFFCURVE",
"68 188 OFFCURVE",
"81 188 CURVE SMOOTH",
"88 188 OFFCURVE",
"94 188 OFFCURVE",
"100 186 CURVE SMOOTH",
"115 182 OFFCURVE",
"137 181 OFFCURVE",
"152 181 CURVE SMOOTH",
"161 181 OFFCURVE",
"167 183 OFFCURVE",
"176 183 CURVE SMOOTH",
"183 183 OFFCURVE",
"197 181 OFFCURVE",
"200 181 CURVE SMOOTH",
"223 181 OFFCURVE",
"256 196 OFFCURVE",
"270 205 CURVE SMOOTH"
);
}
);
width = 271;
}
);
note = hyphen;
unicode = 002D;
},
{
glyphname = period;
layers = (
{
hints = (
{
horizontal = 1;
place = "{-32, 18}";
type = Stem;
},
{
horizontal = 1;
place = "{4, 14}";
type = Stem;
},
{
horizontal = 1;
place = "{39, 14}";
type = Stem;
},
{
horizontal = 1;
place = "{73, 26}";
type = Stem;
},
{
place = "{88, 26}";
type = Stem;
},
{
place = "{129, 14}";
type = Stem;
},
{
place = "{183, 14}";
type = Stem;
}
);
layerId = "9537DB68-ED58-4774-880B-66DB18EF27AD";
paths = (
{
closed = 1;
nodes = (
"197 71 OFFCURVE",
"179 100 OFFCURVE",
"155 100 CURVE SMOOTH",
"120 99 OFFCURVE",
"88 62 OFFCURVE",
"88 28 CURVE SMOOTH",
"88 -6 OFFCURVE",
"120 -32 OFFCURVE",
"154 -32 CURVE SMOOTH",
"160 -32 OFFCURVE",
"164 -28 OFFCURVE",
"170 -26 CURVE SMOOTH",
"176 -24 OFFCURVE",
"188 -9 OFFCURVE",
"171 -11 CURVE SMOOTH",
"166 -12 OFFCURVE",
"160 -14 OFFCURVE",
"154 -14 CURVE SMOOTH",
"132 -13 OFFCURVE",
"114 6 OFFCURVE",
"114 28 CURVE SMOOTH",
"114 48 OFFCURVE",
"135 74 OFFCURVE",
"156 74 CURVE SMOOTH",
"169 74 OFFCURVE",
"183 61 OFFCURVE",
"183 47 CURVE SMOOTH",
"184 32 OFFCURVE",
"171 18 OFFCURVE",
"158 18 CURVE SMOOTH",
"152 18 OFFCURVE",
"142 24 OFFCURVE",
"142 29 CURVE SMOOTH",
"143 34 OFFCURVE",
"147 39 OFFCURVE",
"155 39 CURVE",
"155 40 LINE",
"164 40 OFFCURVE",
"164 54 OFFCURVE",
"155 54 CURVE SMOOTH",
"140 53 OFFCURVE",
"130 42 OFFCURVE",
"130 28 CURVE SMOOTH",
"129 13 OFFCURVE",
"150 5 OFFCURVE",
"157 5 CURVE SMOOTH",
"179 4 OFFCURVE",
"198 25 OFFCURVE",
"198 47 CURVE SMOOTH"
);
}
);
width = 226;
}
);
note = period;
unicode = 002E;
},
{
glyphname = slash;
layers = (
{
hints = (
{
horizontal = 1;
place = "{-33, 20}";
type = Stem;
},
{
place = "{39, 27}";
type = Stem;
}
);
layerId = "9537DB68-ED58-4774-880B-66DB18EF27AD";
paths = (
{
closed = 1;
nodes = (
"470 598 LINE",
"482 609 OFFCURVE",
"477 633 OFFCURVE",
"456 633 CURVE SMOOTH",
"447 633 OFFCURVE",
"430 623 OFFCURVE",
"427 615 CURVE SMOOTH",
"407 560 OFFCURVE",
"352 501 OFFCURVE",
"313 457 CURVE SMOOTH",
"255 393 OFFCURVE",
"195 300 OFFCURVE",
"149 228 CURVE SMOOTH",
"127 195 OFFCURVE",
"116 167 OFFCURVE",
"97 138 CURVE SMOOTH",
"76 106 OFFCURVE",
"40 34 OFFCURVE",
"40 -5 CURVE",
"39 -15 OFFCURVE",
"51 -27 OFFCURVE",
"51 -27 CURVE",
"57 -39 OFFCURVE",
"76 -32 OFFCURVE",
"71 -18 CURVE",
"71 -14 OFFCURVE",
"67 -11 OFFCURVE",
"67 -6 CURVE SMOOTH",
"66 46 OFFCURVE",
"150 159 OFFCURVE",
"181 207 CURVE SMOOTH",
"227 277 OFFCURVE",
"296 360 OFFCURVE",
"352 422 CURVE SMOOTH",
"394 470 OFFCURVE",
"452 537 OFFCURVE",
"474 598 CURVE"
);
}
);
width = 388;
}
);
note = slash;
unicode = 002F;
},
{
glyphname = zero;
layers = (
{
hints = (
{
horizontal = 1;
place = "{-41, 52}";
type = Stem;
},
{
horizontal = 1;
place = "{288, 17}";
type = Stem;
},
{
horizontal = 1;
place = "{400, 19}";
type = Stem;
},
{
horizontal = 1;
place = "{473, 24}";
type = Stem;
},
{
horizontal = 1;
place = "{552, 42}";
type = Stem;
},
{
place = "{41, 27}";
type = Stem;
},
{
place = "{337, 23}";
type = Stem;
},
{
place = "{429, 52}";
type = Stem;
}
);
layerId = "9537DB68-ED58-4774-880B-66DB18EF27AD";
paths = (
{
closed = 1;
nodes = (
"481 359 OFFCURVE",
"445 541 OFFCURVE",
"310 581 CURVE SMOOTH",
"274 591 OFFCURVE",
"242 594 OFFCURVE",
"202 594 CURVE SMOOTH",
"166 594 OFFCURVE",
"141 574 OFFCURVE",
"115 558 CURVE SMOOTH",
"72 532 OFFCURVE",
"41 483 OFFCURVE",
"41 427 CURVE SMOOTH",
"41 391 OFFCURVE",
"53 354 OFFCURVE",
"78 328 CURVE",
"64 287 OFFCURVE",
"58 242 OFFCURVE",
"63 198 CURVE SMOOTH",
"75 93 OFFCURVE",
"162 -41 OFFCURVE",
"286 -41 CURVE SMOOTH",
"328 -41 OFFCURVE",
"358 -21 OFFCURVE",
"379 -1 CURVE SMOOTH",
"450 63 OFFCURVE",
"481 153 OFFCURVE",
"481 247 CURVE SMOOTH"
);
},
{
closed = 1;
nodes = (
"429 164 OFFCURVE",
"401 90 OFFCURVE",
"343 38 CURVE SMOOTH",
"325 22 OFFCURVE",
"308 11 OFFCURVE",
"286 11 CURVE SMOOTH",
"200 11 OFFCURVE",
"126 111 OFFCURVE",
"115 204 CURVE SMOOTH",
"112 232 OFFCURVE",
"112 266 OFFCURVE",
"119 300 CURVE",
"159 283 OFFCURVE",
"197 279 OFFCURVE",
"233 315 CURVE SMOOTH",
"241 323 OFFCURVE",
"229 335 OFFCURVE",
"221 327 CURVE SMOOTH",
"190 297 OFFCURVE",
"158 302 OFFCURVE",
"123 318 CURVE",
"142 398 OFFCURVE",
"191 475 OFFCURVE",
"279 474 CURVE SMOOTH",
"303 474 OFFCURVE",
"337 465 OFFCURVE",
"337 442 CURVE SMOOTH",
"337 425 OFFCURVE",
"316 416 OFFCURVE",
"299 420 CURVE SMOOTH",
"287 423 OFFCURVE",
"282 405 OFFCURVE",
"294 402 CURVE SMOOTH",
"325 394 OFFCURVE",
"360 411 OFFCURVE",
"360 442 CURVE SMOOTH",
"360 476 OFFCURVE",
"314 497 OFFCURVE",
"278 497 CURVE SMOOTH",
"262 497 OFFCURVE",
"245 497 OFFCURVE",
"236 494 CURVE SMOOTH",
"168 472 OFFCURVE",
"115 416 OFFCURVE",
"86 349 CURVE",
"72 371 OFFCURVE",
"68 400 OFFCURVE",
"68 426 CURVE SMOOTH",
"68 472 OFFCURVE",
"93 514 OFFCURVE",
"129 536 CURVE SMOOTH",
"150 549 OFFCURVE",
"173 552 OFFCURVE",
"201 552 CURVE SMOOTH",
"237 552 OFFCURVE",
"263 539 OFFCURVE",
"295 530 CURVE SMOOTH",
"391 502 OFFCURVE",
"429 362 OFFCURVE",
"429 246 CURVE SMOOTH"
);
}
);
width = 546;
}
);
note = zero;
unicode = 0030;
},
{
glyphname = one;
layers = (
{
hints = (
{
horizontal = 1;
place = "{-30, 20}";
type = Stem;
},
{
horizontal = 1;
place = "{46, 23}";
type = Stem;
},
{
horizontal = 1;
place = "{359, 18}";
type = Stem;
},
{
place = "{129, 30}";
type = Stem;
}
);
layerId = "9537DB68-ED58-4774-880B-66DB18EF27AD";
paths = (
{
closed = 1;
nodes = (
"210 75 OFFCURVE",
"193 75 OFFCURVE",
"175 70 CURVE",
"176 74 OFFCURVE",
"176 79 OFFCURVE",
"173 85 CURVE SMOOTH",
"161 106 OFFCURVE",
"159 132 OFFCURVE",
"159 156 CURVE SMOOTH",
"159 207 OFFCURVE",
"175 252 OFFCURVE",
"191 300 CURVE SMOOTH",
"207 350 OFFCURVE",
"242 477 OFFCURVE",
"222 529 CURVE",
"222 532 OFFCURVE",
"221 534 OFFCURVE",
"220 536 CURVE",
"220 538 OFFCURVE",
"219 540 OFFCURVE",
"217 542 CURVE",
"198 574 OFFCURVE",
"180 514 OFFCURVE",
"179 501 CURVE SMOOTH",
"178 495 LINE",
"173 486 OFFCURVE",
"169 478 OFFCURVE",
"167 472 CURVE SMOOTH",
"157 446 OFFCURVE",
"132 377 OFFCURVE",
"91 377 CURVE SMOOTH",
"84 377 OFFCURVE",
"85 390 OFFCURVE",
"85 394 CURVE SMOOTH",
"84 405 OFFCURVE",
"67 405 OFFCURVE",
"67 394 CURVE SMOOTH",
"68 386 OFFCURVE",
"75 359 OFFCURVE",
"92 359 CURVE SMOOTH",
"110 359 OFFCURVE",
"122 365 OFFCURVE",
"134 378 CURVE SMOOTH",
"165 410 LINE",
"159 377 OFFCURVE",
"151 345 OFFCURVE",
"141 316 CURVE SMOOTH",
"132 288 OFFCURVE",
"129 195 OFFCURVE",
"129 156 CURVE SMOOTH",
"129 138 OFFCURVE",
"133 79 OFFCURVE",
"139 67 CURVE SMOOTH",
"141 63 OFFCURVE",
"143 60 OFFCURVE",
"146 58 CURVE",
"116 44 OFFCURVE",
"88 20 OFFCURVE",
"72 -4 CURVE SMOOTH",
"70 -8 OFFCURVE",
"69 -14 OFFCURVE",
"67 -18 CURVE SMOOTH",
"56 -40 OFFCURVE",
"85 -28 OFFCURVE",
"92 -17 CURVE SMOOTH",
"117 21 OFFCURVE",
"176 58 OFFCURVE",
"215 43 CURVE SMOOTH",
"232 36 OFFCURVE",
"242 62 OFFCURVE",
"225 69 CURVE SMOOTH"
);
}
);
width = 302;
}
);
note = one;
unicode = 0031;
},
{
glyphname = two;
layers = (
{
hints = (
{
horizontal = 1;
place = "{3, 42}";
type = Stem;
},
{
horizontal = 1;
place = "{157, 27}";
type = Stem;
},
{
horizontal = 1;
place = "{351, 23}";
type = Stem;
},
{
horizontal = 1;
place = "{527, 38}";
type = Stem;
},
{
place = "{-5, 30}";
type = Stem;
},
{
place = "{61, 19}";
type = Stem;
},
{
place = "{161, 23}";
type = Stem;
},
{
place = "{308, 17}";
type = Stem;
},
{
place = "{338, 52}";
type = Stem;
},
{
place = "{395, 30}";
type = Stem;
}
);
layerId = "9537DB68-ED58-4774-880B-66DB18EF27AD";
paths = (
{
closed = 1;
nodes = (
"425 140 OFFCURVE",
"401 183 OFFCURVE",
"368 183 CURVE SMOOTH",
"333 184 OFFCURVE",
"317 163 OFFCURVE",
"306 138 CURVE SMOOTH",
"300 125 OFFCURVE",
"307 111 OFFCURVE",
"308 98 CURVE SMOOTH",
"308 87 OFFCURVE",
"324 87 OFFCURVE",
"325 98 CURVE SMOOTH",
"327 129 LINE",
"335 145 OFFCURVE",
"346 157 OFFCURVE",
"368 157 CURVE",
"375 156 OFFCURVE",
"386 146 OFFCURVE",
"391 134 CURVE SMOOTH",
"394 128 OFFCURVE",
"395 116 OFFCURVE",
"395 110 CURVE SMOOTH",
"395 76 OFFCURVE",
"369 33 OFFCURVE",
"329 33 CURVE SMOOTH",
"295 33 OFFCURVE",
"273 55 OFFCURVE",
"249 75 CURVE SMOOTH",
"237 85 OFFCURVE",
"225 93 OFFCURVE",
"212 100 CURVE",
"304 192 OFFCURVE",
"390 333 OFFCURVE",
"390 439 CURVE SMOOTH",
"390 496 OFFCURVE",
"346 543 OFFCURVE",
"296 557 CURVE SMOOTH",
"273 564 OFFCURVE",
"250 565 OFFCURVE",
"225 565 CURVE SMOOTH",
"202 565 OFFCURVE",
"186 560 OFFCURVE",
"165 553 CURVE SMOOTH",
"103 533 OFFCURVE",
"62 495 OFFCURVE",
"61 418 CURVE SMOOTH",
"61 390 OFFCURVE",
"88 350 OFFCURVE",
"119 350 CURVE SMOOTH",
"150 350 OFFCURVE",
"182 374 OFFCURVE",
"183 407 CURVE SMOOTH",
"183 426 OFFCURVE",
"167 440 OFFCURVE",
"148 443 CURVE",
"147 442 LINE",
"136 444 OFFCURVE",
"134 427 OFFCURVE",
"145 425 CURVE SMOOTH",
"154 424 OFFCURVE",
"161 416 OFFCURVE",
"161 407 CURVE SMOOTH",
"160 390 OFFCURVE",
"141 372 OFFCURVE",
"119 373 CURVE SMOOTH",
"99 373 OFFCURVE",
"79 400 OFFCURVE",
"79 418 CURVE SMOOTH",
"80 482 OFFCURVE",
"124 506 OFFCURVE",
"176 523 CURVE SMOOTH",
"192 528 OFFCURVE",
"206 527 OFFCURVE",
"225 527 CURVE SMOOTH",
"246 527 OFFCURVE",
"264 512 OFFCURVE",
"283 507 CURVE SMOOTH",
"313 499 OFFCURVE",
"338 470 OFFCURVE",
"338 439 CURVE SMOOTH",
"338 354 OFFCURVE",
"254 209 OFFCURVE",
"174 121 CURVE",
"162 128 OFFCURVE",
"149 135 OFFCURVE",
"137 143 CURVE SMOOTH",
"111 161 OFFCURVE",
"92 178 OFFCURVE",
"58 178 CURVE SMOOTH",
"22 179 OFFCURVE",
"-5 143 OFFCURVE",
"-5 111 CURVE SMOOTH",
"-5 74 OFFCURVE",
"16 3 OFFCURVE",
"60 3 CURVE SMOOTH",
"83 3 OFFCURVE",
"99 17 OFFCURVE",
"118 27 CURVE SMOOTH",
"140 39 OFFCURVE",
"162 54 OFFCURVE",
"184 74 CURVE",
"231 42 OFFCURVE",
"268 -5 OFFCURVE",
"329 -5 CURVE SMOOTH",
"387 -5 OFFCURVE",
"425 60 OFFCURVE",
"425 111 CURVE SMOOTH"
);
},
{
closed = 1;
nodes = (
"150 96 LINE",
"133 79 OFFCURVE",
"116 66 OFFCURVE",
"101 58 CURVE SMOOTH",
"88 50 OFFCURVE",
"75 45 OFFCURVE",
"60 45 CURVE SMOOTH",
"34 45 OFFCURVE",
"25 88 OFFCURVE",
"25 110 CURVE SMOOTH",
"25 120 OFFCURVE",
"24 126 OFFCURVE",
"27 131 CURVE SMOOTH",
"34 143 OFFCURVE",
"44 153 OFFCURVE",
"57 153 CURVE SMOOTH",
"83 154 OFFCURVE",
"100 130 OFFCURVE",
"119 117 CURVE SMOOTH"
);
}
);
width = 452;
}
);
note = two;
unicode = 0032;
},
{
glyphname = three;
layers = (
{
hints = (
{
horizontal = 1;
place = "{-72, 52}";
type = Stem;
},
{
horizontal = 1;
place = "{60, 17}";
type = Stem;
},
{
horizontal = 1;
place = "{162, 36}";
type = Stem;
},
{
horizontal = 1;
place = "{347, 27}";
type = Stem;
},
{
horizontal = 1;
place = "{517, 34}";
type = Stem;
},
{
place = "{52, 22}";
type = Stem;
},
{
place = "{131, 20}";
type = Stem;
},
{
place = "{164, 18}";
type = Stem;
},
{
place = "{280, 42}";
type = Stem;
},
{
place = "{331, 41}";
type = Stem;
}
);
layerId = "9537DB68-ED58-4774-880B-66DB18EF27AD";
paths = (
{
closed = 1;
nodes = (
"371 276 OFFCURVE",
"331 323 OFFCURVE",
"277 342 CURVE",
"304 382 OFFCURVE",
"321 430 OFFCURVE",
"321 467 CURVE SMOOTH",
"321 524 OFFCURVE",
"277 552 OFFCURVE",
"224 552 CURVE SMOOTH",
"188 552 OFFCURVE",
"161 536 OFFCURVE",
"132 521 CURVE SMOOTH",
"106 508 OFFCURVE",
"68 486 OFFCURVE",
"59 456 CURVE SMOOTH",
"56 448 OFFCURVE",
"51 422 OFFCURVE",
"51 411 CURVE SMOOTH",
"51 381 OFFCURVE",
"81 348 OFFCURVE",
"110 348 CURVE SMOOTH",
"136 348 OFFCURVE",
"150 368 OFFCURVE",
"150 395 CURVE SMOOTH",
"150 411 OFFCURVE",
"147 417 OFFCURVE",
"130 421 CURVE SMOOTH",
"119 424 OFFCURVE",
"115 407 OFFCURVE",
"126 404 CURVE",
"130 404 OFFCURVE",
"131 405 OFFCURVE",
"131 402 CURVE SMOOTH",
"131 395 LINE SMOOTH",
"130 383 OFFCURVE",
"122 375 OFFCURVE",
"110 375 CURVE SMOOTH",
"93 375 OFFCURVE",
"73 394 OFFCURVE",
"73 412 CURVE SMOOTH",
"73 421 OFFCURVE",
"75 443 OFFCURVE",
"77 450 CURVE SMOOTH",
"84 472 OFFCURVE",
"127 489 OFFCURVE",
"145 498 CURVE SMOOTH",
"169 510 OFFCURVE",
"194 518 OFFCURVE",
"224 518 CURVE SMOOTH",
"256 518 OFFCURVE",
"279 498 OFFCURVE",
"279 466 CURVE SMOOTH",
"279 435 OFFCURVE",
"267 388 OFFCURVE",
"245 351 CURVE",
"238 351 OFFCURVE",
"230 352 OFFCURVE",
"222 352 CURVE SMOOTH",
"201 352 OFFCURVE",
"190 349 OFFCURVE",
"170 342 CURVE SMOOTH",
"157 338 OFFCURVE",
"135 313 OFFCURVE",
"135 297 CURVE SMOOTH",
"135 277 OFFCURVE",
"164 267 OFFCURVE",
"182 271 CURVE SMOOTH",
"210 276 OFFCURVE",
"236 294 OFFCURVE",
"258 318 CURVE",
"270 312 OFFCURVE",
"283 304 OFFCURVE",
"293 297 CURVE SMOOTH",
"318 280 OFFCURVE",
"330 245 OFFCURVE",
"330 212 CURVE SMOOTH",
"330 138 OFFCURVE",
"273 35 OFFCURVE",
"209 -4 CURVE SMOOTH",
"192 -15 OFFCURVE",
"183 -19 OFFCURVE",
"168 -19 CURVE SMOOTH",
"113 -19 OFFCURVE",
"78 56 OFFCURVE",
"78 123 CURVE SMOOTH",
"78 129 OFFCURVE",
"80 138 OFFCURVE",
"83 143 CURVE",
"83 144 LINE",
"88 147 OFFCURVE",
"111 163 OFFCURVE",
"116 163 CURVE SMOOTH",
"123 163 OFFCURVE",
"128 167 OFFCURVE",
"133 163 CURVE SMOOTH",
"150 151 OFFCURVE",
"163 126 OFFCURVE",
"163 104 CURVE SMOOTH",
"163 95 OFFCURVE",
"158 78 OFFCURVE",
"149 78 CURVE SMOOTH",
"140 78 OFFCURVE",
"137 97 OFFCURVE",
"136 104 CURVE SMOOTH",
"132 122 OFFCURVE",
"106 117 OFFCURVE",
"110 99 CURVE SMOOTH",
"112 86 OFFCURVE",
"132 61 OFFCURVE",
"149 61 CURVE SMOOTH",
"166 61 OFFCURVE",
"181 88 OFFCURVE",
"181 104 CURVE SMOOTH",
"181 126 OFFCURVE",
"163 171 OFFCURVE",
"148 183 CURVE SMOOTH",
"138 190 OFFCURVE",
"132 199 OFFCURVE",
"115 199 CURVE SMOOTH",
"97 199 OFFCURVE",
"65 195 OFFCURVE",
"50 183 CURVE SMOOTH",
"31 169 OFFCURVE",
"26 137 OFFCURVE",
"26 123 CURVE SMOOTH",
"26 58 OFFCURVE",
"61 -71 OFFCURVE",
"168 -71 CURVE SMOOTH",
"286 -71 OFFCURVE",
"371 115 OFFCURVE",
"371 211 CURVE SMOOTH"
);
},
{
closed = 1;
nodes = (
"230 325 LINE",
"216 309 OFFCURVE",
"199 297 OFFCURVE",
"179 294 CURVE SMOOTH",
"173 293 OFFCURVE",
"162 290 OFFCURVE",
"162 296 CURVE SMOOTH",
"163 305 OFFCURVE",
"169 322 OFFCURVE",
"176 324 CURVE SMOOTH",
"194 330 OFFCURVE",
"205 326 OFFCURVE",
"224 326 CURVE SMOOTH",
"229 326 LINE"
);
}
);
width = 392;
}
);
note = three;
unicode = 0033;
},
{
glyphname = four;
layers = (
{
hints = (
{
horizontal = 1;
place = "{-28, 39}";
type = Stem;
},
{
horizontal = 1;
place = "{181, 52}";
type = Stem;
},
{
horizontal = 1;
place = "{367, 28}";
type = Stem;
},
{
place = "{422, 19}";
type = Stem;
},
{
place = "{493, 17}";
type = Stem;
}
);
layerId = "9537DB68-ED58-4774-880B-66DB18EF27AD";
paths = (
{
closed = 1;
nodes = (
"509 359 OFFCURVE",
"502 379 OFFCURVE",
"499 383 CURVE SMOOTH",
"492 392 OFFCURVE",
"483 395 OFFCURVE",
"470 395 CURVE SMOOTH",
"436 395 OFFCURVE",
"418 364 OFFCURVE",
"418 333 CURVE SMOOTH",
"418 318 OFFCURVE",
"423 311 OFFCURVE",
"432 303 CURVE SMOOTH",
"440 295 OFFCURVE",
"451 308 OFFCURVE",
"442 315 CURVE SMOOTH",
"437 320 OFFCURVE",
"436 325 OFFCURVE",
"436 334 CURVE SMOOTH",
"436 352 OFFCURVE",
"450 367 OFFCURVE",
"470 367 CURVE SMOOTH",
"474 367 OFFCURVE",
"476 366 OFFCURVE",
"477 366 CURVE",
"480 363 OFFCURVE",
"492 352 OFFCURVE",
"492 347 CURVE SMOOTH",
"492 321 OFFCURVE",
"489 302 OFFCURVE",
"479 280 CURVE SMOOTH",
"459 238 OFFCURVE",
"376 222 OFFCURVE",
"321 219 CURVE",
"324 270 OFFCURVE",
"330 319 OFFCURVE",
"342 366 CURVE SMOOTH",
"358 430 OFFCURVE",
"372 502 OFFCURVE",
"393 561 CURVE",
"393 560 LINE",
"397 571 OFFCURVE",
"381 577 OFFCURVE",
"377 566 CURVE SMOOTH",
"356 507 OFFCURVE",
"322 441 OFFCURVE",
"305 376 CURVE SMOOTH",
"292 325 OFFCURVE",
"284 273 OFFCURVE",
"282 220 CURVE",
"245 223 OFFCURVE",
"212 233 OFFCURVE",
"167 233 CURVE SMOOTH",
"157 233 OFFCURVE",
"149 235 OFFCURVE",
"139 236 CURVE",
"160 260 OFFCURVE",
"179 284 OFFCURVE",
"195 300 CURVE SMOOTH",
"224 329 OFFCURVE",
"246 364 OFFCURVE",
"270 397 CURVE SMOOTH",
"294 430 OFFCURVE",
"313 466 OFFCURVE",
"337 498 CURVE SMOOTH",
"344 507 OFFCURVE",
"331 517 OFFCURVE",
"324 508 CURVE SMOOTH",
"300 476 OFFCURVE",
"273 445 OFFCURVE",
"249 412 CURVE SMOOTH",
"225 381 OFFCURVE",
"197 353 OFFCURVE",
"170 326 CURVE SMOOTH",
"149 305 OFFCURVE",
"112 261 OFFCURVE",
"77 230 CURVE",
"66 227 OFFCURVE",
"54 222 OFFCURVE",
"42 217 CURVE",
"28 207 LINE SMOOTH",
"-5 187 OFFCURVE",
"21 153 OFFCURVE",
"34 156 CURVE SMOOTH",
"46 159 OFFCURVE",
"58 165 OFFCURVE",
"70 173 CURVE",
"90 181 OFFCURVE",
"106 185 OFFCURVE",
"126 185 CURVE SMOOTH",
"142 185 OFFCURVE",
"153 181 OFFCURVE",
"167 181 CURVE SMOOTH",
"211 181 OFFCURVE",
"244 171 OFFCURVE",
"281 168 CURVE",
"283 109 OFFCURVE",
"304 -30 OFFCURVE",
"376 -29 CURVE SMOOTH",
"440 -29 OFFCURVE",
"456 90 OFFCURVE",
"425 105 CURVE SMOOTH",
"408 114 OFFCURVE",
"395 87 OFFCURVE",
"413 78 CURVE SMOOTH",
"430 69 OFFCURVE",
"427 11 OFFCURVE",
"376 11 CURVE SMOOTH",
"372 11 OFFCURVE",
"367 13 OFFCURVE",
"360 21 CURVE SMOOTH",
"333 53 OFFCURVE",
"322 122 OFFCURVE",
"321 167 CURVE",
"338 167 LINE",
"435 175 OFFCURVE",
"509 249 OFFCURVE",
"509 347 CURVE SMOOTH"
);
}
);
width = 499;
}
);
note = four;
unicode = 0034;
},
{
glyphname = five;
layers = (
{
hints = (
{
horizontal = 1;
place = "{-53, 52}";
type = Stem;
},
{
horizontal = 1;
place = "{103, 24}";
type = Stem;
},
{
horizontal = 1;
place = "{237, 17}";
type = Stem;
},
{
horizontal = 1;
place = "{381, 52}";
type = Stem;
},
{
horizontal = 1;
place = "{487, 24}";
type = Stem;
},
{
horizontal = 1;
place = "{540, 46}";
type = Stem;
},
{
place = "{22, 40}";
type = Stem;
},
{
place = "{224, 25}";
type = Stem;
},
{
place = "{318, 52}";
type = Stem;
}
);
layerId = "9537DB68-ED58-4774-880B-66DB18EF27AD";
paths = (
{
closed = 1;
nodes = (
"370 427 OFFCURVE",
"221 481 OFFCURVE",
"97 389 CURVE",
"103 428 OFFCURVE",
"109 469 OFFCURVE",
"117 505 CURVE SMOOTH",
"119 516 OFFCURVE",
"102 520 OFFCURVE",
"100 509 CURVE SMOOTH",
"89 457 OFFCURVE",
"61 397 OFFCURVE",
"49 348 CURVE SMOOTH",
"47 339 OFFCURVE",
"44 332 OFFCURVE",
"43 323 CURVE SMOOTH",
"41 311 OFFCURVE",
"74 301 OFFCURVE",
"79 311 CURVE SMOOTH",
"119 388 OFFCURVE",
"318 441 OFFCURVE",
"318 254 CURVE SMOOTH",
"318 166 OFFCURVE",
"276 97 OFFCURVE",
"210 47 CURVE SMOOTH",
"190 32 OFFCURVE",
"153 -1 OFFCURVE",
"126 -1 CURVE SMOOTH",
"102 -1 OFFCURVE",
"62 43 OFFCURVE",
"62 68 CURVE SMOOTH",
"62 90 OFFCURVE",
"69 129 OFFCURVE",
"79 145 CURVE SMOOTH",
"100 179 OFFCURVE",
"140 232 OFFCURVE",
"183 236 CURVE SMOOTH",
"201 238 OFFCURVE",
"225 240 OFFCURVE",
"224 215 CURVE SMOOTH",
"224 191 OFFCURVE",
"187 127 OFFCURVE",
"154 127 CURVE SMOOTH",
"149 127 OFFCURVE",
"147 131 OFFCURVE",
"147 136 CURVE",
"150 141 LINE",
"152 145 LINE SMOOTH",
"167 175 OFFCURVE",
"130 160 OFFCURVE",
"129 136 CURVE SMOOTH",
"129 119 OFFCURVE",
"134 103 OFFCURVE",
"154 103 CURVE SMOOTH",
"198 103 OFFCURVE",
"248 183 OFFCURVE",
"248 216 CURVE SMOOTH",
"249 226 OFFCURVE",
"243 245 OFFCURVE",
"232 253 CURVE SMOOTH",
"218 263 OFFCURVE",
"195 255 OFFCURVE",
"181 254 CURVE SMOOTH",
"132 249 OFFCURVE",
"79 198 OFFCURVE",
"56 158 CURVE SMOOTH",
"44 138 OFFCURVE",
"22 94 OFFCURVE",
"22 67 CURVE SMOOTH",
"22 42 OFFCURVE",
"28 10 OFFCURVE",
"47 -10 CURVE SMOOTH",
"64 -29 OFFCURVE",
"90 -53 OFFCURVE",
"127 -53 CURVE SMOOTH",
"172 -53 OFFCURVE",
"208 -19 OFFCURVE",
"241 6 CURVE SMOOTH",
"318 64 OFFCURVE",
"370 147 OFFCURVE",
"370 253 CURVE SMOOTH"
);
},
{
closed = 1;
nodes = (
"459 508 OFFCURVE",
"452 524 OFFCURVE",
"442 519 CURVE SMOOTH",
"427 512 OFFCURVE",
"407 511 OFFCURVE",
"385 511 CURVE SMOOTH",
"334 511 OFFCURVE",
"300 537 OFFCURVE",
"257 555 CURVE SMOOTH",
"208 576 OFFCURVE",
"175 586 OFFCURVE",
"123 586 CURVE SMOOTH",
"105 586 OFFCURVE",
"94 576 OFFCURVE",
"83 563 CURVE SMOOTH",
"68 545 OFFCURVE",
"95 521 OFFCURVE",
"111 539 CURVE SMOOTH",
"114 543 OFFCURVE",
"119 540 OFFCURVE",
"124 540 CURVE SMOOTH",
"134 540 OFFCURVE",
"141 536 OFFCURVE",
"151 534 CURVE SMOOTH",
"186 526 OFFCURVE",
"209 519 OFFCURVE",
"237 507 CURVE SMOOTH",
"284 487 OFFCURVE",
"329 487 OFFCURVE",
"384 487 CURVE SMOOTH",
"410 487 OFFCURVE",
"432 496 OFFCURVE",
"449 503 CURVE SMOOTH"
);
}
);
width = 394;
}
);
note = five;
unicode = 0035;
},
{
glyphname = six;
layers = (
{
hints = (
{
horizontal = 1;
place = "{-47, 52}";
type = Stem;
},
{
horizontal = 1;
place = "{51, 25}";
type = Stem;
},
{
horizontal = 1;
place = "{287, 32}";
type = Stem;
},
{
horizontal = 1;
place = "{553, 17}";
type = Stem;
},
{
place = "{28, 52}";
type = Stem;
},
{
place = "{181, 27}";
type = Stem;
},
{
place = "{394, 17}";
type = Stem;
}
);
layerId = "9537DB68-ED58-4774-880B-66DB18EF27AD";
paths = (
{
closed = 1;
nodes = (
"410 566 OFFCURVE",
"394 570 OFFCURVE",
"380 570 CURVE SMOOTH",
"294 570 OFFCURVE",
"236 528 OFFCURVE",
"186 470 CURVE SMOOTH",
"138 415 OFFCURVE",
"100 373 OFFCURVE",
"75 309 CURVE SMOOTH",
"53 254 OFFCURVE",
"26 204 OFFCURVE",
"27 144 CURVE SMOOTH",
"27 87 OFFCURVE",
"76 -47 OFFCURVE",
"164 -47 CURVE SMOOTH",
"281 -47 OFFCURVE",
"399 124 OFFCURVE",
"399 230 CURVE SMOOTH",
"399 255 OFFCURVE",
"360 319 OFFCURVE",
"333 319 CURVE SMOOTH",
"310 319 OFFCURVE",
"283 306 OFFCURVE",
"269 295 CURVE SMOOTH",
"214 252 OFFCURVE",
"180 184 OFFCURVE",
"180 111 CURVE SMOOTH",
"180 89 OFFCURVE",
"192 51 OFFCURVE",
"213 51 CURVE SMOOTH",
"252 51 OFFCURVE",
"298 136 OFFCURVE",
"271 172 CURVE SMOOTH",
"257 190 OFFCURVE",
"230 169 OFFCURVE",
"244 151 CURVE SMOOTH",
"252 141 OFFCURVE",
"259 132 OFFCURVE",
"255 116 CURVE SMOOTH",
"250 103 OFFCURVE",
"229 76 OFFCURVE",
"213 76 CURVE SMOOTH",
"202 76 OFFCURVE",
"207 100 OFFCURVE",
"207 112 CURVE SMOOTH",
"207 180 OFFCURVE",
"250 287 OFFCURVE",
"333 287 CURVE SMOOTH",
"348 287 OFFCURVE",
"353 244 OFFCURVE",
"353 230 CURVE SMOOTH",
"353 144 OFFCURVE",
"259 5 OFFCURVE",
"164 5 CURVE SMOOTH",
"126 5 OFFCURVE",
"80 87 OFFCURVE",
"80 143 CURVE SMOOTH",
"80 195 OFFCURVE",
"102 243 OFFCURVE",
"121 290 CURVE SMOOTH",
"144 350 OFFCURVE",
"166 398 OFFCURVE",
"210 449 CURVE SMOOTH",
"256 502 OFFCURVE",
"302 553 OFFCURVE",
"380 553 CURVE SMOOTH",
"391 553 OFFCURVE",
"393 551 OFFCURVE",
"393 543 CURVE SMOOTH",
"393 506 OFFCURVE",
"348 475 OFFCURVE",
"311 461 CURVE SMOOTH",
"300 457 OFFCURVE",
"306 441 OFFCURVE",
"317 445 CURVE SMOOTH",
"353 459 OFFCURVE",
"410 494 OFFCURVE",
"410 543 CURVE SMOOTH"
);
}
);
width = 427;
}
);
note = six;
unicode = 0036;
},
{
glyphname = seven;
layers = (
{
hints = (
{
horizontal = 1;
place = "{-121, 30}";
type = Stem;
},
{
horizontal = 1;
place = "{342, 17}";
type = Stem;
},
{
horizontal = 1;
place = "{487, 38}";
type = Stem;
},
{
place = "{13, 18}";
type = Stem;
},
{
place = "{116, 21}";
type = Stem;
},
{
place = "{147, 42}";
type = Stem;
}
);
layerId = "9537DB68-ED58-4774-880B-66DB18EF27AD";
paths = (
{
closed = 1;
nodes = (
"419 500 LINE",
"433 517 OFFCURVE",
"457 563 OFFCURVE",
"413 563 CURVE SMOOTH",
"396 563 OFFCURVE",
"391 556 OFFCURVE",
"378 548 CURVE SMOOTH",
"334 522 OFFCURVE",
"289 514 OFFCURVE",
"238 514 CURVE SMOOTH",
"203 514 OFFCURVE",
"171 525 OFFCURVE",
"136 525 CURVE SMOOTH",
"73 525 OFFCURVE",
"11 500 OFFCURVE",
"12 421 CURVE SMOOTH",
"12 398 OFFCURVE",
"46 342 OFFCURVE",
"77 342 CURVE SMOOTH",
"115 342 OFFCURVE",
"136 381 OFFCURVE",
"136 419 CURVE SMOOTH",
"136 439 OFFCURVE",
"133 440 OFFCURVE",
"116 452 CURVE",
"116 451 LINE",
"107 458 OFFCURVE",
"97 444 OFFCURVE",
"106 438 CURVE SMOOTH",
"116 431 OFFCURVE",
"115 430 OFFCURVE",
"115 420 CURVE SMOOTH",
"115 391 OFFCURVE",
"104 357 OFFCURVE",
"76 358 CURVE SMOOTH",
"53 358 OFFCURVE",
"30 403 OFFCURVE",
"30 421 CURVE SMOOTH",
"31 483 OFFCURVE",
"88 489 OFFCURVE",
"137 488 CURVE SMOOTH",
"171 488 OFFCURVE",
"202 466 OFFCURVE",
"238 466 CURVE SMOOTH",
"276 466 OFFCURVE",
"311 473 OFFCURVE",
"344 486 CURVE",
"269 377 OFFCURVE",
"199 220 OFFCURVE",
"163 108 CURVE SMOOTH",
"157 88 OFFCURVE",
"159 70 OFFCURVE",
"156 52 CURVE SMOOTH",
"151 25 OFFCURVE",
"146 -1 OFFCURVE",
"146 -29 CURVE SMOOTH",
"147 -67 OFFCURVE",
"167 -121 OFFCURVE",
"207 -121 CURVE SMOOTH",
"248 -121 OFFCURVE",
"274 -86 OFFCURVE",
"290 -54 CURVE",
"294 -43 OFFCURVE",
"279 -35 OFFCURVE",
"274 -45 CURVE SMOOTH",
"262 -70 OFFCURVE",
"238 -91 OFFCURVE",
"207 -91 CURVE SMOOTH",
"184 -91 OFFCURVE",
"189 -52 OFFCURVE",
"189 -30 CURVE SMOOTH",
"189 10 OFFCURVE",
"201 56 OFFCURVE",
"213 93 CURVE SMOOTH",
"266 263 OFFCURVE",
"320 349 OFFCURVE",
"419 499 CURVE"
);
}
);
width = 454;
}
);
note = seven;
unicode = 0037;
},
{
glyphname = eight;
layers = (
{
hints = (
{
horizontal = 1;
place = "{-5, 42}";
type = Stem;
},
{
horizontal = 1;
place = "{415, 17}";
type = Stem;
},
{
horizontal = 1;
place = "{483, 21}";
target = up;
type = BottomGhost;
},
{
horizontal = 1;
place = "{530, 24}";
type = Stem;
},
{
place = "{53, 42}";
type = Stem;
},
{
place = "{203, 18}";
type = Stem;
},
{
place = "{305, 21}";
type = Stem;
},
{
place = "{333, 42}";
type = Stem;
},
{
place = "{437, 14}";
type = Stem;
}
);
layerId = "9537DB68-ED58-4774-880B-66DB18EF27AD";
paths = (
{
closed = 1;
nodes = (
"451 542 OFFCURVE",
"440 567 OFFCURVE",
"420 567 CURVE SMOOTH",
"401 567 OFFCURVE",
"395 536 OFFCURVE",
"392 522 CURVE SMOOTH",
"390 512 OFFCURVE",
"406 509 OFFCURVE",
"408 520 CURVE",
"410 524 OFFCURVE",
"414 551 OFFCURVE",
"420 551 CURVE SMOOTH",
"432 551 OFFCURVE",
"437 535 OFFCURVE",
"437 523 CURVE SMOOTH",
"437 492 OFFCURVE",
"415 462 OFFCURVE",
"394 442 CURVE SMOOTH",
"357 406 OFFCURVE",
"316 377 OFFCURVE",
"278 344 CURVE SMOOTH",
"270 336 OFFCURVE",
"261 329 OFFCURVE",
"252 322 CURVE",
"220 335 OFFCURVE",
"187 345 OFFCURVE",
"157 364 CURVE SMOOTH",
"136 378 OFFCURVE",
"95 397 OFFCURVE",
"95 426 CURVE SMOOTH",
"95 431 OFFCURVE",
"96 435 OFFCURVE",
"99 443 CURVE SMOOTH",
"112 480 OFFCURVE",
"143 503 OFFCURVE",
"177 521 CURVE SMOOTH",
"196 531 OFFCURVE",
"218 531 OFFCURVE",
"239 531 CURVE SMOOTH",
"268 531 OFFCURVE",
"305 524 OFFCURVE",
"305 487 CURVE SMOOTH",
"305 456 OFFCURVE",
"271 433 OFFCURVE",
"241 433 CURVE SMOOTH",
"230 433 OFFCURVE",
"221 443 OFFCURVE",
"221 456 CURVE SMOOTH",
"221 474 OFFCURVE",
"239 492 OFFCURVE",
"254 481 CURVE",
"254 480 LINE",
"268 470 OFFCURVE",
"264 491 OFFCURVE",
"260 495 CURVE SMOOTH",
"233 523 OFFCURVE",
"201 483 OFFCURVE",
"202 456 CURVE SMOOTH",
"202 433 OFFCURVE",
"220 417 OFFCURVE",
"243 417 CURVE SMOOTH",
"281 417 OFFCURVE",
"326 447 OFFCURVE",
"326 488 CURVE SMOOTH",
"326 539 OFFCURVE",
"279 557 OFFCURVE",
"240 556 CURVE SMOOTH",
"226 556 OFFCURVE",
"213 556 OFFCURVE",
"201 555 CURVE SMOOTH",
"149 551 OFFCURVE",
"76 505 OFFCURVE",
"59 456 CURVE SMOOTH",
"56 448 OFFCURVE",
"53 439 OFFCURVE",
"53 427 CURVE SMOOTH",
"53 374 OFFCURVE",
"98 352 OFFCURVE",
"134 329 CURVE SMOOTH",
"161 312 OFFCURVE",
"189 302 OFFCURVE",
"217 291 CURVE",
"198 274 OFFCURVE",
"180 257 OFFCURVE",
"163 238 CURVE SMOOTH",
"147 221 OFFCURVE",
"129 212 OFFCURVE",
"110 193 CURVE SMOOTH",
"82 167 OFFCURVE",
"47 130 OFFCURVE",
"47 89 CURVE SMOOTH",
"47 31 OFFCURVE",
"137 -3 OFFCURVE",
"184 -3 CURVE SMOOTH",
"285 -4 OFFCURVE",
"375 69 OFFCURVE",
"375 177 CURVE SMOOTH",
"375 242 OFFCURVE",
"321 287 OFFCURVE",
"275 311 CURVE",
"293 326 LINE SMOOTH",
"331 360 OFFCURVE",
"367 396 OFFCURVE",
"404 432 CURVE SMOOTH",
"428 454 OFFCURVE",
"451 488 OFFCURVE",
"451 523 CURVE SMOOTH"
);
},
{
closed = 1;
nodes = (
"333 95 OFFCURVE",
"265 37 OFFCURVE",
"184 37 CURVE SMOOTH",
"162 37 OFFCURVE",
"89 59 OFFCURVE",
"89 88 CURVE SMOOTH",
"89 113 OFFCURVE",
"123 145 OFFCURVE",
"140 161 CURVE SMOOTH",
"160 180 OFFCURVE",
"170 198 OFFCURVE",
"187 217 CURVE SMOOTH",
"244 279 LINE",
"244 278 LINE",
"249 276 LINE SMOOTH",
"296 257 OFFCURVE",
"334 218 OFFCURVE",
"334 177 CURVE SMOOTH"
);
}
);
width = 430;
}
);
note = eight;
unicode = 0038;
},
{
glyphname = nine;
layers = (
{
hints = (
{
horizontal = 1;
place = "{-49, 32}";
type = Stem;
},
{
horizontal = 1;
place = "{63, 17}";
type = Stem;
},
{
horizontal = 1;
place = "{241, 49}";
type = Stem;
},
{
horizontal = 1;
place = "{477, 16}";
type = Stem;
},
{
horizontal = 1;
place = "{544, 38}";
type = Stem;
},
{
place = "{2, 24}";
type = Stem;
},
{
place = "{44, 48}";
type = Stem;
},
{
place = "{215, 27}";
type = Stem;
},
{
place = "{317, 27}";
type = Stem;
},
{
place = "{380, 36}";
type = Stem;
}
);
layerId = "9537DB68-ED58-4774-880B-66DB18EF27AD";
paths = (
{
closed = 1;
nodes = (
"416 484 OFFCURVE",
"365 582 OFFCURVE",
"269 582 CURVE SMOOTH",
"213 582 LINE SMOOTH",
"159 582 OFFCURVE",
"114 546 OFFCURVE",
"88 504 CURVE SMOOTH",
"68 472 OFFCURVE",
"44 450 OFFCURVE",
"44 409 CURVE SMOOTH",
"44 345 OFFCURVE",
"80 272 OFFCURVE",
"136 249 CURVE SMOOTH",
"153 242 OFFCURVE",
"161 241 OFFCURVE",
"186 241 CURVE SMOOTH",
"281 241 OFFCURVE",
"344 319 OFFCURVE",
"344 418 CURVE SMOOTH",
"343 526 OFFCURVE",
"213 502 OFFCURVE",
"214 443 CURVE SMOOTH",
"214 430 OFFCURVE",
"224 424 OFFCURVE",
"228 414 CURVE SMOOTH",
"232 404 OFFCURVE",
"248 410 OFFCURVE",
"244 421 CURVE SMOOTH",
"240 429 OFFCURVE",
"241 435 OFFCURVE",
"241 443 CURVE SMOOTH",
"242 482 OFFCURVE",
"318 502 OFFCURVE",
"317 418 CURVE SMOOTH",
"317 341 OFFCURVE",
"259 288 OFFCURVE",
"186 289 CURVE SMOOTH",
"129 289 OFFCURVE",
"92 358 OFFCURVE",
"92 409 CURVE SMOOTH",
"92 422 OFFCURVE",
"94 434 OFFCURVE",
"99 444 CURVE SMOOTH",
"122 489 OFFCURVE",
"154 544 OFFCURVE",
"213 544 CURVE SMOOTH",
"269 544 LINE SMOOTH",
"345 544 OFFCURVE",
"380 464 OFFCURVE",
"380 393 CURVE SMOOTH",
"380 346 OFFCURVE",
"379 312 OFFCURVE",
"366 274 CURVE SMOOTH",
"342 206 OFFCURVE",
"336 177 OFFCURVE",
"290 117 CURVE SMOOTH",
"248 62 OFFCURVE",
"179 -17 OFFCURVE",
"105 -17 CURVE SMOOTH",
"82 -17 OFFCURVE",
"64 -9 OFFCURVE",
"48 3 CURVE SMOOTH",
"39 9 OFFCURVE",
"26 14 OFFCURVE",
"26 23 CURVE SMOOTH",
"26 44 OFFCURVE",
"53 63 OFFCURVE",
"71 63 CURVE SMOOTH",
"78 63 OFFCURVE",
"84 58 OFFCURVE",
"86 51 CURVE SMOOTH",
"89 40 OFFCURVE",
"105 45 OFFCURVE",
"102 56 CURVE SMOOTH",
"98 69 OFFCURVE",
"86 80 OFFCURVE",
"71 80 CURVE SMOOTH",
"43 80 OFFCURVE",
"2 55 OFFCURVE",
"2 24 CURVE SMOOTH",
"2 -27 OFFCURVE",
"66 -49 OFFCURVE",
"106 -49 CURVE SMOOTH",
"188 -49 OFFCURVE",
"263 40 OFFCURVE",
"310 101 CURVE SMOOTH",
"330 128 OFFCURVE",
"348 157 OFFCURVE",
"361 187 CURVE SMOOTH",
"386 247 OFFCURVE",
"416 327 OFFCURVE",
"416 392 CURVE SMOOTH"
);
}
);
width = 444;
}
);
note = nine;
unicode = 0039;
},
{
glyphname = colon;
layers = (
{
hints = (
{
horizontal = 1;
place = "{67, 14}";
type = Stem;
},
{
horizontal = 1;
place = "{180, 18}";
type = Stem;
},
{
horizontal = 1;
place = "{209, 14}";
type = Stem;
},
{
horizontal = 1;
place = "{245, 14}";
type = Stem;
},
{
horizontal = 1;
place = "{279, 26}";
type = Stem;
},
{
place = "{94, 32}";
type = Stem;
},
{
place = "{135, 14}";
type = Stem;
},
{
place = "{189, 14}";
type = Stem;
}
);
layerId = "9537DB68-ED58-4774-880B-66DB18EF27AD";
paths = (
{
closed = 1;
nodes = (
"211 276 OFFCURVE",
"193 305 OFFCURVE",
"169 305 CURVE SMOOTH",
"134 305 OFFCURVE",
"102 268 OFFCURVE",
"102 234 CURVE SMOOTH",
"102 199 OFFCURVE",
"142 179 OFFCURVE",
"176 179 CURVE SMOOTH",
"182 179 OFFCURVE",
"186 183 OFFCURVE",
"192 185 CURVE SMOOTH",
"198 187 OFFCURVE",
"210 202 OFFCURVE",
"193 200 CURVE SMOOTH",
"188 199 OFFCURVE",
"182 197 OFFCURVE",
"176 197 CURVE SMOOTH",
"154 198 OFFCURVE",
"136 213 OFFCURVE",
"135 235 CURVE SMOOTH",
"135 255 OFFCURVE",
"148 279 OFFCURVE",
"169 279 CURVE SMOOTH",
"183 279 OFFCURVE",
"197 266 OFFCURVE",
"197 252 CURVE SMOOTH",
"198 237 OFFCURVE",
"185 223 OFFCURVE",
"172 223 CURVE SMOOTH",
"166 223 OFFCURVE",
"156 229 OFFCURVE",
"156 234 CURVE SMOOTH",
"157 240 OFFCURVE",
"161 245 OFFCURVE",
"169 245 CURVE SMOOTH",
"178 245 OFFCURVE",
"178 259 OFFCURVE",
"169 259 CURVE SMOOTH",
"154 259 OFFCURVE",
"144 248 OFFCURVE",
"144 234 CURVE SMOOTH",
"143 218 OFFCURVE",
"164 210 OFFCURVE",
"171 210 CURVE SMOOTH",
"193 210 OFFCURVE",
"212 231 OFFCURVE",
"212 253 CURVE SMOOTH"
);
},
{
closed = 1;
nodes = (
"203 98 OFFCURVE",
"185 127 OFFCURVE",
"161 127 CURVE SMOOTH",
"126 127 OFFCURVE",
"94 90 OFFCURVE",
"94 56 CURVE SMOOTH",
"94 22 OFFCURVE",
"134 2 OFFCURVE",
"168 2 CURVE",
"174 1 OFFCURVE",
"178 5 OFFCURVE",
"184 7 CURVE SMOOTH",
"190 9 OFFCURVE",
"202 24 OFFCURVE",
"185 22 CURVE SMOOTH",
"180 21 OFFCURVE",
"174 19 OFFCURVE",
"168 19 CURVE SMOOTH",
"146 20 OFFCURVE",
"127 35 OFFCURVE",
"127 57 CURVE SMOOTH",
"127 77 OFFCURVE",
"141 101 OFFCURVE",
"162 101 CURVE SMOOTH",
"176 101 OFFCURVE",
"190 88 OFFCURVE",
"190 74 CURVE SMOOTH",
"190 60 OFFCURVE",
"177 46 OFFCURVE",
"164 46 CURVE SMOOTH",
"159 46 OFFCURVE",
"149 52 OFFCURVE",
"149 57 CURVE SMOOTH",
"149 62 OFFCURVE",
"153 67 OFFCURVE",
"161 67 CURVE SMOOTH",
"170 67 OFFCURVE",
"170 81 OFFCURVE",
"161 81 CURVE SMOOTH",
"146 81 OFFCURVE",
"136 70 OFFCURVE",
"136 56 CURVE SMOOTH",
"135 40 OFFCURVE",
"156 32 OFFCURVE",
"163 32 CURVE SMOOTH",
"185 32 OFFCURVE",
"204 53 OFFCURVE",
"204 75 CURVE SMOOTH"
);
}
);
width = 226;
}
);
note = colon;
unicode = 003A;
},
{
glyphname = semicolon;
layers = (
{
hints = (
{
horizontal = 1;
place = "{106, -20}";
target = down;
type = TopGhost;
},
{
horizontal = 1;
place = "{180, 18}";
type = Stem;
},
{
horizontal = 1;
place = "{209, 14}";
type = Stem;
},
{
horizontal = 1;
place = "{245, 14}";
type = Stem;
},
{
horizontal = 1;
place = "{279, 26}";
type = Stem;
},
{
place = "{67, 27}";
type = Stem;
},
{
place = "{102, 32}";
type = Stem;
},
{
place = "{138, 14}";
type = Stem;
},
{
place = "{197, 14}";
type = Stem;
}
);
layerId = "9537DB68-ED58-4774-880B-66DB18EF27AD";
paths = (
{
closed = 1;
nodes = (
"211 276 OFFCURVE",
"193 305 OFFCURVE",
"169 305 CURVE SMOOTH",
"134 305 OFFCURVE",
"102 268 OFFCURVE",
"102 234 CURVE SMOOTH",
"102 199 OFFCURVE",
"142 179 OFFCURVE",
"176 179 CURVE SMOOTH",
"182 179 OFFCURVE",
"186 183 OFFCURVE",
"192 185 CURVE SMOOTH",
"198 187 OFFCURVE",
"210 202 OFFCURVE",
"193 200 CURVE SMOOTH",
"188 199 OFFCURVE",
"182 197 OFFCURVE",
"176 197 CURVE SMOOTH",
"154 198 OFFCURVE",
"136 213 OFFCURVE",
"135 235 CURVE SMOOTH",
"135 255 OFFCURVE",
"148 279 OFFCURVE",
"169 279 CURVE SMOOTH",
"183 279 OFFCURVE",
"197 266 OFFCURVE",
"197 252 CURVE SMOOTH",
"198 237 OFFCURVE",
"185 223 OFFCURVE",
"172 223 CURVE SMOOTH",
"166 223 OFFCURVE",
"156 229 OFFCURVE",
"156 234 CURVE SMOOTH",
"157 240 OFFCURVE",
"161 245 OFFCURVE",
"169 245 CURVE SMOOTH",
"178 245 OFFCURVE",
"178 259 OFFCURVE",
"169 259 CURVE SMOOTH",
"154 259 OFFCURVE",
"144 248 OFFCURVE",
"144 234 CURVE SMOOTH",
"143 218 OFFCURVE",
"164 210 OFFCURVE",
"171 210 CURVE SMOOTH",
"193 210 OFFCURVE",
"212 231 OFFCURVE",
"212 253 CURVE SMOOTH"
);
},
{
closed = 1;
nodes = (
"204 41 OFFCURVE",
"195 68 OFFCURVE",
"182 86 CURVE SMOOTH",
"177 94 OFFCURVE",
"148 106 OFFCURVE",
"136 106 CURVE SMOOTH",
"98 106 OFFCURVE",
"69 67 OFFCURVE",
"68 31 CURVE SMOOTH",
"68 10 OFFCURVE",
"79 -12 OFFCURVE",
"110 -12 CURVE SMOOTH",
"118 -12 OFFCURVE",
"122 -10 OFFCURVE",
"126 -8 CURVE SMOOTH",
"142 1 OFFCURVE",
"152 14 OFFCURVE",
"152 34 CURVE SMOOTH",
"152 46 OFFCURVE",
"141 54 OFFCURVE",
"131 54 CURVE",
"131 54 OFFCURVE",
"129 54 OFFCURVE",
"127 53 CURVE SMOOTH",
"123 52 LINE",
"118 50 LINE SMOOTH",
"109 48 OFFCURVE",
"113 35 OFFCURVE",
"122 38 CURVE SMOOTH",
"127 39 LINE",
"131 40 LINE SMOOTH",
"135 40 OFFCURVE",
"138 37 OFFCURVE",
"138 35 CURVE SMOOTH",
"139 23 OFFCURVE",
"133 19 OFFCURVE",
"126 14 CURVE SMOOTH",
"120 10 OFFCURVE",
"117 9 OFFCURVE",
"110 11 CURVE SMOOTH",
"103 13 OFFCURVE",
"95 15 OFFCURVE",
"95 34 CURVE SMOOTH",
"94 60 OFFCURVE",
"107 86 OFFCURVE",
"135 86 CURVE SMOOTH",
"142 86 OFFCURVE",
"159 76 OFFCURVE",
"162 72 CURVE SMOOTH",
"173 59 OFFCURVE",
"168 39 OFFCURVE",
"168 21 CURVE SMOOTH",
"168 -25 OFFCURVE",
"106 -111 OFFCURVE",
"68 -128 CURVE SMOOTH",
"59 -131 OFFCURVE",
"65 -143 OFFCURVE",
"73 -139 CURVE SMOOTH",
"116 -121 OFFCURVE",
"205 -32 OFFCURVE",
"204 18 CURVE SMOOTH"
);
}
);
width = 226;
}
);
note = semicolon;
unicode = 003B;
},
{
glyphname = less;
layers = (
{
hints = (
{
horizontal = 1;
place = "{514, 17}";
type = Stem;
},
{
place = "{47, 238}";
type = Stem;
}
);
layerId = "9537DB68-ED58-4774-880B-66DB18EF27AD";
paths = (
{
closed = 1;
nodes = (
"286 60 OFFCURVE",
"286 67 OFFCURVE",
"280 72 CURVE SMOOTH",
"275 76 LINE",
"264 93 OFFCURVE",
"253 106 OFFCURVE",
"241 118 CURVE SMOOTH",
"210 151 LINE",
"197 172 LINE SMOOTH",
"180 204 OFFCURVE",
"142 222 OFFCURVE",
"125 253 CURVE",
"125 254 OFFCURVE",
"126 255 OFFCURVE",
"127 257 CURVE",
"133 264 LINE SMOOTH",
"144 278 OFFCURVE",
"152 314 OFFCURVE",
"163 345 CURVE",
"184 374 OFFCURVE",
"203 406 OFFCURVE",
"222 437 CURVE",
"235 453 OFFCURVE",
"247 469 OFFCURVE",
"255 488 CURVE SMOOTH",
"260 497 LINE",
"265 503 OFFCURVE",
"264 510 OFFCURVE",
"260 514 CURVE",
"262 529 OFFCURVE",
"241 539 OFFCURVE",
"232 524 CURVE SMOOTH",
"222 508 OFFCURVE",
"212 496 OFFCURVE",
"201 484 CURVE SMOOTH",
"146 423 OFFCURVE",
"113 324 OFFCURVE",
"53 277 CURVE SMOOTH",
"47 272 OFFCURVE",
"45 262 OFFCURVE",
"50 256 CURVE SMOOTH",
"94 198 OFFCURVE",
"184 124 OFFCURVE",
"240 68 CURVE SMOOTH",
"257 49 LINE",
"268 39 OFFCURVE",
"281 44 OFFCURVE",
"283 54 CURVE"
);
}
);
width = 334;
}
);
note = less;
unicode = 003C;
},
{
glyphname = equal;
layers = (
{
hints = (
{
horizontal = 1;
place = "{171, 52}";
type = Stem;
},
{
horizontal = 1;
place = "{296, 56}";
type = Stem;
}
);
layerId = "9537DB68-ED58-4774-880B-66DB18EF27AD";
paths = (
{
closed = 1;
nodes = (
"431 344 OFFCURVE",
"425 352 OFFCURVE",
"413 352 CURVE SMOOTH",
"130 352 LINE SMOOTH",
"114 352 OFFCURVE",
"111 333 OFFCURVE",
"120 325 CURVE",
"114 318 OFFCURVE",
"114 310 OFFCURVE",
"129 305 CURVE SMOOTH",
"189 283 OFFCURVE",
"344 307 OFFCURVE",
"427 307 CURVE SMOOTH",
"446 307 OFFCURVE",
"447 334 OFFCURVE",
"430 337 CURVE"
);
},
{
closed = 1;
nodes = (
"427 229 OFFCURVE",
"300 217 OFFCURVE",
"271 219 CURVE SMOOTH",
"240 221 OFFCURVE",
"171 212 OFFCURVE",
"147 222 CURVE SMOOTH",
"134 227 OFFCURVE",
"125 216 OFFCURVE",
"126 206 CURVE",
"122 203 OFFCURVE",
"121 199 OFFCURVE",
"121 194 CURVE",
"116 185 OFFCURVE",
"120 171 OFFCURVE",
"134 171 CURVE SMOOTH",
"141 171 LINE",
"151 165 OFFCURVE",
"166 161 OFFCURVE",
"185 161 CURVE SMOOTH",
"260 161 OFFCURVE",
"350 168 OFFCURVE",
"427 168 CURVE SMOOTH",
"439 168 OFFCURVE",
"445 177 OFFCURVE",
"441 188 CURVE SMOOTH"
);
}
);
width = 488;
}
);
note = equal;
unicode = 003D;
},
{
glyphname = greater;
layers = (
{
hints = (
{
horizontal = 1;
place = "{514, 17}";
type = Stem;
},
{
place = "{26, 238}";
type = Stem;
}
);
layerId = "9537DB68-ED58-4774-880B-66DB18EF27AD";
paths = (
{
closed = 1;
nodes = (
"266 262 OFFCURVE",
"265 272 OFFCURVE",
"259 277 CURVE SMOOTH",
"199 324 OFFCURVE",
"165 423 OFFCURVE",
"110 484 CURVE SMOOTH",
"99 496 OFFCURVE",
"89 508 OFFCURVE",
"79 524 CURVE SMOOTH",
"70 539 OFFCURVE",
"49 529 OFFCURVE",
"51 514 CURVE",
"48 510 OFFCURVE",
"47 503 OFFCURVE",
"51 497 CURVE SMOOTH",
"57 488 LINE",
"65 469 OFFCURVE",
"77 453 OFFCURVE",
"89 437 CURVE",
"108 406 OFFCURVE",
"128 374 OFFCURVE",
"148 345 CURVE",
"159 314 OFFCURVE",
"168 278 OFFCURVE",
"179 264 CURVE SMOOTH",
"184 257 LINE",
"187 253 LINE",
"169 222 OFFCURVE",
"132 204 OFFCURVE",
"114 172 CURVE SMOOTH",
"110 165 OFFCURVE",
"106 158 OFFCURVE",
"101 151 CURVE",
"70 118 LINE SMOOTH",
"58 106 OFFCURVE",
"47 93 OFFCURVE",
"36 76 CURVE",
"31 72 LINE SMOOTH",
"25 67 OFFCURVE",
"25 60 OFFCURVE",
"28 54 CURVE",
"31 44 OFFCURVE",
"44 39 OFFCURVE",
"54 49 CURVE SMOOTH",
"72 68 LINE SMOOTH",
"127 124 OFFCURVE",
"217 198 OFFCURVE",
"261 256 CURVE SMOOTH"
);
}
);
width = 334;
}
);
note = greater;
unicode = 003E;
},
{
glyphname = question;
layers = (
{
hints = (
{
horizontal = 1;
place = "{4, 40}";
type = Stem;
},
{
horizontal = 1;
place = "{116, 28}";
type = Stem;
},
{
horizontal = 1;
place = "{198, 21}";
type = Stem;
},
{
horizontal = 1;
place = "{368, 28}";
type = Stem;
},
{
horizontal = 1;
place = "{512, 24}";
type = Stem;
},
{
horizontal = 1;
place = "{619, 51}";
type = Stem;
},
{
place = "{77, 30}";
type = Stem;
},
{
place = "{155, 26}";
type = Stem;
},
{
place = "{194, 28}";
type = Stem;
},
{
place = "{226, 21}";
type = Stem;
},
{
place = "{262, 17}";
type = Stem;
},
{
place = "{378, 52}";
type = Stem;
}
);
layerId = "9537DB68-ED58-4774-880B-66DB18EF27AD";
paths = (
{
closed = 1;
nodes = (
"430 608 OFFCURVE",
"375 671 OFFCURVE",
"264 670 CURVE SMOOTH",
"249 670 OFFCURVE",
"245 666 OFFCURVE",
"227 665 CURVE SMOOTH",
"136 658 OFFCURVE",
"77 581 OFFCURVE",
"77 488 CURVE SMOOTH",
"77 438 OFFCURVE",
"103 368 OFFCURVE",
"163 368 CURVE SMOOTH",
"207 368 OFFCURVE",
"245 412 OFFCURVE",
"246 461 CURVE SMOOTH",
"246 481 OFFCURVE",
"243 499 OFFCURVE",
"233 514 CURVE SMOOTH",
"225 525 OFFCURVE",
"215 536 OFFCURVE",
"204 536 CURVE SMOOTH",
"175 536 OFFCURVE",
"155 503 OFFCURVE",
"155 482 CURVE SMOOTH",
"155 462 OFFCURVE",
"171 462 OFFCURVE",
"179 453 CURVE",
"179 454 LINE",
"187 444 OFFCURVE",
"201 457 OFFCURVE",
"193 467 CURVE SMOOTH",
"190 470 OFFCURVE",
"181 477 OFFCURVE",
"181 482 CURVE SMOOTH",
"181 493 OFFCURVE",
"189 512 OFFCURVE",
"204 512 CURVE SMOOTH",
"220 512 OFFCURVE",
"225 471 OFFCURVE",
"225 461 CURVE SMOOTH",
"226 426 OFFCURVE",
"195 396 OFFCURVE",
"163 396 CURVE SMOOTH",
"147 396 OFFCURVE",
"138 408 OFFCURVE",
"131 418 CURVE SMOOTH",
"115 440 OFFCURVE",
"107 458 OFFCURVE",
"107 487 CURVE SMOOTH",
"107 579 OFFCURVE",
"187 619 OFFCURVE",
"264 619 CURVE SMOOTH",
"341 619 OFFCURVE",
"378 576 OFFCURVE",
"378 506 CURVE SMOOTH",
"378 494 OFFCURVE",
"375 480 OFFCURVE",
"370 468 CURVE SMOOTH",
"356 436 OFFCURVE",
"348 406 OFFCURVE",
"313 389 CURVE SMOOTH",
"261 364 OFFCURVE",
"194 334 OFFCURVE",
"194 264 CURVE SMOOTH",
"194 223 OFFCURVE",
"225 196 OFFCURVE",
"263 197 CURVE SMOOTH",
"291 197 OFFCURVE",
"304 217 OFFCURVE",
"306 239 CURVE SMOOTH",
"308 253 OFFCURVE",
"285 256 OFFCURVE",
"283 241 CURVE SMOOTH",
"282 230 OFFCURVE",
"278 219 OFFCURVE",
"264 219 CURVE SMOOTH",
"230 218 OFFCURVE",
"222 229 OFFCURVE",
"222 263 CURVE SMOOTH",
"222 294 OFFCURVE",
"244 317 OFFCURVE",
"268 332 CURVE SMOOTH",
"309 356 OFFCURVE",
"363 352 OFFCURVE",
"391 408 CURVE SMOOTH",
"407 439 OFFCURVE",
"430 470 OFFCURVE",
"430 506 CURVE SMOOTH"
);
},
{
closed = 1;
nodes = (
"310 27 OFFCURVE",
"282 55 OFFCURVE",
"262 43 CURVE SMOOTH",
"257 40 OFFCURVE",
"258 43 OFFCURVE",
"256 43 CURVE SMOOTH",
"235 43 OFFCURVE",
"219 43 OFFCURVE",
"208 60 CURVE SMOOTH",
"204 67 OFFCURVE",
"202 72 OFFCURVE",
"202 80 CURVE SMOOTH",
"202 99 OFFCURVE",
"223 115 OFFCURVE",
"242 115 CURVE SMOOTH",
"252 115 OFFCURVE",
"262 111 OFFCURVE",
"262 98 CURVE",
"261 95 OFFCURVE",
"261 85 OFFCURVE",
"257 84 CURVE",
"252 89 LINE",
"248 96 OFFCURVE",
"235 95 OFFCURVE",
"235 85 CURVE",
"236 79 OFFCURVE",
"250 66 OFFCURVE",
"256 66 CURVE SMOOTH",
"274 67 OFFCURVE",
"279 83 OFFCURVE",
"279 98 CURVE SMOOTH",
"278 127 OFFCURVE",
"264 143 OFFCURVE",
"242 143 CURVE SMOOTH",
"205 143 OFFCURVE",
"162 117 OFFCURVE",
"162 79 CURVE SMOOTH",
"162 20 OFFCURVE",
"200 3 OFFCURVE",
"255 3 CURVE SMOOTH",
"273 3 OFFCURVE",
"276 14 OFFCURVE",
"281 16 CURVE SMOOTH"
);
}
);
width = 432;
}
);
note = question;
unicode = 003F;
},
{
glyphname = at;
layers = (
{
hints = (
{
horizontal = 1;
place = "{67, 26}";
type = Stem;
},
{
horizontal = 1;
place = "{183, 34}";
type = Stem;
},
{
horizontal = 1;
place = "{373, 39}";
type = Stem;
},
{
horizontal = 1;
place = "{492, 36}";
type = Stem;
},
{
place = "{-1, 42}";
type = Stem;
},
{
place = "{125, 34}";
type = Stem;
},
{
place = "{255, 25}";
type = Stem;
},
{
place = "{383, 34}";
type = Stem;
},
{
place = "{464, 42}";
type = Stem;
}
);
layerId = "9537DB68-ED58-4774-880B-66DB18EF27AD";
paths = (
{
closed = 1;
nodes = (
"473 435 OFFCURVE",
"432 403 OFFCURVE",
"453 376 CURVE SMOOTH",
"481 340 OFFCURVE",
"444 244 OFFCURVE",
"420 213 CURVE SMOOTH",
"391 176 OFFCURVE",
"337 125 OFFCURVE",
"294 106 CURVE SMOOTH",
"275 97 OFFCURVE",
"233 93 OFFCURVE",
"210 93 CURVE SMOOTH",
"191 93 OFFCURVE",
"175 94 OFFCURVE",
"156 96 CURVE SMOOTH",
"79 105 OFFCURVE",
"41 200 OFFCURVE",
"41 267 CURVE SMOOTH",
"41 369 OFFCURVE",
"120 492 OFFCURVE",
"228 492 CURVE SMOOTH",
"295 492 OFFCURVE",
"360 443 OFFCURVE",
"375 382 CURVE SMOOTH",
"378 369 OFFCURVE",
"383 356 OFFCURVE",
"383 339 CURVE SMOOTH",
"383 317 OFFCURVE",
"384 305 OFFCURVE",
"379 285 CURVE SMOOTH",
"372 255 OFFCURVE",
"331 233 OFFCURVE",
"301 233 CURVE SMOOTH",
"286 233 OFFCURVE",
"278 252 OFFCURVE",
"278 266 CURVE",
"279 270 OFFCURVE",
"277 273 OFFCURVE",
"278 276 CURVE",
"280 291 OFFCURVE",
"279 308 OFFCURVE",
"279 322 CURVE",
"280 326 OFFCURVE",
"278 329 OFFCURVE",
"275 331 CURVE",
"274 331 LINE",
"283 346 OFFCURVE",
"296 359 OFFCURVE",
"291 375 CURVE SMOOTH",
"285 397 OFFCURVE",
"266 412 OFFCURVE",
"242 412 CURVE SMOOTH",
"215 411 OFFCURVE",
"201 392 OFFCURVE",
"183 378 CURVE SMOOTH",
"159 359 OFFCURVE",
"145 349 OFFCURVE",
"136 322 CURVE SMOOTH",
"127 296 OFFCURVE",
"125 278 OFFCURVE",
"125 251 CURVE SMOOTH",
"125 226 OFFCURVE",
"135 183 OFFCURVE",
"177 183 CURVE SMOOTH",
"199 183 OFFCURVE",
"228 210 OFFCURVE",
"245 233 CURVE",
"257 212 OFFCURVE",
"277 195 OFFCURVE",
"301 195 CURVE SMOOTH",
"345 195 OFFCURVE",
"398 235 OFFCURVE",
"409 279 CURVE SMOOTH",
"414 301 OFFCURVE",
"417 315 OFFCURVE",
"417 338 CURVE SMOOTH",
"417 359 OFFCURVE",
"417 376 OFFCURVE",
"413 391 CURVE SMOOTH",
"394 467 OFFCURVE",
"312 528 OFFCURVE",
"227 528 CURVE SMOOTH",
"100 528 OFFCURVE",
"-1 387 OFFCURVE",
"-1 268 CURVE SMOOTH",
"-1 238 OFFCURVE",
"-2 215 OFFCURVE",
"8 186 CURVE SMOOTH",
"31 122 OFFCURVE",
"84 77 OFFCURVE",
"152 69 CURVE SMOOTH",
"173 66 OFFCURVE",
"190 67 OFFCURVE",
"212 67 CURVE SMOOTH",
"290 67 OFFCURVE",
"395 140 OFFCURVE",
"440 198 CURVE SMOOTH",
"472 239 OFFCURVE",
"531 361 OFFCURVE",
"495 407 CURVE SMOOTH"
);
},
{
closed = 1;
nodes = (
"248 309 OFFCURVE",
"228 277 OFFCURVE",
"224 268 CURVE SMOOTH",
"216 253 OFFCURVE",
"197 217 OFFCURVE",
"178 217 CURVE SMOOTH",
"170 217 OFFCURVE",
"160 226 OFFCURVE",
"160 252 CURVE SMOOTH",
"160 275 OFFCURVE",
"162 289 OFFCURVE",
"169 310 CURVE SMOOTH",
"180 341 OFFCURVE",
"209 372 OFFCURVE",
"244 372 CURVE",
"246 373 OFFCURVE",
"252 346 OFFCURVE",
"249 341 CURVE",
"249 340 LINE",
"245 332 OFFCURVE",
"249 325 OFFCURVE",
"255 322 CURVE"
);
}
);
width = 530;
}
);
note = at;
unicode = 0040;
},
{
glyphname = A;
layers = (
{
hints = (
{
horizontal = 1;
place = "{-21, 23}";
type = Stem;
},
{
horizontal = 1;
place = "{223, 19}";
type = Stem;
},
{
horizontal = 1;
place = "{277, 52}";
type = Stem;
},
{
place = "{16, 43}";
type = Stem;
},
{
place = "{151, 17}";
type = Stem;
},
{
place = "{475, 17}";
type = Stem;
},
{
place = "{645, 18}";
type = Stem;
}
);
layerId = "9537DB68-ED58-4774-880B-66DB18EF27AD";
paths = (
{
closed = 1;
nodes = (
"386 616 OFFCURVE",
"380 630 OFFCURVE",
"366 630 CURVE SMOOTH",
"352 630 OFFCURVE",
"336 616 OFFCURVE",
"336 602 CURVE SMOOTH",
"336 588 OFFCURVE",
"347 576 OFFCURVE",
"361 576 CURVE SMOOTH",
"375 576 OFFCURVE",
"386 588 OFFCURVE",
"386 602 CURVE SMOOTH"
);
},
{
closed = 1;
nodes = (
"323 527 OFFCURVE",
"308 536 OFFCURVE",
"296 536 CURVE SMOOTH",
"285 536 OFFCURVE",
"276 527 OFFCURVE",
"276 516 CURVE SMOOTH",
"276 505 OFFCURVE",
"285 489 OFFCURVE",
"296 489 CURVE SMOOTH",
"307 489 OFFCURVE",
"323 505 OFFCURVE",
"323 516 CURVE SMOOTH"
);
},
{
closed = 1;
nodes = (
"656 173 OFFCURVE",
"633 162 OFFCURVE",
"643 133 CURVE SMOOTH",
"659 85 OFFCURVE",
"597 46 OFFCURVE",
"569 46 CURVE",
"563 47 OFFCURVE",
"547 59 OFFCURVE",
"543 64 CURVE SMOOTH",
"512 99 OFFCURVE",
"514 221 OFFCURVE",
"508 268 CURVE SMOOTH",
"506 277 LINE",
"511 278 OFFCURVE",
"516 278 OFFCURVE",
"521 278 CURVE SMOOTH",
"534 278 OFFCURVE",
"628 216 OFFCURVE",
"598 289 CURVE SMOOTH",
"587 316 OFFCURVE",
"545 329 OFFCURVE",
"521 329 CURVE",
"516 330 OFFCURVE",
"510 330 OFFCURVE",
"504 329 CURVE",
"502 341 OFFCURVE",
"502 354 OFFCURVE",
"502 368 CURVE SMOOTH",
"502 427 OFFCURVE",
"497 495 OFFCURVE",
"492 553 CURVE SMOOTH",
"491 565 OFFCURVE",
"474 564 OFFCURVE",
"475 553 CURVE SMOOTH",
"480 494 OFFCURVE",
"451 427 OFFCURVE",
"451 368 CURVE SMOOTH",
"451 349 OFFCURVE",
"451 333 OFFCURVE",
"452 318 CURVE",
"394 298 OFFCURVE",
"338 258 OFFCURVE",
"301 216 CURVE SMOOTH",
"293 207 OFFCURVE",
"305 196 OFFCURVE",
"313 205 CURVE SMOOTH",
"345 242 OFFCURVE",
"401 262 OFFCURVE",
"455 271 CURVE",
"457 261 LINE SMOOTH",
"469 199 OFFCURVE",
"467 84 OFFCURVE",
"510 35 CURVE SMOOTH",
"519 24 OFFCURVE",
"555 0 OFFCURVE",
"569 0 CURVE SMOOTH",
"637 1 OFFCURVE",
"671 114 OFFCURVE",
"663 144 CURVE SMOOTH"
);
},
{
closed = 1;
nodes = (
"273 444 OFFCURVE",
"260 460 OFFCURVE",
"248 460 CURVE SMOOTH",
"236 460 OFFCURVE",
"230 444 OFFCURVE",
"230 432 CURVE SMOOTH",
"230 420 OFFCURVE",
"240 410 OFFCURVE",
"252 410 CURVE SMOOTH",
"263 410 OFFCURVE",
"273 420 OFFCURVE",
"273 432 CURVE SMOOTH"
);
},
{
closed = 1;
nodes = (
"250 351 OFFCURVE",
"241 361 OFFCURVE",
"230 361 CURVE SMOOTH",
"220 361 OFFCURVE",
"204 348 OFFCURVE",
"204 335 CURVE SMOOTH",
"204 322 OFFCURVE",
"220 315 OFFCURVE",
"231 315 CURVE SMOOTH",
"241 315 OFFCURVE",
"250 325 OFFCURVE",
"250 338 CURVE SMOOTH"
);
},
{
closed = 1;
nodes = (
"487 568 OFFCURVE",
"470 601 OFFCURVE",
"448 590 CURVE SMOOTH",
"369 550 OFFCURVE",
"348 524 OFFCURVE",
"307 443 CURVE SMOOTH",
"285 401 OFFCURVE",
"280 360 OFFCURVE",
"267 316 CURVE SMOOTH",
"255 275 OFFCURVE",
"261 231 OFFCURVE",
"247 189 CURVE SMOOTH",
"237 161 OFFCURVE",
"223 128 OFFCURVE",
"214 95 CURVE SMOOTH",
"205 65 OFFCURVE",
"189 41 OFFCURVE",
"168 24 CURVE SMOOTH",
"162 20 OFFCURVE",
"145 2 OFFCURVE",
"133 2 CURVE SMOOTH",
"128 2 OFFCURVE",
"124 2 OFFCURVE",
"120 3 CURVE SMOOTH",
"98 12 OFFCURVE",
"101 11 OFFCURVE",
"82 28 CURVE SMOOTH",
"58 50 OFFCURVE",
"60 85 OFFCURVE",
"60 117 CURVE SMOOTH",
"59 160 OFFCURVE",
"58 180 OFFCURVE",
"76 208 CURVE SMOOTH",
"85 222 OFFCURVE",
"102 223 OFFCURVE",
"118 223 CURVE SMOOTH",
"135 223 OFFCURVE",
"151 202 OFFCURVE",
"151 185 CURVE SMOOTH",
"151 163 OFFCURVE",
"142 144 OFFCURVE",
"125 136 CURVE",
"125 135 LINE",
"115 130 OFFCURVE",
"122 115 OFFCURVE",
"132 120 CURVE SMOOTH",
"158 132 OFFCURVE",
"170 159 OFFCURVE",
"169 186 CURVE SMOOTH",
"169 211 OFFCURVE",
"144 242 OFFCURVE",
"118 242 CURVE SMOOTH",
"94 242 OFFCURVE",
"70 241 OFFCURVE",
"57 220 CURVE SMOOTH",
"36 186 OFFCURVE",
"16 168 OFFCURVE",
"16 117 CURVE SMOOTH",
"16 75 OFFCURVE",
"30 34 OFFCURVE",
"62 5 CURVE SMOOTH",
"75 -6 OFFCURVE",
"85 -5 OFFCURVE",
"99 -10 CURVE SMOOTH",
"111 -14 OFFCURVE",
"120 -21 OFFCURVE",
"134 -21 CURVE SMOOTH",
"152 -21 OFFCURVE",
"188 -20 OFFCURVE",
"198 -12 CURVE SMOOTH",
"225 10 OFFCURVE",
"234 48 OFFCURVE",
"245 85 CURVE SMOOTH",
"255 118 OFFCURVE",
"255 155 OFFCURVE",
"264 184 CURVE SMOOTH",
"275 218 OFFCURVE",
"289 239 OFFCURVE",
"293 274 CURVE SMOOTH",
"295 286 OFFCURVE",
"299 296 OFFCURVE",
"302 306 CURVE SMOOTH",
"325 386 OFFCURVE",
"347 445 OFFCURVE",
"406 506 CURVE SMOOTH",
"426 527 OFFCURVE",
"445 547 OFFCURVE",
"465 557 CURVE SMOOTH"
);
},
{
closed = 1;
nodes = (
"232 267 OFFCURVE",
"223 273 OFFCURVE",
"211 273 CURVE SMOOTH",
"200 273 OFFCURVE",
"191 267 OFFCURVE",
"191 259 CURVE SMOOTH",
"191 251 OFFCURVE",
"200 237 OFFCURVE",
"211 237 CURVE SMOOTH",
"222 237 OFFCURVE",
"232 251 OFFCURVE",
"232 259 CURVE SMOOTH"
);
}
);
width = 660;
}
);
note = A;
unicode = 0041;
},
{
glyphname = B;
layers = (
{
hints = (
{
horizontal = 1;
place = "{37, 35}";
type = Stem;
},
{
horizontal = 1;
place = "{182, 25}";
type = Stem;
},
{
horizontal = 1;
place = "{270, 32}";
type = Stem;
},
{
horizontal = 1;
place = "{497, 45}";
type = Stem;
},
{
horizontal = 1;
place = "{592, 83}";
type = Stem;
},
{
place = "{158, 15}";
type = Stem;
},
{
place = "{202, 22}";
type = Stem;
},
{
place = "{287, 16}";
type = Stem;
},
{
place = "{350, 44}";
type = Stem;
}
);
layerId = "9537DB68-ED58-4774-880B-66DB18EF27AD";
paths = (
{
closed = 1;
nodes = (
"406 669 OFFCURVE",
"384 681 OFFCURVE",
"376 666 CURVE SMOOTH",
"361 638 OFFCURVE",
"353 623 OFFCURVE",
"336 596 CURVE SMOOTH",
"328 582 OFFCURVE",
"347 570 OFFCURVE",
"356 584 CURVE SMOOTH",
"373 611 OFFCURVE",
"383 626 OFFCURVE",
"398 654 CURVE SMOOTH"
);
},
{
closed = 1;
nodes = (
"471 563 OFFCURVE",
"461 576 OFFCURVE",
"453 570 CURVE SMOOTH",
"442 562 OFFCURVE",
"430 559 OFFCURVE",
"419 551 CURVE SMOOTH",
"406 540 OFFCURVE",
"422 519 OFFCURVE",
"436 530 CURVE SMOOTH",
"446 538 OFFCURVE",
"451 549 OFFCURVE",
"462 557 CURVE SMOOTH"
);
},
{
closed = 1;
nodes = (
"278 673 LINE",
"281 690 OFFCURVE",
"254 695 OFFCURVE",
"251 678 CURVE SMOOTH",
"245 649 OFFCURVE",
"245 633 OFFCURVE",
"240 604 CURVE SMOOTH",
"237 589 OFFCURVE",
"261 585 OFFCURVE",
"263 600 CURVE SMOOTH",
"268 629 OFFCURVE",
"271 644 OFFCURVE",
"277 673 CURVE"
);
},
{
closed = 1;
nodes = (
"170 630 OFFCURVE",
"172 643 OFFCURVE",
"168 667 CURVE SMOOTH",
"168 666 LINE SMOOTH",
"165 682 OFFCURVE",
"140 678 OFFCURVE",
"143 662 CURVE SMOOTH",
"146 640 OFFCURVE",
"145 628 OFFCURVE",
"145 606 CURVE SMOOTH",
"145 590 OFFCURVE",
"170 590 OFFCURVE",
"170 606 CURVE SMOOTH"
);
},
{
closed = 1;
nodes = (
"84 577 OFFCURVE",
"78 599 OFFCURVE",
"53 620 CURVE SMOOTH",
"37 634 OFFCURVE",
"17 610 OFFCURVE",
"33 596 CURVE SMOOTH",
"52 580 OFFCURVE",
"56 561 OFFCURVE",
"63 538 CURVE SMOOTH",
"70 518 OFFCURVE",
"100 528 OFFCURVE",
"94 548 CURVE SMOOTH"
);
},
{
closed = 1;
nodes = (
"434 290 OFFCURVE",
"382 303 OFFCURVE",
"317 305 CURVE",
"356 331 OFFCURVE",
"394 385 OFFCURVE",
"394 434 CURVE SMOOTH",
"393 499 OFFCURVE",
"329 543 OFFCURVE",
"264 543 CURVE SMOOTH",
"197 542 OFFCURVE",
"53 515 OFFCURVE",
"26 443 CURVE SMOOTH",
"21 431 OFFCURVE",
"40 424 OFFCURVE",
"45 436 CURVE SMOOTH",
"48 445 OFFCURVE",
"75 471 OFFCURVE",
"80 460 CURVE SMOOTH",
"104 413 OFFCURVE",
"131 347 OFFCURVE",
"137 293 CURVE SMOOTH",
"140 270 OFFCURVE",
"142 249 OFFCURVE",
"142 226 CURVE SMOOTH",
"142 204 OFFCURVE",
"142 184 OFFCURVE",
"139 164 CURVE SMOOTH",
"137 147 OFFCURVE",
"123 82 OFFCURVE",
"106 71 CURVE",
"90 72 OFFCURVE",
"68 89 OFFCURVE",
"65 102 CURVE SMOOTH",
"61 124 OFFCURVE",
"43 123 OFFCURVE",
"48 101 CURVE SMOOTH",
"54 72 OFFCURVE",
"70 48 OFFCURVE",
"105 48 CURVE SMOOTH",
"121 48 OFFCURVE",
"132 58 OFFCURVE",
"138 66 CURVE SMOOTH",
"175 110 OFFCURVE",
"180 178 OFFCURVE",
"180 232 CURVE SMOOTH",
"180 251 OFFCURVE",
"178 278 OFFCURVE",
"175 303 CURVE SMOOTH",
"167 367 OFFCURVE",
"152 424 OFFCURVE",
"133 469 CURVE",
"128 478 OFFCURVE",
"152 478 OFFCURVE",
"163 482 CURVE SMOOTH",
"199 493 OFFCURVE",
"225 498 OFFCURVE",
"264 498 CURVE SMOOTH",
"305 497 OFFCURVE",
"342 473 OFFCURVE",
"348 433 CURVE SMOOTH",
"358 360 OFFCURVE",
"306 304 OFFCURVE",
"270 302 CURVE SMOOTH",
"232 300 OFFCURVE",
"219 291 OFFCURVE",
"243 276 CURVE SMOOTH",
"253 269 OFFCURVE",
"279 270 OFFCURVE",
"292 270 CURVE SMOOTH",
"342 270 OFFCURVE",
"391 269 OFFCURVE",
"391 208 CURVE SMOOTH",
"391 146 OFFCURVE",
"342 72 OFFCURVE",
"280 72 CURVE SMOOTH",
"256 72 OFFCURVE",
"224 86 OFFCURVE",
"224 124 CURVE SMOOTH",
"224 141 OFFCURVE",
"241 182 OFFCURVE",
"259 182 CURVE SMOOTH",
"289 182 OFFCURVE",
"288 159 OFFCURVE",
"284 140 CURVE SMOOTH",
"281 125 OFFCURVE",
"295 122 OFFCURVE",
"298 137 CURVE SMOOTH",
"305 170 OFFCURVE",
"311 208 OFFCURVE",
"260 207 CURVE SMOOTH",
"228 207 OFFCURVE",
"201 164 OFFCURVE",
"201 135 CURVE SMOOTH",
"202 95 OFFCURVE",
"241 37 OFFCURVE",
"283 37 CURVE SMOOTH",
"367 37 OFFCURVE",
"434 124 OFFCURVE",
"434 207 CURVE SMOOTH"
);
},
{
closed = 1;
nodes = (
"415 -53 OFFCURVE",
"407 -45 OFFCURVE",
"402 -35 CURVE SMOOTH",
"397 -23 OFFCURVE",
"389 -13 OFFCURVE",
"381 0 CURVE",
"381 -1 LINE",
"376 8 OFFCURVE",
"363 0 OFFCURVE",
"368 -9 CURVE SMOOTH",
"380 -28 OFFCURVE",
"384 -61 OFFCURVE",
"400 -82 CURVE SMOOTH",
"412 -98 OFFCURVE",
"436 -80 OFFCURVE",
"424 -64 CURVE SMOOTH"
);
},
{
closed = 1;
nodes = (
"295 -75 OFFCURVE",
"287 -54 OFFCURVE",
"282 -27 CURVE",
"281 -28 LINE",
"278 -12 OFFCURVE",
"255 -17 OFFCURVE",
"258 -33 CURVE SMOOTH",
"263 -58 OFFCURVE",
"265 -79 OFFCURVE",
"268 -107 CURVE SMOOTH",
"271 -127 OFFCURVE",
"301 -123 OFFCURVE",
"299 -103 CURVE SMOOTH"
);
},
{
closed = 1;
nodes = (
"177 -45 OFFCURVE",
"170 -35 OFFCURVE",
"172 -17 CURVE SMOOTH",
"173 -7 OFFCURVE",
"158 -6 OFFCURVE",
"157 -16 CURVE SMOOTH",
"155 -33 OFFCURVE",
"145 -43 OFFCURVE",
"144 -61 CURVE SMOOTH",
"144 -73 OFFCURVE",
"147 -80 OFFCURVE",
"147 -92 CURVE SMOOTH",
"148 -106 OFFCURVE",
"170 -106 OFFCURVE",
"170 -91 CURVE SMOOTH",
"170 -80 OFFCURVE",
"176 -74 OFFCURVE",
"176 -62 CURVE SMOOTH"
);
},
{
closed = 1;
nodes = (
"90 -12 LINE",
"96 1 OFFCURVE",
"77 10 OFFCURVE",
"71 -3 CURVE SMOOTH",
"62 -20 OFFCURVE",
"53 -38 OFFCURVE",
"47 -57 CURVE SMOOTH",
"43 -70 OFFCURVE",
"42 -83 OFFCURVE",
"38 -95 CURVE SMOOTH",
"33 -110 OFFCURVE",
"56 -117 OFFCURVE",
"61 -102 CURVE SMOOTH",
"64 -91 OFFCURVE",
"71 -80 OFFCURVE",
"75 -67 CURVE SMOOTH",
"81 -49 OFFCURVE",
"81 -29 OFFCURVE",
"89 -12 CURVE"
);
}
);
width = 472;
}
);
note = B;
unicode = 0042;
},
{
glyphname = C;
layers = (
{
hints = (
{
horizontal = 1;
place = "{-23, 52}";
type = Stem;
},
{
horizontal = 1;
place = "{214, 19}";
type = Stem;
},
{
horizontal = 1;
place = "{385, 17}";
type = Stem;
},
{
horizontal = 1;
place = "{576, 27}";
type = Stem;
},
{
place = "{18, 52}";
type = Stem;
},
{
place = "{249, 23}";
type = Stem;
},
{
place = "{366, 17}";
type = Stem;
}
);
layerId = "9537DB68-ED58-4774-880B-66DB18EF27AD";
paths = (
{
closed = 1;
nodes = (
"417 672 OFFCURVE",
"399 689 OFFCURVE",
"388 676 CURVE SMOOTH",
"374 661 OFFCURVE",
"365 643 OFFCURVE",
"355 625 CURVE SMOOTH",
"347 611 OFFCURVE",
"368 598 OFFCURVE",
"377 613 CURVE SMOOTH",
"386 629 OFFCURVE",
"394 646 OFFCURVE",
"406 660 CURVE SMOOTH"
);
},
{
closed = 1;
nodes = (
"464 605 OFFCURVE",
"450 626 OFFCURVE",
"436 616 CURVE SMOOTH",
"424 609 OFFCURVE",
"417 604 OFFCURVE",
"404 597 CURVE SMOOTH",
"389 589 OFFCURVE",
"401 567 OFFCURVE",
"416 575 CURVE SMOOTH",
"429 582 OFFCURVE",
"438 587 OFFCURVE",
"450 596 CURVE SMOOTH"
);
},
{
closed = 1;
nodes = (
"295 697 LINE",
"295 714 OFFCURVE",
"270 714 OFFCURVE",
"270 697 CURVE SMOOTH",
"270 675 OFFCURVE",
"269 656 OFFCURVE",
"266 639 CURVE SMOOTH",
"263 623 OFFCURVE",
"288 619 OFFCURVE",
"290 635 CURVE SMOOTH",
"293 654 OFFCURVE",
"296 673 OFFCURVE",
"296 697 CURVE"
);
},
{
closed = 1;
nodes = (
"194 622 LINE",
"194 673 LINE SMOOTH",
"194 690 OFFCURVE",
"169 690 OFFCURVE",
"169 673 CURVE SMOOTH",
"169 622 LINE SMOOTH",
"169 605 OFFCURVE",
"195 605 OFFCURVE",
"195 622 CURVE"
);
},
{
closed = 1;
nodes = (
"132 588 LINE",
"132 615 OFFCURVE",
"119 626 OFFCURVE",
"112 649 CURVE SMOOTH",
"107 665 OFFCURVE",
"83 657 OFFCURVE",
"88 641 CURVE SMOOTH",
"94 623 OFFCURVE",
"108 607 OFFCURVE",
"108 588 CURVE SMOOTH",
"108 571 OFFCURVE",
"133 571 OFFCURVE",
"133 588 CURVE"
);
},
{
closed = 1;
nodes = (
"73 585 OFFCURVE",
"49 607 OFFCURVE",
"30 634 CURVE SMOOTH",
"21 648 OFFCURVE",
"0 633 OFFCURVE",
"10 620 CURVE SMOOTH",
"28 595 OFFCURVE",
"51 573 OFFCURVE",
"62 544 CURVE SMOOTH",
"69 529 OFFCURVE",
"92 538 OFFCURVE",
"86 554 CURVE SMOOTH"
);
},
{
closed = 1;
nodes = (
"413 190 OFFCURVE",
"375 233 OFFCURVE",
"330 233 CURVE SMOOTH",
"275 233 OFFCURVE",
"258 176 OFFCURVE",
"265 135 CURVE SMOOTH",
"267 124 OFFCURVE",
"284 127 OFFCURVE",
"282 138 CURVE SMOOTH",
"277 169 OFFCURVE",
"288 214 OFFCURVE",
"330 214 CURVE SMOOTH",
"359 214 OFFCURVE",
"373 176 OFFCURVE",
"373 148 CURVE SMOOTH",
"374 112 OFFCURVE",
"344 80 OFFCURVE",
"320 58 CURVE SMOOTH",
"298 37 OFFCURVE",
"270 30 OFFCURVE",
"234 30 CURVE SMOOTH",
"125 29 OFFCURVE",
"68 176 OFFCURVE",
"69 291 CURVE SMOOTH",
"69 313 OFFCURVE",
"73 338 OFFCURVE",
"78 360 CURVE SMOOTH",
"98 442 OFFCURVE",
"179 576 OFFCURVE",
"279 576 CURVE SMOOTH",
"306 576 OFFCURVE",
"328 566 OFFCURVE",
"343 547 CURVE SMOOTH",
"356 530 OFFCURVE",
"366 513 OFFCURVE",
"366 494 CURVE SMOOTH",
"365 458 OFFCURVE",
"332 401 OFFCURVE",
"301 402 CURVE SMOOTH",
"289 402 OFFCURVE",
"271 410 OFFCURVE",
"271 422 CURVE SMOOTH",
"271 443 OFFCURVE",
"284 467 OFFCURVE",
"303 475 CURVE",
"304 475 LINE",
"314 479 OFFCURVE",
"308 495 OFFCURVE",
"297 491 CURVE SMOOTH",
"286 486 OFFCURVE",
"269 477 OFFCURVE",
"265 472 CURVE SMOOTH",
"253 457 OFFCURVE",
"248 434 OFFCURVE",
"248 422 CURVE SMOOTH",
"248 401 OFFCURVE",
"280 386 OFFCURVE",
"300 385 CURVE SMOOTH",
"347 383 OFFCURVE",
"382 457 OFFCURVE",
"382 494 CURVE SMOOTH",
"382 541 OFFCURVE",
"329 603 OFFCURVE",
"280 603 CURVE SMOOTH",
"170 603 OFFCURVE",
"51 471 OFFCURVE",
"26 373 CURVE SMOOTH",
"19 345 OFFCURVE",
"17 316 OFFCURVE",
"17 292 CURVE SMOOTH",
"18 181 OFFCURVE",
"72 -21 OFFCURVE",
"234 -22 CURVE SMOOTH",
"276 -22 OFFCURVE",
"320 -14 OFFCURVE",
"356 19 CURVE SMOOTH",
"387 49 OFFCURVE",
"412 99 OFFCURVE",
"413 147 CURVE SMOOTH"
);
},
{
closed = 1;
nodes = (
"416 -57 OFFCURVE",
"399 -41 OFFCURVE",
"385 -17 CURVE SMOOTH",
"376 -3 OFFCURVE",
"355 -16 OFFCURVE",
"363 -31 CURVE SMOOTH",
"375 -50 OFFCURVE",
"392 -67 OFFCURVE",
"396 -90 CURVE SMOOTH",
"398 -106 OFFCURVE",
"423 -103 OFFCURVE",
"420 -86 CURVE SMOOTH"
);
},
{
closed = 1;
nodes = (
"314 -109 OFFCURVE",
"310 -88 OFFCURVE",
"302 -60 CURVE SMOOTH",
"297 -44 OFFCURVE",
"273 -50 OFFCURVE",
"278 -66 CURVE SMOOTH",
"286 -94 OFFCURVE",
"290 -113 OFFCURVE",
"294 -141 CURVE SMOOTH",
"296 -157 OFFCURVE",
"321 -154 OFFCURVE",
"318 -137 CURVE SMOOTH"
);
},
{
closed = 1;
nodes = (
"217 -122 LINE",
"217 -54 LINE SMOOTH",
"217 -37 OFFCURVE",
"192 -37 OFFCURVE",
"192 -54 CURVE SMOOTH",
"192 -122 LINE SMOOTH",
"192 -139 OFFCURVE",
"218 -139 OFFCURVE",
"218 -122 CURVE"
);
},
{
closed = 1;
nodes = (
"146 -42 OFFCURVE",
"122 -34 OFFCURVE",
"117 -50 CURVE SMOOTH",
"108 -78 OFFCURVE",
"100 -94 OFFCURVE",
"91 -122 CURVE SMOOTH",
"86 -138 OFFCURVE",
"110 -146 OFFCURVE",
"115 -130 CURVE SMOOTH",
"124 -102 OFFCURVE",
"132 -86 OFFCURVE",
"141 -58 CURVE SMOOTH"
);
},
{
closed = 1;
nodes = (
"66 12 OFFCURVE",
"44 22 OFFCURVE",
"37 7 CURVE SMOOTH",
"26 -15 OFFCURVE",
"15 -34 OFFCURVE",
"8 -54 CURVE SMOOTH",
"3 -70 OFFCURVE",
"26 -78 OFFCURVE",
"32 -62 CURVE SMOOTH",
"39 -42 OFFCURVE",
"50 -25 OFFCURVE",
"59 -3 CURVE SMOOTH"
);
}
);
width = 433;
}
);
note = C;
unicode = 0043;
},
{
glyphname = D;
layers = (
{
hints = (
{
horizontal = 1;
place = "{-46, 43}";
type = Stem;
},
{
horizontal = 1;
place = "{5, 51}";
type = Stem;
},
{
horizontal = 1;
place = "{274, 21}";
type = Stem;
},
{
horizontal = 1;
place = "{376, 17}";
type = Stem;
},
{
horizontal = 1;
place = "{512, 32}";
type = Stem;
},
{
horizontal = 1;
place = "{683, 19}";
type = Stem;
},
{
place = "{30, 22}";
type = Stem;
},
{
place = "{172, 16}";
type = Stem;
},
{
place = "{219, 20}";
type = Stem;
},
{
place = "{247, 52}";
type = Stem;
},
{
place = "{352, 17}";
type = Stem;
},
{
place = "{597, 43}";
type = Stem;
}
);
layerId = "9537DB68-ED58-4774-880B-66DB18EF27AD";
paths = (
{
closed = 1;
nodes = (
"639 435 OFFCURVE",
"527 522 OFFCURVE",
"419 540 CURVE SMOOTH",
"398 543 OFFCURVE",
"384 543 OFFCURVE",
"362 543 CURVE SMOOTH",
"321 543 OFFCURVE",
"281 539 OFFCURVE",
"242 531 CURVE",
"240 540 OFFCURVE",
"238 549 OFFCURVE",
"238 560 CURVE SMOOTH",
"238 613 OFFCURVE",
"264 680 OFFCURVE",
"314 681 CURVE SMOOTH",
"335 681 OFFCURVE",
"353 666 OFFCURVE",
"352 644 CURVE SMOOTH",
"352 624 OFFCURVE",
"334 603 OFFCURVE",
"310 599 CURVE SMOOTH",
"300 598 OFFCURVE",
"302 580 OFFCURVE",
"313 582 CURVE SMOOTH",
"346 586 OFFCURVE",
"369 616 OFFCURVE",
"369 644 CURVE SMOOTH",
"368 676 OFFCURVE",
"345 700 OFFCURVE",
"314 700 CURVE SMOOTH",
"254 701 OFFCURVE",
"218 623 OFFCURVE",
"218 560 CURVE SMOOTH",
"218 547 OFFCURVE",
"217 537 OFFCURVE",
"218 526 CURVE",
"186 518 OFFCURVE",
"155 507 OFFCURVE",
"126 496 CURVE SMOOTH",
"94 484 OFFCURVE",
"22 448 OFFCURVE",
"23 399 CURVE SMOOTH",
"23 375 OFFCURVE",
"42 374 OFFCURVE",
"59 374 CURVE SMOOTH",
"79 375 OFFCURVE",
"95 381 OFFCURVE",
"114 387 CURVE",
"115 387 LINE",
"125 391 OFFCURVE",
"120 407 OFFCURVE",
"109 403 CURVE SMOOTH",
"93 397 OFFCURVE",
"77 391 OFFCURVE",
"59 391 CURVE SMOOTH",
"51 392 OFFCURVE",
"40 389 OFFCURVE",
"40 399 CURVE SMOOTH",
"41 434 OFFCURVE",
"98 467 OFFCURVE",
"133 481 CURVE SMOOTH",
"160 492 OFFCURVE",
"189 499 OFFCURVE",
"219 503 CURVE",
"223 459 OFFCURVE",
"224 411 OFFCURVE",
"233 372 CURVE SMOOTH",
"245 318 OFFCURVE",
"246 263 OFFCURVE",
"246 211 CURVE SMOOTH",
"246 159 OFFCURVE",
"233 107 OFFCURVE",
"210 66 CURVE",
"190 69 OFFCURVE",
"171 71 OFFCURVE",
"155 75 CURVE SMOOTH",
"145 78 OFFCURVE",
"140 81 OFFCURVE",
"132 83 CURVE SMOOTH",
"117 87 OFFCURVE",
"111 65 OFFCURVE",
"126 61 CURVE SMOOTH",
"149 55 OFFCURVE",
"171 45 OFFCURVE",
"192 37 CURVE",
"183 27 OFFCURVE",
"174 18 OFFCURVE",
"165 11 CURVE SMOOTH",
"154 3 OFFCURVE",
"148 -4 OFFCURVE",
"134 -4 CURVE SMOOTH",
"107 -3 OFFCURVE",
"72 16 OFFCURVE",
"63 39 CURVE SMOOTH",
"53 63 OFFCURVE",
"51 82 OFFCURVE",
"51 108 CURVE SMOOTH",
"51 125 OFFCURVE",
"53 145 OFFCURVE",
"56 158 CURVE SMOOTH",
"63 189 OFFCURVE",
"104 274 OFFCURVE",
"141 273 CURVE SMOOTH",
"172 273 OFFCURVE",
"177 219 OFFCURVE",
"168 188 CURVE SMOOTH",
"165 177 OFFCURVE",
"181 172 OFFCURVE",
"184 183 CURVE SMOOTH",
"196 225 OFFCURVE",
"183 295 OFFCURVE",
"142 294 CURVE SMOOTH",
"112 294 OFFCURVE",
"87 265 OFFCURVE",
"70 239 CURVE SMOOTH",
"44 199 OFFCURVE",
"29 156 OFFCURVE",
"29 108 CURVE SMOOTH",
"29 78 OFFCURVE",
"33 57 OFFCURVE",
"43 31 CURVE SMOOTH",
"56 -2 OFFCURVE",
"95 -45 OFFCURVE",
"134 -46 CURVE SMOOTH",
"160 -46 OFFCURVE",
"176 -46 OFFCURVE",
"197 -30 CURVE SMOOTH",
"215 -16 OFFCURVE",
"231 1 OFFCURVE",
"244 21 CURVE",
"270 13 OFFCURVE",
"297 4 OFFCURVE",
"325 4 CURVE SMOOTH",
"438 3 OFFCURVE",
"580 84 OFFCURVE",
"604 143 CURVE SMOOTH",
"626 197 OFFCURVE",
"639 262 OFFCURVE",
"639 326 CURVE SMOOTH"
);
},
{
closed = 1;
nodes = (
"597 274 OFFCURVE",
"586 211 OFFCURVE",
"560 171 CURVE SMOOTH",
"529 123 OFFCURVE",
"420 57 OFFCURVE",
"325 56 CURVE SMOOTH",
"305 56 OFFCURVE",
"284 54 OFFCURVE",
"264 56 CURVE",
"264 57 LINE",
"286 104 OFFCURVE",
"298 160 OFFCURVE",
"298 212 CURVE SMOOTH",
"298 264 OFFCURVE",
"297 324 OFFCURVE",
"284 384 CURVE SMOOTH",
"275 423 OFFCURVE",
"253 465 OFFCURVE",
"245 507 CURVE",
"283 511 OFFCURVE",
"322 512 OFFCURVE",
"361 512 CURVE SMOOTH",
"464 512 OFFCURVE",
"598 443 OFFCURVE",
"597 327 CURVE SMOOTH"
);
},
{
closed = 1;
nodes = (
"455 297 OFFCURVE",
"441 311 OFFCURVE",
"423 311 CURVE SMOOTH",
"406 311 OFFCURVE",
"392 297 OFFCURVE",
"392 279 CURVE SMOOTH",
"392 262 OFFCURVE",
"406 248 OFFCURVE",
"424 248 CURVE SMOOTH",
"440 248 OFFCURVE",
"454 261 OFFCURVE",
"455 279 CURVE SMOOTH"
);
}
);
width = 668;
}
);
note = D;
unicode = 0044;
},
{
glyphname = E;
lastChange = "2020-06-30 20:01:45 +0000";
layers = (
{
hints = (
{
horizontal = 1;
place = "{150, 37}";
type = Stem;
},
{
horizontal = 1;
place = "{258, 12}";
type = Stem;
},
{
horizontal = 1;
place = "{368, 21}";
type = Stem;
},
{
horizontal = 1;
place = "{415, -20}";
target = down;
type = TopGhost;
},
{
horizontal = 1;
place = "{456, 17}";
type = Stem;
},
{
horizontal = 1;
place = "{478, 12}";
type = Stem;
},
{
horizontal = 1;
place = "{610, 31}";
type = Stem;
},
{
place = "{92, 20}";
type = Stem;
},
{
place = "{148, 16}";
type = Stem;
},
{
place = "{270, 12}";
type = Stem;
},
{
place = "{323, 11}";
type = Stem;
},
{
place = "{340, 27}";
type = Stem;
}
);
layerId = "9537DB68-ED58-4774-880B-66DB18EF27AD";
paths = (
{
closed = 1;
nodes = (
"333 357 OFFCURVE",
"303 389 OFFCURVE",
"270 389 CURVE SMOOTH",
"199 389 OFFCURVE",
"175 256 OFFCURVE",
"230 257 CURVE SMOOTH",
"272 257 OFFCURVE",
"285 328 OFFCURVE",
"248 322 CURVE",
"241 320 OFFCURVE",
"243 308 OFFCURVE",
"251 310 CURVE SMOOTH",
"268 312 OFFCURVE",
"255 268 OFFCURVE",
"229 269 CURVE SMOOTH",
"219 269 OFFCURVE",
"211 281 OFFCURVE",
"211 296 CURVE SMOOTH",
"211 329 OFFCURVE",
"234 369 OFFCURVE",
"270 369 CURVE SMOOTH",
"291 368 OFFCURVE",
"303 343 OFFCURVE",
"303 321 CURVE SMOOTH",
"303 288 OFFCURVE",
"283 250 OFFCURVE",
"261 231 CURVE SMOOTH",
"241 212 OFFCURVE",
"146 187 OFFCURVE",
"119 187 CURVE SMOOTH",
"102 187 OFFCURVE",
"73 207 OFFCURVE",
"65 221 CURVE SMOOTH",
"54 244 OFFCURVE",
"47 264 OFFCURVE",
"47 289 CURVE SMOOTH",
"47 337 OFFCURVE",
"76 379 OFFCURVE",
"111 411 CURVE",
"122 401 OFFCURVE",
"135 395 OFFCURVE",
"153 395 CURVE SMOOTH",
"180 395 OFFCURVE",
"219 414 OFFCURVE",
"219 449 CURVE SMOOTH",
"219 468 OFFCURVE",
"202 473 OFFCURVE",
"186 473 CURVE SMOOTH",
"167 473 OFFCURVE",
"151 464 OFFCURVE",
"139 456 CURVE SMOOTH",
"130 451 OFFCURVE",
"122 444 OFFCURVE",
"113 437 CURVE",
"104 452 OFFCURVE",
"100 473 OFFCURVE",
"100 490 CURVE SMOOTH",
"100 527 OFFCURVE",
"121 565 OFFCURVE",
"144 590 CURVE SMOOTH",
"159 607 OFFCURVE",
"195 610 OFFCURVE",
"216 610 CURVE SMOOTH",
"240 610 OFFCURVE",
"261 598 OFFCURVE",
"268 577 CURVE SMOOTH",
"270 569 OFFCURVE",
"275 561 OFFCURVE",
"275 552 CURVE SMOOTH",
"275 529 OFFCURVE",
"263 490 OFFCURVE",
"242 490 CURVE SMOOTH",
"228 490 OFFCURVE",
"217 502 OFFCURVE",
"217 515 CURVE SMOOTH",
"217 527 OFFCURVE",
"227 539 OFFCURVE",
"238 550 CURVE SMOOTH",
"244 555 OFFCURVE",
"235 564 OFFCURVE",
"229 558 CURVE SMOOTH",
"219 549 OFFCURVE",
"205 534 OFFCURVE",
"205 515 CURVE SMOOTH",
"205 495 OFFCURVE",
"222 478 OFFCURVE",
"243 478 CURVE SMOOTH",
"271 478 OFFCURVE",
"303 521 OFFCURVE",
"303 552 CURVE SMOOTH",
"303 563 OFFCURVE",
"301 575 OFFCURVE",
"298 587 CURVE SMOOTH",
"286 625 OFFCURVE",
"248 641 OFFCURVE",
"216 641 CURVE SMOOTH",
"189 641 OFFCURVE",
"149 624 OFFCURVE",
"130 603 CURVE SMOOTH",
"104 575 OFFCURVE",
"83 531 OFFCURVE",
"83 490 CURVE SMOOTH",
"83 469 OFFCURVE",
"88 444 OFFCURVE",
"100 426 CURVE",
"60 390 OFFCURVE",
"27 342 OFFCURVE",
"27 290 CURVE SMOOTH",
"27 260 OFFCURVE",
"27 235 OFFCURVE",
"40 208 CURVE SMOOTH",
"56 176 OFFCURVE",
"80 150 OFFCURVE",
"120 150 CURVE SMOOTH",
"147 150 OFFCURVE",
"221 169 OFFCURVE",
"242 177 CURVE SMOOTH",
"258 183 OFFCURVE",
"270 195 OFFCURVE",
"283 206 CURVE SMOOTH",
"311 232 OFFCURVE",
"333 280 OFFCURVE",
"333 322 CURVE SMOOTH"
);
},
{
closed = 1;
nodes = (
"279 123 OFFCURVE",
"258 76 OFFCURVE",
"214 76 CURVE SMOOTH",
"179 76 OFFCURVE",
"150 99 OFFCURVE",
"114 99 CURVE SMOOTH",
"82 99 OFFCURVE",
"64 89 OFFCURVE",
"44 75 CURVE SMOOTH",
"30 66 OFFCURVE",
"44 45 OFFCURVE",
"58 55 CURVE SMOOTH",
"76 67 OFFCURVE",
"88 74 OFFCURVE",
"114 74 CURVE SMOOTH",
"149 74 OFFCURVE",
"178 51 OFFCURVE",
"214 51 CURVE SMOOTH",
"263 51 OFFCURVE",
"288 95 OFFCURVE",
"323 86 CURVE SMOOTH",
"339 82 OFFCURVE",
"345 106 OFFCURVE",
"329 110 CURVE SMOOTH"
);
},
{
closed = 1;
nodes = (
"320 10 OFFCURVE",
"310 35 OFFCURVE",
"275 35 CURVE SMOOTH",
"241 35 OFFCURVE",
"212 0 OFFCURVE",
"188 0 CURVE SMOOTH",
"160 0 OFFCURVE",
"127 35 OFFCURVE",
"80 35 CURVE SMOOTH",
"64 35 OFFCURVE",
"46 32 OFFCURVE",
"30 19 CURVE SMOOTH",
"17 8 OFFCURVE",
"33 -11 OFFCURVE",
"46 -1 CURVE SMOOTH",
"56 8 OFFCURVE",
"66 10 OFFCURVE",
"80 10 CURVE SMOOTH",
"121 10 OFFCURVE",
"151 -25 OFFCURVE",
"188 -25 CURVE SMOOTH",
"221 -25 OFFCURVE",
"249 10 OFFCURVE",
"275 10 CURVE SMOOTH",
"297 10 OFFCURVE",
"316 -15 OFFCURVE",
"341 -19 CURVE SMOOTH",
"357 -22 OFFCURVE",
"362 2 OFFCURVE",
"345 5 CURVE SMOOTH"
);
},
{
closed = 1;
nodes = (
"199 431 OFFCURVE",
"176 415 OFFCURVE",
"153 415 CURVE SMOOTH",
"142 415 OFFCURVE",
"133 418 OFFCURVE",
"126 424 CURVE",
"141 436 OFFCURVE",
"166 456 OFFCURVE",
"186 456 CURVE SMOOTH",
"192 456 OFFCURVE",
"199 456 OFFCURVE",
"199 449 CURVE SMOOTH"
);
}
);
width = 381;
}
);
note = E;
unicode = 0045;
},
{
glyphname = F;
layers = (
{
hints = (
{
horizontal = 1;
place = "{-49, 52}";
type = Stem;
},
{
horizontal = 1;
place = "{113, 20}";
type = Stem;
},
{
horizontal = 1;
place = "{304, 21}";
target = up;
type = BottomGhost;
},
{
horizontal = 1;
place = "{431, 26}";
type = Stem;
},
{
horizontal = 1;
place = "{479, 17}";
type = Stem;
},
{
horizontal = 1;
place = "{571, 18}";
type = Stem;
},
{
place = "{28, 22}";
type = Stem;
},
{
place = "{136, 36}";
type = Stem;
},
{
place = "{224, 21}";
type = Stem;
},
{
place = "{342, 21}";
type = Stem;
},
{
place = "{430, 36}";
type = Stem;
},
{
place = "{642, 21}";
type = Stem;
}
);
layerId = "9537DB68-ED58-4774-880B-66DB18EF27AD";
paths = (
{
closed = 1;
nodes = (
"662 577 OFFCURVE",
"616 603 OFFCURVE",
"578 583 CURVE SMOOTH",
"568 577 OFFCURVE",
"576 562 OFFCURVE",
"586 567 CURVE SMOOTH",
"612 581 OFFCURVE",
"642 561 OFFCURVE",
"642 526 CURVE SMOOTH",
"641 489 OFFCURVE",
"599 457 OFFCURVE",
"564 457 CURVE SMOOTH",
"525 457 OFFCURVE",
"459 511 OFFCURVE",
"459 511 CURVE",
"460 548 OFFCURVE",
"462 574 OFFCURVE",
"484 604 CURVE SMOOTH",
"490 613 OFFCURVE",
"476 623 OFFCURVE",
"469 614 CURVE SMOOTH",
"449 587 OFFCURVE",
"437 565 OFFCURVE",
"433 535 CURVE",
"411 557 OFFCURVE",
"388 578 OFFCURVE",
"364 590 CURVE SMOOTH",
"332 607 OFFCURVE",
"279 623 OFFCURVE",
"242 623 CURVE SMOOTH",
"185 623 OFFCURVE",
"120 598 OFFCURVE",
"81 564 CURVE SMOOTH",
"49 536 OFFCURVE",
"31 482 OFFCURVE",
"27 441 CURVE SMOOTH",
"24 403 OFFCURVE",
"35 379 OFFCURVE",
"52 350 CURVE SMOOTH",
"66 326 OFFCURVE",
"78 305 OFFCURVE",
"110 305 CURVE SMOOTH",
"173 304 OFFCURVE",
"232 365 OFFCURVE",
"231 425 CURVE SMOOTH",
"231 459 OFFCURVE",
"223 496 OFFCURVE",
"175 496 CURVE SMOOTH",
"164 496 OFFCURVE",
"164 479 OFFCURVE",
"175 479 CURVE SMOOTH",
"207 479 OFFCURVE",
"214 458 OFFCURVE",
"214 424 CURVE SMOOTH",
"213 375 OFFCURVE",
"163 327 OFFCURVE",
"110 326 CURVE SMOOTH",
"94 326 OFFCURVE",
"86 335 OFFCURVE",
"79 347 CURVE SMOOTH",
"27 428 OFFCURVE",
"45 463 OFFCURVE",
"115 525 CURVE SMOOTH",
"144 551 OFFCURVE",
"197 571 OFFCURVE",
"241 571 CURVE SMOOTH",
"268 571 OFFCURVE",
"313 558 OFFCURVE",
"340 544 CURVE SMOOTH",
"373 527 OFFCURVE",
"403 505 OFFCURVE",
"432 482 CURVE",
"431 453 OFFCURVE",
"429 425 OFFCURVE",
"427 394 CURVE",
"424 395 OFFCURVE",
"421 395 OFFCURVE",
"418 395 CURVE SMOOTH",
"406 396 OFFCURVE",
"400 397 OFFCURVE",
"388 397 CURVE SMOOTH",
"362 397 OFFCURVE",
"340 378 OFFCURVE",
"321 363 CURVE",
"313 355 OFFCURVE",
"325 343 OFFCURVE",
"333 350 CURVE SMOOTH",
"346 362 OFFCURVE",
"365 368 OFFCURVE",
"384 368 CURVE SMOOTH",
"395 368 OFFCURVE",
"401 367 OFFCURVE",
"411 366 CURVE SMOOTH",
"416 366 OFFCURVE",
"421 365 OFFCURVE",
"426 363 CURVE",
"425 315 OFFCURVE",
"430 275 OFFCURVE",
"430 224 CURVE SMOOTH",
"430 201 OFFCURVE",
"417 182 OFFCURVE",
"411 162 CURVE SMOOTH",
"398 115 OFFCURVE",
"370 81 OFFCURVE",
"329 41 CURVE SMOOTH",
"315 27 OFFCURVE",
"298 3 OFFCURVE",
"276 3 CURVE SMOOTH",
"259 3 OFFCURVE",
"204 36 OFFCURVE",
"196 53 CURVE SMOOTH",
"183 79 OFFCURVE",
"166 91 OFFCURVE",
"166 123 CURVE SMOOTH",
"166 185 OFFCURVE",
"213 277 OFFCURVE",
"286 277 CURVE SMOOTH",
"316 277 OFFCURVE",
"336 250 OFFCURVE",
"336 222 CURVE SMOOTH",
"335 180 OFFCURVE",
"321 115 OFFCURVE",
"276 115 CURVE SMOOTH",
"248 115 OFFCURVE",
"240 136 OFFCURVE",
"239 163 CURVE SMOOTH",
"239 186 OFFCURVE",
"258 215 OFFCURVE",
"279 215 CURVE SMOOTH",
"286 215 OFFCURVE",
"292 200 OFFCURVE",
"294 195 CURVE SMOOTH",
"299 185 OFFCURVE",
"314 192 OFFCURVE",
"309 202 CURVE SMOOTH",
"303 216 OFFCURVE",
"298 234 OFFCURVE",
"279 234 CURVE SMOOTH",
"250 234 OFFCURVE",
"218 195 OFFCURVE",
"218 162 CURVE SMOOTH",
"217 124 OFFCURVE",
"234 95 OFFCURVE",
"277 95 CURVE SMOOTH",
"332 95 OFFCURVE",
"356 170 OFFCURVE",
"356 222 CURVE SMOOTH",
"356 258 OFFCURVE",
"328 302 OFFCURVE",
"290 302 CURVE SMOOTH",
"210 302 OFFCURVE",
"130 192 OFFCURVE",
"130 124 CURVE SMOOTH",
"130 84 OFFCURVE",
"133 62 OFFCURVE",
"149 30 CURVE SMOOTH",
"166 -5 OFFCURVE",
"239 -49 OFFCURVE",
"276 -49 CURVE SMOOTH",
"308 -49 OFFCURVE",
"328 -34 OFFCURVE",
"349 -13 CURVE SMOOTH",
"399 38 OFFCURVE",
"442 77 OFFCURVE",
"462 149 CURVE SMOOTH",
"468 172 OFFCURVE",
"466 197 OFFCURVE",
"466 224 CURVE SMOOTH",
"466 271 OFFCURVE",
"460 308 OFFCURVE",
"460 351 CURVE",
"461 351 LINE SMOOTH",
"525 335 OFFCURVE",
"577 372 OFFCURVE",
"594 395 CURVE SMOOTH",
"601 404 OFFCURVE",
"583 408 OFFCURVE",
"574 401 CURVE SMOOTH",
"548 378 OFFCURVE",
"527 379 OFFCURVE",
"511 376 CURVE SMOOTH",
"495 374 OFFCURVE",
"477 379 OFFCURVE",
"460 385 CURVE",
"461 412 OFFCURVE",
"460 437 OFFCURVE",
"460 462 CURVE",
"491 442 OFFCURVE",
"525 431 OFFCURVE",
"564 431 CURVE SMOOTH",
"611 431 OFFCURVE",
"663 477 OFFCURVE",
"663 526 CURVE SMOOTH"
);
},
{
closed = 1;
nodes = (
"154 -22 OFFCURVE",
"148 -11 OFFCURVE",
"139 -11 CURVE SMOOTH",
"131 -11 OFFCURVE",
"125 -22 OFFCURVE",
"125 -35 CURVE SMOOTH",
"125 -47 OFFCURVE",
"131 -58 OFFCURVE",
"140 -58 CURVE SMOOTH",
"148 -58 OFFCURVE",
"153 -47 OFFCURVE",
"154 -35 CURVE SMOOTH"
);
},
{
closed = 1;
nodes = (
"313 -87 OFFCURVE",
"304 -79 OFFCURVE",
"294 -79 CURVE SMOOTH",
"284 -79 OFFCURVE",
"275 -87 OFFCURVE",
"275 -96 CURVE SMOOTH",
"275 -105 OFFCURVE",
"284 -113 OFFCURVE",
"294 -113 CURVE SMOOTH",
"304 -113 OFFCURVE",
"313 -105 OFFCURVE",
"313 -96 CURVE SMOOTH"
);
},
{
closed = 1;
nodes = (
"222 -71 OFFCURVE",
"214 -62 OFFCURVE",
"205 -62 CURVE SMOOTH",
"196 -62 OFFCURVE",
"188 -71 OFFCURVE",
"188 -81 CURVE SMOOTH",
"188 -91 OFFCURVE",
"196 -100 OFFCURVE",
"205 -100 CURVE SMOOTH",
"214 -100 OFFCURVE",
"222 -91 OFFCURVE",
"222 -81 CURVE SMOOTH"
);
},
{
closed = 1;
nodes = (
"121 202 OFFCURVE",
"112 209 OFFCURVE",
"101 209 CURVE SMOOTH",
"91 209 OFFCURVE",
"82 202 OFFCURVE",
"82 194 CURVE SMOOTH",
"82 186 OFFCURVE",
"91 179 OFFCURVE",
"102 179 CURVE SMOOTH",
"112 179 OFFCURVE",
"121 186 OFFCURVE",
"121 194 CURVE SMOOTH"
);
},
{
closed = 1;
nodes = (
"112 124 OFFCURVE",
"105 133 OFFCURVE",
"97 133 CURVE SMOOTH",
"89 133 OFFCURVE",
"82 124 OFFCURVE",
"82 114 CURVE SMOOTH",
"82 104 OFFCURVE",
"89 95 OFFCURVE",
"97 95 CURVE SMOOTH",
"105 95 OFFCURVE",
"112 104 OFFCURVE",
"112 114 CURVE SMOOTH"
);
},
{
closed = 1;
nodes = (
"112 33 OFFCURVE",
"104 40 OFFCURVE",
"95 40 CURVE SMOOTH",
"86 40 OFFCURVE",
"78 33 OFFCURVE",
"78 25 CURVE SMOOTH",
"78 17 OFFCURVE",
"86 10 OFFCURVE",
"95 10 CURVE SMOOTH",
"104 10 OFFCURVE",
"112 17 OFFCURVE",
"112 25 CURVE SMOOTH"
);
},
{
closed = 1;
nodes = (
"167 266 OFFCURVE",
"161 273 OFFCURVE",
"152 273 CURVE SMOOTH",
"144 273 OFFCURVE",
"138 266 OFFCURVE",
"138 258 CURVE SMOOTH",
"138 250 OFFCURVE",
"144 243 OFFCURVE",
"153 243 CURVE SMOOTH",
"161 243 OFFCURVE",
"167 250 OFFCURVE",
"167 258 CURVE SMOOTH"
);
}
);
width = 571;
}
);
note = F;
unicode = 0046;
},
{
glyphname = G;
layers = (
{
hints = (
{
horizontal = 1;
place = "{-241, 41}";
type = Stem;
},
{
horizontal = 1;
place = "{-99, 40}";
type = Stem;
},
{
horizontal = 1;
place = "{3, 52}";
type = Stem;
},
{
horizontal = 1;
place = "{329, 18}";
type = Stem;
},
{
horizontal = 1;
place = "{444, 27}";
type = Stem;
},
{
horizontal = 1;
place = "{532, 30}";
type = Stem;
},
{
place = "{17, 43}";
type = Stem;
},
{
place = "{213, 43}";
type = Stem;
},
{
place = "{270, 22}";
type = Stem;
},
{
place = "{414, 35}";
type = Stem;
},
{
place = "{451, 26}";
type = Stem;
}
);
layerId = "9537DB68-ED58-4774-880B-66DB18EF27AD";
paths = (
{
closed = 1;
nodes = (
"508 627 OFFCURVE",
"487 640 OFFCURVE",
"478 626 CURVE SMOOTH",
"467 608 OFFCURVE",
"458 588 OFFCURVE",
"445 572 CURVE SMOOTH",
"435 558 OFFCURVE",
"455 543 OFFCURVE",
"465 556 CURVE SMOOTH",
"478 574 OFFCURVE",
"488 594 OFFCURVE",
"500 612 CURVE SMOOTH"
);
},
{
closed = 1;
nodes = (
"435 690 OFFCURVE",
"412 699 OFFCURVE",
"405 684 CURVE SMOOTH",
"396 660 OFFCURVE",
"380 639 OFFCURVE",
"375 614 CURVE SMOOTH",
"371 598 OFFCURVE",
"395 592 OFFCURVE",
"399 608 CURVE SMOOTH",
"404 631 OFFCURVE",
"419 652 OFFCURVE",
"429 674 CURVE SMOOTH"
);
},
{
closed = 1;
nodes = (
"335 714 OFFCURVE",
"310 719 OFFCURVE",
"307 703 CURVE SMOOTH",
"302 679 OFFCURVE",
"293 656 OFFCURVE",
"293 632 CURVE SMOOTH",
"293 615 OFFCURVE",
"319 615 OFFCURVE",
"319 632 CURVE SMOOTH",
"319 654 OFFCURVE",
"327 676 OFFCURVE",
"331 697 CURVE SMOOTH"
);
},
{
closed = 1;
nodes = (
"242 607 LINE",
"242 670 LINE SMOOTH",
"242 687 OFFCURVE",
"217 687 OFFCURVE",
"217 670 CURVE SMOOTH",
"217 607 LINE SMOOTH",
"217 590 OFFCURVE",
"243 590 OFFCURVE",
"243 607 CURVE"
);
},
{
closed = 1;
nodes = (
"153 586 LINE",
"153 618 OFFCURVE",
"153 636 OFFCURVE",
"149 668 CURVE SMOOTH",
"147 684 OFFCURVE",
"122 681 OFFCURVE",
"125 664 CURVE SMOOTH",
"129 634 OFFCURVE",
"129 616 OFFCURVE",
"129 586 CURVE SMOOTH",
"129 569 OFFCURVE",
"154 569 OFFCURVE",
"154 586 CURVE"
);
},
{
closed = 1;
nodes = (
"80 591 OFFCURVE",
"58 623 OFFCURVE",
"37 649 CURVE SMOOTH",
"26 662 OFFCURVE",
"7 646 OFFCURVE",
"17 633 CURVE SMOOTH",
"38 609 OFFCURVE",
"58 579 OFFCURVE",
"71 551 CURVE SMOOTH",
"77 536 OFFCURVE",
"100 546 OFFCURVE",
"93 561 CURVE SMOOTH"
);
},
{
closed = 1;
nodes = (
"498 306 OFFCURVE",
"475 315 OFFCURVE",
"469 299 CURVE SMOOTH",
"456 267 OFFCURVE",
"456 278 OFFCURVE",
"417 278 CURVE SMOOTH",
"376 278 OFFCURVE",
"328 287 OFFCURVE",
"281 287 CURVE SMOOTH",
"248 287 OFFCURVE",
"219 269 OFFCURVE",
"190 250 CURVE SMOOTH",
"176 241 OFFCURVE",
"189 220 OFFCURVE",
"203 229 CURVE SMOOTH",
"228 244 OFFCURVE",
"252 243 OFFCURVE",
"280 243 CURVE SMOOTH",
"318 243 OFFCURVE",
"350 235 OFFCURVE",
"383 232 CURVE",
"398 207 OFFCURVE",
"419 170 OFFCURVE",
"392 124 CURVE",
"372 98 OFFCURVE",
"326 78 OFFCURVE",
"299 67 CURVE SMOOTH",
"277 59 OFFCURVE",
"258 55 OFFCURVE",
"231 55 CURVE SMOOTH",
"189 55 OFFCURVE",
"164 58 OFFCURVE",
"133 77 CURVE SMOOTH",
"86 107 OFFCURVE",
"60 165 OFFCURVE",
"60 219 CURVE SMOOTH",
"60 307 OFFCURVE",
"93 361 OFFCURVE",
"143 431 CURVE SMOOTH",
"181 486 OFFCURVE",
"237 532 OFFCURVE",
"305 532 CURVE SMOOTH",
"370 532 OFFCURVE",
"468 516 OFFCURVE",
"447 430 CURVE SMOOTH",
"417 307 OFFCURVE",
"293 344 OFFCURVE",
"292 393 CURVE SMOOTH",
"292 428 OFFCURVE",
"351 467 OFFCURVE",
"363 428 CURVE SMOOTH",
"367 417 OFFCURVE",
"384 422 OFFCURVE",
"380 433 CURVE SMOOTH",
"372 458 OFFCURVE",
"362 472 OFFCURVE",
"338 471 CURVE SMOOTH",
"315 470 OFFCURVE",
"285 453 OFFCURVE",
"276 433 CURVE SMOOTH",
"271 420 OFFCURVE",
"269 407 OFFCURVE",
"269 393 CURVE SMOOTH",
"269 348 OFFCURVE",
"325 328 OFFCURVE",
"366 329 CURVE SMOOTH",
"485 330 OFFCURVE",
"560 564 OFFCURVE",
"304 563 CURVE SMOOTH",
"227 563 OFFCURVE",
"161 512 OFFCURVE",
"116 449 CURVE SMOOTH",
"61 372 OFFCURVE",
"15 316 OFFCURVE",
"16 219 CURVE SMOOTH",
"16 150 OFFCURVE",
"45 73 OFFCURVE",
"106 34 CURVE SMOOTH",
"149 7 OFFCURVE",
"186 3 OFFCURVE",
"232 3 CURVE SMOOTH",
"265 3 OFFCURVE",
"290 8 OFFCURVE",
"317 19 CURVE SMOOTH",
"330 24 OFFCURVE",
"415 78 OFFCURVE",
"412 92 CURVE",
"434 120 OFFCURVE",
"449 153 OFFCURVE",
"449 186 CURVE SMOOTH",
"449 199 OFFCURVE",
"445 218 OFFCURVE",
"438 234 CURVE",
"467 241 OFFCURVE",
"480 259 OFFCURVE",
"492 290 CURVE SMOOTH"
);
},
{
closed = 1;
nodes = (
"478 24 OFFCURVE",
"473 30 OFFCURVE",
"460 47 CURVE SMOOTH",
"450 60 OFFCURVE",
"430 45 OFFCURVE",
"440 31 CURVE SMOOTH",
"453 14 OFFCURVE",
"460 6 OFFCURVE",
"472 -4 CURVE SMOOTH",
"484 -15 OFFCURVE",
"501 3 OFFCURVE",
"488 14 CURVE SMOOTH"
);
},
{
closed = 1;
nodes = (
"455 -54 OFFCURVE",
"438 -40 OFFCURVE",
"428 -19 CURVE SMOOTH",
"421 -4 OFFCURVE",
"399 -14 OFFCURVE",
"406 -29 CURVE SMOOTH",
"416 -52 OFFCURVE",
"434 -67 OFFCURVE",
"449 -87 CURVE SMOOTH",
"460 -100 OFFCURVE",
"479 -84 OFFCURVE",
"469 -71 CURVE SMOOTH"
);
},
{
closed = 1;
nodes = (
"366 -118 OFFCURVE",
"361 -82 OFFCURVE",
"352 -47 CURVE SMOOTH",
"348 -31 OFFCURVE",
"324 -37 OFFCURVE",
"328 -53 CURVE SMOOTH",
"337 -89 OFFCURVE",
"343 -127 OFFCURVE",
"359 -161 CURVE SMOOTH",
"366 -176 OFFCURVE",
"388 -166 OFFCURVE",
"381 -151 CURVE SMOOTH"
);
},
{
closed = 1;
nodes = (
"277 -149 OFFCURVE",
"263 -107 OFFCURVE",
"263 -63 CURVE SMOOTH",
"263 -46 OFFCURVE",
"238 -46 OFFCURVE",
"238 -63 CURVE SMOOTH",
"238 -104 OFFCURVE",
"252 -146 OFFCURVE",
"244 -187 CURVE SMOOTH",
"240 -204 OFFCURVE",
"265 -209 OFFCURVE",
"268 -193 CURVE SMOOTH"
);
},
{
closed = 1;
nodes = (
"171 -34 OFFCURVE",
"146 -33 OFFCURVE",
"146 -49 CURVE SMOOTH",
"144 -83 OFFCURVE",
"131 -112 OFFCURVE",
"125 -145 CURVE SMOOTH",
"121 -161 OFFCURVE",
"146 -166 OFFCURVE",
"149 -149 CURVE SMOOTH",
"156 -114 OFFCURVE",
"169 -89 OFFCURVE",
"170 -51 CURVE SMOOTH"
);
},
{
closed = 1;
nodes = (
"83 -19 OFFCURVE",
"60 -9 OFFCURVE",
"54 -24 CURVE SMOOTH",
"36 -65 OFFCURVE",
"11 -100 OFFCURVE",
"2 -144 CURVE SMOOTH",
"-2 -161 OFFCURVE",
"23 -166 OFFCURVE",
"26 -150 CURVE SMOOTH",
"35 -108 OFFCURVE",
"59 -73 OFFCURVE",
"76 -34 CURVE SMOOTH"
);
}
);
width = 492;
}
);
note = G;
unicode = 0047;
},
{
glyphname = H;
layers = (
{
hints = (
{
horizontal = 1;
place = "{-5, 44}";
type = Stem;
},
{
horizontal = 1;
place = "{193, 49}";
type = Stem;
},
{
horizontal = 1;
place = "{284, 38}";
type = Stem;
},
{
horizontal = 1;
place = "{360, 22}";
type = Stem;
},
{
horizontal = 1;
place = "{516, 27}";
type = Stem;
},
{
place = "{28, 17}";
type = Stem;
},
{
place = "{98, 23}";
type = Stem;
},
{
place = "{147, 34}";
type = Stem;
},
{
place = "{258, 36}";
type = Stem;
},
{
place = "{323, 36}";
type = Stem;
},
{
place = "{464, 32}";
type = Stem;
},
{
place = "{652, 23}";
type = Stem;
}
);
layerId = "9537DB68-ED58-4774-880B-66DB18EF27AD";
paths = (
{
closed = 1;
nodes = (
"682 377 OFFCURVE",
"680 413 OFFCURVE",
"640 423 CURVE SMOOTH",
"629 426 OFFCURVE",
"625 410 OFFCURVE",
"636 407 CURVE SMOOTH",
"661 400 OFFCURVE",
"651 375 OFFCURVE",
"639 352 CURVE SMOOTH",
"622 317 OFFCURVE",
"593 292 OFFCURVE",
"558 280 CURVE",
"558 316 OFFCURVE",
"559 347 OFFCURVE",
"564 382 CURVE SMOOTH",
"571 437 OFFCURVE",
"571 536 OFFCURVE",
"623 573 CURVE SMOOTH",
"637 583 OFFCURVE",
"622 603 OFFCURVE",
"608 593 CURVE SMOOTH",
"523 532 OFFCURVE",
"512 375 OFFCURVE",
"511 274 CURVE",
"495 274 OFFCURVE",
"482 283 OFFCURVE",
"468 289 CURVE SMOOTH",
"428 305 OFFCURVE",
"383 306 OFFCURVE",
"341 315 CURVE SMOOTH",
"314 320 OFFCURVE",
"280 322 OFFCURVE",
"255 322 CURVE SMOOTH",
"243 322 LINE",
"236 374 OFFCURVE",
"220 428 OFFCURVE",
"199 472 CURVE SMOOTH",
"168 537 OFFCURVE",
"137 550 OFFCURVE",
"77 529 CURVE SMOOTH",
"40 516 OFFCURVE",
"26 463 OFFCURVE",
"27 432 CURVE SMOOTH",
"27 414 OFFCURVE",
"32 377 OFFCURVE",
"62 367 CURVE SMOOTH",
"68 365 OFFCURVE",
"73 360 OFFCURVE",
"80 360 CURVE SMOOTH",
"92 360 OFFCURVE",
"114 375 OFFCURVE",
"119 394 CURVE SMOOTH",
"124 412 OFFCURVE",
"114 435 OFFCURVE",
"103 448 CURVE SMOOTH",
"95 457 OFFCURVE",
"82 446 OFFCURVE",
"89 437 CURVE SMOOTH",
"103 421 OFFCURVE",
"99 382 OFFCURVE",
"80 382 CURVE SMOOTH",
"75 382 OFFCURVE",
"71 382 OFFCURVE",
"66 383 CURVE",
"50 389 OFFCURVE",
"45 413 OFFCURVE",
"45 433 CURVE SMOOTH",
"45 463 OFFCURVE",
"58 504 OFFCURVE",
"83 513 CURVE SMOOTH",
"137 533 OFFCURVE",
"139 488 OFFCURVE",
"157 451 CURVE SMOOTH",
"176 411 OFFCURVE",
"189 362 OFFCURVE",
"194 315 CURVE",
"174 310 OFFCURVE",
"154 303 OFFCURVE",
"131 294 CURVE SMOOTH",
"106 284 OFFCURVE",
"95 271 OFFCURVE",
"86 240 CURVE SMOOTH",
"83 229 OFFCURVE",
"99 224 OFFCURVE",
"102 235 CURVE SMOOTH",
"109 258 OFFCURVE",
"122 262 OFFCURVE",
"140 269 CURVE SMOOTH",
"160 276 OFFCURVE",
"177 280 OFFCURVE",
"194 282 CURVE",
"195 276 LINE",
"196 201 OFFCURVE",
"182 39 OFFCURVE",
"95 39 CURVE SMOOTH",
"69 39 OFFCURVE",
"49 59 OFFCURVE",
"45 82 CURVE SMOOTH",
"39 110 OFFCURVE",
"-1 103 OFFCURVE",
"4 76 CURVE SMOOTH",
"12 33 OFFCURVE",
"48 -5 OFFCURVE",
"96 -5 CURVE SMOOTH",
"203 -5 OFFCURVE",
"247 183 OFFCURVE",
"246 276 CURVE",
"245 284 LINE",
"255 284 LINE SMOOTH",
"278 284 OFFCURVE",
"308 277 OFFCURVE",
"332 272 CURVE SMOOTH",
"372 263 OFFCURVE",
"396 262 OFFCURVE",
"436 254 CURVE SMOOTH",
"465 248 OFFCURVE",
"477 234 OFFCURVE",
"510 233 CURVE",
"510 138 OFFCURVE",
"512 -54 OFFCURVE",
"633 -34 CURVE",
"648 -30 OFFCURVE",
"644 -6 OFFCURVE",
"628 -9 CURVE SMOOTH",
"584 -16 OFFCURVE",
"579 28 OFFCURVE",
"569 67 CURVE SMOOTH",
"556 122 OFFCURVE",
"557 182 OFFCURVE",
"557 239 CURVE",
"575 246 OFFCURVE",
"591 255 OFFCURVE",
"607 265 CURVE SMOOTH",
"621 272 OFFCURVE",
"647 307 OFFCURVE",
"664 340 CURVE SMOOTH"
);
},
{
closed = 1;
nodes = (
"279 255 OFFCURVE",
"268 246 OFFCURVE",
"268 234 CURVE SMOOTH",
"268 223 OFFCURVE",
"279 214 OFFCURVE",
"292 214 CURVE SMOOTH",
"304 214 OFFCURVE",
"315 223 OFFCURVE",
"315 235 CURVE SMOOTH",
"314 246 OFFCURVE",
"303 255 OFFCURVE",
"291 255 CURVE SMOOTH"
);
},
{
closed = 1;
nodes = (
"265 178 OFFCURVE",
"255 169 OFFCURVE",
"255 157 CURVE SMOOTH",
"255 146 OFFCURVE",
"265 137 OFFCURVE",
"277 137 CURVE SMOOTH",
"289 137 OFFCURVE",
"299 146 OFFCURVE",
"299 158 CURVE SMOOTH",
"298 169 OFFCURVE",
"288 178 OFFCURVE",
"277 178 CURVE SMOOTH"
);
},
{
closed = 1;
nodes = (
"229 9 LINE",
"229 21 OFFCURVE",
"220 30 OFFCURVE",
"209 30 CURVE SMOOTH",
"198 30 OFFCURVE",
"188 21 OFFCURVE",
"188 9 CURVE SMOOTH",
"188 -2 OFFCURVE",
"198 -11 OFFCURVE",
"209 -11 CURVE SMOOTH",
"220 -11 OFFCURVE",
"230 -2 OFFCURVE",
"230 10 CURVE"
);
},
{
closed = 1;
nodes = (
"230 538 OFFCURVE",
"221 547 OFFCURVE",
"210 547 CURVE SMOOTH",
"200 547 OFFCURVE",
"191 538 OFFCURVE",
"191 526 CURVE SMOOTH",
"191 515 OFFCURVE",
"200 506 OFFCURVE",
"211 506 CURVE SMOOTH",
"221 506 OFFCURVE",
"230 515 OFFCURVE",
"230 527 CURVE SMOOTH"
);
},
{
closed = 1;
nodes = (
"270 85 OFFCURVE",
"262 94 OFFCURVE",
"253 94 CURVE SMOOTH",
"244 94 OFFCURVE",
"236 85 OFFCURVE",
"236 75 CURVE SMOOTH",
"236 65 OFFCURVE",
"244 56 OFFCURVE",
"253 56 CURVE SMOOTH",
"262 56 OFFCURVE",
"270 65 OFFCURVE",
"270 75 CURVE SMOOTH"
);
},
{
closed = 1;
nodes = (
"292 402 OFFCURVE",
"285 410 OFFCURVE",
"275 410 CURVE SMOOTH",
"266 410 OFFCURVE",
"259 402 OFFCURVE",
"259 392 CURVE SMOOTH",
"259 382 OFFCURVE",
"266 374 OFFCURVE",
"276 374 CURVE SMOOTH",
"285 374 OFFCURVE",
"292 382 OFFCURVE",
"292 392 CURVE SMOOTH"
);
},
{
closed = 1;
nodes = (
"241 478 OFFCURVE",
"235 471 OFFCURVE",
"235 462 CURVE SMOOTH",
"235 454 OFFCURVE",
"241 447 OFFCURVE",
"248 447 CURVE SMOOTH",
"255 447 OFFCURVE",
"261 454 OFFCURVE",
"261 463 CURVE SMOOTH",
"260 471 OFFCURVE",
"254 478 OFFCURVE",
"248 478 CURVE SMOOTH"
);
}
);
width = 644;
}
);
note = H;
unicode = 0048;
},
{
glyphname = I;
layers = (
{
hints = (
{
horizontal = 1;
place = "{-52, 28}";
type = Stem;
},
{
horizontal = 1;
place = "{55, 23}";
type = Stem;
},
{
horizontal = 1;
place = "{228, 20}";
type = Stem;
},
{
horizontal = 1;
place = "{427, 18}";
type = Stem;
},
{
place = "{30, 17}";
type = Stem;
},
{
place = "{86, 22}";
type = Stem;
},
{
place = "{116, 21}";
type = Stem;
},
{
place = "{166, 21}";
type = Stem;
},
{
place = "{232, 22}";
type = Stem;
}
);
layerId = "9537DB68-ED58-4774-880B-66DB18EF27AD";
paths = (
{
closed = 1;
nodes = (
"314 548 OFFCURVE",
"290 554 OFFCURVE",
"286 538 CURVE SMOOTH",
"285 535 OFFCURVE",
"282 530 OFFCURVE",
"268 530 CURVE SMOOTH",
"212 530 OFFCURVE",
"112 597 OFFCURVE",
"71 520 CURVE SMOOTH",
"63 505 OFFCURVE",
"85 493 OFFCURVE",
"93 508 CURVE SMOOTH",
"110 540 OFFCURVE",
"152 534 OFFCURVE",
"193 524 CURVE",
"192 523 LINE SMOOTH",
"152 485 OFFCURVE",
"123 446 OFFCURVE",
"123 384 CURVE SMOOTH",
"123 294 OFFCURVE",
"157 240 OFFCURVE",
"180 159 CURVE SMOOTH",
"183 148 OFFCURVE",
"181 138 OFFCURVE",
"177 127 CURVE SMOOTH",
"157 77 OFFCURVE",
"163 94 OFFCURVE",
"163 39 CURVE SMOOTH",
"163 35 LINE",
"138 45 OFFCURVE",
"111 48 OFFCURVE",
"68 43 CURVE SMOOTH",
"51 42 OFFCURVE",
"54 17 OFFCURVE",
"70 19 CURVE SMOOTH",
"112 23 OFFCURVE",
"129 21 OFFCURVE",
"166 6 CURVE SMOOTH",
"213 -12 OFFCURVE",
"246 -62 OFFCURVE",
"302 -41 CURVE SMOOTH",
"318 -35 OFFCURVE",
"309 -11 OFFCURVE",
"294 -17 CURVE SMOOTH",
"274 -25 OFFCURVE",
"258 -20 OFFCURVE",
"241 -9 CURVE SMOOTH",
"217 6 OFFCURVE",
"198 18 OFFCURVE",
"180 27 CURVE",
"184 29 OFFCURVE",
"188 33 OFFCURVE",
"188 39 CURVE SMOOTH",
"188 47 OFFCURVE",
"187 56 OFFCURVE",
"186 66 CURVE SMOOTH",
"185 105 OFFCURVE",
"215 125 OFFCURVE",
"204 165 CURVE SMOOTH",
"182 244 OFFCURVE",
"180 297 OFFCURVE",
"180 383 CURVE SMOOTH",
"180 435 OFFCURVE",
"172 467 OFFCURVE",
"210 505 CURVE SMOOTH",
"214 509 OFFCURVE",
"214 514 OFFCURVE",
"213 518 CURVE",
"235 512 OFFCURVE",
"255 505 OFFCURVE",
"268 505 CURVE SMOOTH",
"286 505 OFFCURVE",
"305 511 OFFCURVE",
"310 532 CURVE SMOOTH"
);
},
{
closed = 1;
nodes = (
"121 201 OFFCURVE",
"112 191 OFFCURVE",
"112 179 CURVE SMOOTH",
"112 168 OFFCURVE",
"121 158 OFFCURVE",
"131 158 CURVE SMOOTH",
"141 158 OFFCURVE",
"150 168 OFFCURVE",
"150 180 CURVE SMOOTH",
"149 191 OFFCURVE",
"140 201 OFFCURVE",
"131 201 CURVE SMOOTH"
);
},
{
closed = 1;
nodes = (
"116 460 OFFCURVE",
"107 467 OFFCURVE",
"95 467 CURVE SMOOTH",
"83 467 OFFCURVE",
"74 460 OFFCURVE",
"74 450 CURVE SMOOTH",
"74 441 OFFCURVE",
"83 434 OFFCURVE",
"95 434 CURVE SMOOTH",
"107 434 OFFCURVE",
"116 441 OFFCURVE",
"116 451 CURVE SMOOTH"
);
},
{
closed = 1;
nodes = (
"112 331 OFFCURVE",
"104 340 OFFCURVE",
"95 340 CURVE SMOOTH",
"86 340 OFFCURVE",
"78 331 OFFCURVE",
"78 321 CURVE SMOOTH",
"78 311 OFFCURVE",
"86 302 OFFCURVE",
"95 302 CURVE SMOOTH",
"104 302 OFFCURVE",
"112 311 OFFCURVE",
"112 321 CURVE SMOOTH"
);
},
{
closed = 1;
nodes = (
"129 254 OFFCURVE",
"120 260 OFFCURVE",
"108 260 CURVE SMOOTH",
"96 260 OFFCURVE",
"87 254 OFFCURVE",
"87 247 CURVE SMOOTH",
"87 240 OFFCURVE",
"96 234 OFFCURVE",
"108 234 CURVE SMOOTH",
"120 234 OFFCURVE",
"129 240 OFFCURVE",
"129 247 CURVE SMOOTH"
);
},
{
closed = 1;
nodes = (
"146 105 OFFCURVE",
"138 112 OFFCURVE",
"129 112 CURVE SMOOTH",
"120 112 OFFCURVE",
"112 105 OFFCURVE",
"112 97 CURVE SMOOTH",
"112 89 OFFCURVE",
"120 82 OFFCURVE",
"129 82 CURVE SMOOTH",
"138 82 OFFCURVE",
"146 89 OFFCURVE",
"146 97 CURVE SMOOTH"
);
},
{
closed = 1;
nodes = (
"104 392 OFFCURVE",
"97 400 OFFCURVE",
"89 400 CURVE SMOOTH",
"81 400 OFFCURVE",
"74 392 OFFCURVE",
"74 383 CURVE SMOOTH",
"74 374 OFFCURVE",
"81 366 OFFCURVE",
"89 366 CURVE SMOOTH",
"97 366 OFFCURVE",
"104 374 OFFCURVE",
"104 383 CURVE SMOOTH"
);
}
);
width = 315;
}
);
note = I;
unicode = 0049;
},
{
glyphname = J;
layers = (
{
hints = (
{
horizontal = 1;
place = "{-20, 41}";
type = Stem;
},
{
horizontal = 1;
place = "{105, 28}";
type = Stem;
},
{
horizontal = 1;
place = "{315, 19}";
type = Stem;
},
{
horizontal = 1;
place = "{581, 22}";
type = Stem;
},
{
place = "{4, 21}";
type = Stem;
},
{
place = "{67, 18}";
type = Stem;
},
{
place = "{162, 23}";
type = Stem;
},
{
place = "{244, 18}";
type = Stem;
},
{
place = "{345, 16}";
type = Stem;
}
);
layerId = "9537DB68-ED58-4774-880B-66DB18EF27AD";
paths = (
{
closed = 1;
nodes = (
"360 647 OFFCURVE",
"344 647 OFFCURVE",
"344 636 CURVE SMOOTH",
"344 600 OFFCURVE",
"318 602 OFFCURVE",
"290 602 CURVE",
"288 606 OFFCURVE",
"283 607 OFFCURVE",
"279 604 CURVE SMOOTH",
"277 603 LINE",
"152 603 LINE SMOOTH",
"127 603 OFFCURVE",
"109 602 OFFCURVE",
"88 588 CURVE SMOOTH",
"75 579 OFFCURVE",
"67 570 OFFCURVE",
"67 551 CURVE SMOOTH",
"67 541 OFFCURVE",
"73 536 OFFCURVE",
"78 527 CURVE SMOOTH",
"83 517 OFFCURVE",
"98 525 OFFCURVE",
"93 535 CURVE SMOOTH",
"90 540 OFFCURVE",
"85 546 OFFCURVE",
"85 552 CURVE SMOOTH",
"84 563 OFFCURVE",
"92 565 OFFCURVE",
"99 570 CURVE SMOOTH",
"116 581 OFFCURVE",
"131 580 OFFCURVE",
"152 580 CURVE SMOOTH",
"184 580 OFFCURVE",
"213 571 OFFCURVE",
"243 565 CURVE",
"232 550 OFFCURVE",
"224 532 OFFCURVE",
"223 512 CURVE SMOOTH",
"219 410 OFFCURVE",
"245 439 OFFCURVE",
"248 343 CURVE SMOOTH",
"248 328 OFFCURVE",
"254 318 OFFCURVE",
"254 304 CURVE SMOOTH",
"254 282 OFFCURVE",
"256 262 OFFCURVE",
"256 241 CURVE SMOOTH",
"255 193 OFFCURVE",
"220 143 OFFCURVE",
"188 113 CURVE SMOOTH",
"181 107 OFFCURVE",
"160 85 OFFCURVE",
"150 85 CURVE SMOOTH",
"87 85 OFFCURVE",
"43 178 OFFCURVE",
"37 230 CURVE SMOOTH",
"31 286 OFFCURVE",
"55 379 OFFCURVE",
"114 379 CURVE SMOOTH",
"158 379 OFFCURVE",
"172 316 OFFCURVE",
"174 283 CURVE SMOOTH",
"177 243 OFFCURVE",
"198 255 OFFCURVE",
"197 284 CURVE",
"206 357 OFFCURVE",
"168 398 OFFCURVE",
"113 398 CURVE SMOOTH",
"45 398 OFFCURVE",
"9 293 OFFCURVE",
"17 227 CURVE SMOOTH",
"24 163 OFFCURVE",
"72 44 OFFCURVE",
"150 44 CURVE SMOOTH",
"172 44 OFFCURVE",
"190 56 OFFCURVE",
"205 71 CURVE SMOOTH",
"217 83 LINE SMOOTH",
"253 119 OFFCURVE",
"273 186 OFFCURVE",
"274 241 CURVE SMOOTH",
"274 262 OFFCURVE",
"284 282 OFFCURVE",
"284 305 CURVE SMOOTH",
"284 319 OFFCURVE",
"282 329 OFFCURVE",
"282 345 CURVE SMOOTH",
"279 439 OFFCURVE",
"264 409 OFFCURVE",
"268 509 CURVE SMOOTH",
"269 527 OFFCURVE",
"269 546 OFFCURVE",
"273 562 CURVE",
"277 561 OFFCURVE",
"281 561 OFFCURVE",
"285 561 CURVE SMOOTH",
"315 561 OFFCURVE",
"333 581 OFFCURVE",
"351 599 CURVE SMOOTH",
"361 609 OFFCURVE",
"360 622 OFFCURVE",
"360 637 CURVE SMOOTH"
);
},
{
closed = 1;
nodes = (
"266 -67 OFFCURVE",
"243 -76 OFFCURVE",
"217 -76 CURVE SMOOTH",
"172 -76 OFFCURVE",
"131 -51 OFFCURVE",
"86 -51 CURVE SMOOTH",
"67 -51 OFFCURVE",
"57 -53 OFFCURVE",
"39 -55 CURVE SMOOTH",
"22 -56 OFFCURVE",
"25 -81 OFFCURVE",
"41 -79 CURVE SMOOTH",
"59 -77 OFFCURVE",
"69 -77 OFFCURVE",
"86 -77 CURVE SMOOTH",
"131 -77 OFFCURVE",
"171 -101 OFFCURVE",
"217 -101 CURVE SMOOTH",
"241 -101 OFFCURVE",
"264 -92 OFFCURVE",
"288 -96 CURVE SMOOTH",
"304 -99 OFFCURVE",
"309 -75 OFFCURVE",
"292 -72 CURVE SMOOTH"
);
},
{
closed = 1;
nodes = (
"310 8 OFFCURVE",
"301 32 OFFCURVE",
"286 26 CURVE SMOOTH",
"257 15 OFFCURVE",
"247 0 OFFCURVE",
"213 0 CURVE SMOOTH",
"178 0 OFFCURVE",
"150 5 OFFCURVE",
"117 5 CURVE SMOOTH",
"90 5 OFFCURVE",
"68 8 OFFCURVE",
"42 -5 CURVE SMOOTH",
"28 -12 OFFCURVE",
"39 -35 OFFCURVE",
"54 -27 CURVE SMOOTH",
"73 -17 OFFCURVE",
"96 -21 OFFCURVE",
"117 -21 CURVE SMOOTH",
"150 -21 OFFCURVE",
"178 -25 OFFCURVE",
"213 -25 CURVE SMOOTH",
"254 -25 OFFCURVE",
"262 -10 OFFCURVE",
"294 2 CURVE SMOOTH"
);
},
{
closed = 1;
nodes = (
"108 255 OFFCURVE",
"96 241 OFFCURVE",
"96 223 CURVE SMOOTH",
"96 206 OFFCURVE",
"108 192 OFFCURVE",
"124 192 CURVE SMOOTH",
"139 192 OFFCURVE",
"151 206 OFFCURVE",
"151 224 CURVE SMOOTH",
"150 241 OFFCURVE",
"138 255 OFFCURVE",
"123 255 CURVE SMOOTH"
);
}
);
width = 332;
}
);
note = J;
unicode = 004A;
},
{
glyphname = K;
layers = (
{
hints = (
{
horizontal = 1;
place = "{-62, 24}";
type = Stem;
},
{
horizontal = 1;
place = "{55, 19}";
type = Stem;
},
{
horizontal = 1;
place = "{114, 21}";
type = Stem;
},
{
horizontal = 1;
place = "{141, 19}";
type = Stem;
},
{
horizontal = 1;
place = "{332, 17}";
type = Stem;
},
{
horizontal = 1;
place = "{444, -20}";
target = down;
type = TopGhost;
},
{
horizontal = 1;
place = "{596, 28}";
type = Stem;
},
{
horizontal = 1;
place = "{641, 27}";
type = Stem;
},
{
place = "{16, 17}";
type = Stem;
},
{
place = "{112, 17}";
type = Stem;
},
{
place = "{174, 34}";
type = Stem;
},
{
place = "{460, 22}";
type = Stem;
},
{
place = "{562, 17}";
type = Stem;
}
);
layerId = "9537DB68-ED58-4774-880B-66DB18EF27AD";
paths = (
{
closed = 1;
nodes = (
"586 611 OFFCURVE",
"587 616 OFFCURVE",
"586 621 CURVE SMOOTH",
"582 650 OFFCURVE",
"564 667 OFFCURVE",
"535 667 CURVE SMOOTH",
"408 666 OFFCURVE",
"391 489 OFFCURVE",
"358 399 CURVE SMOOTH",
"352 382 OFFCURVE",
"335 333 OFFCURVE",
"314 302 CURVE",
"305 324 OFFCURVE",
"291 347 OFFCURVE",
"267 347 CURVE SMOOTH",
"258 348 OFFCURVE",
"250 341 OFFCURVE",
"245 336 CURVE SMOOTH",
"235 325 OFFCURVE",
"218 298 OFFCURVE",
"218 284 CURVE SMOOTH",
"218 272 OFFCURVE",
"227 236 OFFCURVE",
"249 236 CURVE SMOOTH",
"261 236 OFFCURVE",
"266 239 OFFCURVE",
"281 239 CURVE SMOOTH",
"291 239 OFFCURVE",
"301 244 OFFCURVE",
"311 252 CURVE",
"318 217 OFFCURVE",
"322 178 OFFCURVE",
"329 150 CURVE SMOOTH",
"339 107 OFFCURVE",
"348 65 OFFCURVE",
"377 29 CURVE SMOOTH",
"402 -2 OFFCURVE",
"443 -44 OFFCURVE",
"487 -44 CURVE SMOOTH",
"513 -44 OFFCURVE",
"529 -32 OFFCURVE",
"542 -18 CURVE SMOOTH",
"553 -5 OFFCURVE",
"559 12 OFFCURVE",
"566 26 CURVE SMOOTH",
"575 43 OFFCURVE",
"577 56 OFFCURVE",
"577 75 CURVE SMOOTH",
"578 116 OFFCURVE",
"554 160 OFFCURVE",
"513 159 CURVE SMOOTH",
"477 159 OFFCURVE",
"458 133 OFFCURVE",
"458 102 CURVE SMOOTH",
"458 76 OFFCURVE",
"479 52 OFFCURVE",
"503 53 CURVE SMOOTH",
"521 53 OFFCURVE",
"534 76 OFFCURVE",
"537 85 CURVE SMOOTH",
"540 96 OFFCURVE",
"524 101 OFFCURVE",
"521 90 CURVE SMOOTH",
"519 84 OFFCURVE",
"512 72 OFFCURVE",
"502 72 CURVE SMOOTH",
"489 73 OFFCURVE",
"480 88 OFFCURVE",
"480 103 CURVE SMOOTH",
"480 122 OFFCURVE",
"491 139 OFFCURVE",
"513 139 CURVE SMOOTH",
"544 140 OFFCURVE",
"559 107 OFFCURVE",
"560 76 CURVE SMOOTH",
"560 59 OFFCURVE",
"552 49 OFFCURVE",
"545 36 CURVE SMOOTH",
"532 11 OFFCURVE",
"519 -10 OFFCURVE",
"488 -10 CURVE SMOOTH",
"453 -10 OFFCURVE",
"427 28 OFFCURVE",
"408 52 CURVE SMOOTH",
"382 85 OFFCURVE",
"363 118 OFFCURVE",
"354 156 CURVE SMOOTH",
"345 192 OFFCURVE",
"336 228 OFFCURVE",
"325 266 CURVE",
"342 285 OFFCURVE",
"357 309 OFFCURVE",
"364 323 CURVE SMOOTH",
"408 404 OFFCURVE",
"425 496 OFFCURVE",
"472 576 CURVE SMOOTH",
"488 602 OFFCURVE",
"500 641 OFFCURVE",
"534 640 CURVE SMOOTH",
"550 640 OFFCURVE",
"561 632 OFFCURVE",
"563 617 CURVE",
"564 615 OFFCURVE",
"567 609 OFFCURVE",
"567 607 CURVE SMOOTH",
"568 595 OFFCURVE",
"562 587 OFFCURVE",
"556 577 CURVE SMOOTH",
"550 567 OFFCURVE",
"565 558 OFFCURVE",
"571 568 CURVE SMOOTH",
"578 582 OFFCURVE",
"587 590 OFFCURVE",
"587 607 CURVE"
);
},
{
closed = 1;
nodes = (
"311 644 OFFCURVE",
"286 645 OFFCURVE",
"286 629 CURVE SMOOTH",
"284 598 OFFCURVE",
"253 603 OFFCURVE",
"230 603 CURVE SMOOTH",
"211 603 OFFCURVE",
"192 606 OFFCURVE",
"174 610 CURVE",
"151 637 OFFCURVE",
"130 644 OFFCURVE",
"134 619 CURVE",
"115 623 OFFCURVE",
"96 627 OFFCURVE",
"77 627 CURVE SMOOTH",
"55 627 OFFCURVE",
"45 625 OFFCURVE",
"24 613 CURVE SMOOTH",
"10 604 OFFCURVE",
"23 583 OFFCURVE",
"38 591 CURVE SMOOTH",
"53 601 OFFCURVE",
"59 601 OFFCURVE",
"77 601 CURVE SMOOTH",
"99 601 OFFCURVE",
"121 597 OFFCURVE",
"143 592 CURVE",
"158 563 LINE SMOOTH",
"188 511 OFFCURVE",
"179 428 OFFCURVE",
"179 370 CURVE SMOOTH",
"179 306 OFFCURVE",
"177 268 OFFCURVE",
"173 205 CURVE SMOOTH",
"171 167 OFFCURVE",
"153 -38 OFFCURVE",
"88 -38 CURVE SMOOTH",
"53 -38 OFFCURVE",
"31 18 OFFCURVE",
"32 47 CURVE SMOOTH",
"32 74 OFFCURVE",
"44 107 OFFCURVE",
"65 114 CURVE SMOOTH",
"70 116 OFFCURVE",
"73 114 OFFCURVE",
"79 114 CURVE SMOOTH",
"104 113 OFFCURVE",
"103 81 OFFCURVE",
"94 63 CURVE SMOOTH",
"89 54 OFFCURVE",
"104 46 OFFCURVE",
"109 56 CURVE SMOOTH",
"124 85 OFFCURVE",
"119 135 OFFCURVE",
"78 135 CURVE SMOOTH",
"35 134 OFFCURVE",
"15 83 OFFCURVE",
"15 46 CURVE SMOOTH",
"15 9 OFFCURVE",
"44 -62 OFFCURVE",
"89 -62 CURVE SMOOTH",
"168 -62 OFFCURVE",
"204 153 OFFCURVE",
"207 203 CURVE SMOOTH",
"211 266 OFFCURVE",
"221 304 OFFCURVE",
"221 370 CURVE SMOOTH",
"221 405 OFFCURVE",
"223 442 OFFCURVE",
"221 478 CURVE SMOOTH",
"219 519 OFFCURVE",
"207 554 OFFCURVE",
"193 581 CURVE",
"205 579 OFFCURVE",
"217 577 OFFCURVE",
"230 577 CURVE SMOOTH",
"267 577 OFFCURVE",
"308 579 OFFCURVE",
"310 627 CURVE SMOOTH"
);
},
{
closed = 1;
nodes = (
"303 286 LINE",
"296 279 OFFCURVE",
"289 275 OFFCURVE",
"282 275 CURVE SMOOTH",
"267 275 OFFCURVE",
"262 274 OFFCURVE",
"250 274 CURVE SMOOTH",
"246 274 OFFCURVE",
"249 282 OFFCURVE",
"249 284 CURVE SMOOTH",
"249 293 OFFCURVE",
"245 302 OFFCURVE",
"249 311 CURVE SMOOTH",
"252 316 OFFCURVE",
"262 330 OFFCURVE",
"268 330 CURVE SMOOTH",
"276 331 OFFCURVE",
"284 325 OFFCURVE",
"291 313 CURVE SMOOTH",
"295 305 OFFCURVE",
"299 296 OFFCURVE",
"302 286 CURVE"
);
},
{
closed = 1;
nodes = (
"159 316 OFFCURVE",
"150 328 OFFCURVE",
"140 328 CURVE SMOOTH",
"130 328 OFFCURVE",
"121 316 OFFCURVE",
"121 300 CURVE SMOOTH",
"121 285 OFFCURVE",
"130 273 OFFCURVE",
"140 273 CURVE SMOOTH",
"150 273 OFFCURVE",
"158 284 OFFCURVE",
"159 300 CURVE SMOOTH"
);
},
{
closed = 1;
nodes = (
"150 224 OFFCURVE",
"141 234 OFFCURVE",
"129 234 CURVE SMOOTH",
"117 234 OFFCURVE",
"108 224 OFFCURVE",
"108 211 CURVE SMOOTH",
"108 198 OFFCURVE",
"117 188 OFFCURVE",
"129 188 CURVE SMOOTH",
"141 188 OFFCURVE",
"150 198 OFFCURVE",
"150 211 CURVE SMOOTH"
);
},
{
closed = 1;
nodes = (
"134 493 OFFCURVE",
"125 482 OFFCURVE",
"125 467 CURVE SMOOTH",
"125 453 OFFCURVE",
"134 442 OFFCURVE",
"144 442 CURVE SMOOTH",
"154 442 OFFCURVE",
"163 453 OFFCURVE",
"163 468 CURVE SMOOTH",
"162 482 OFFCURVE",
"154 493 OFFCURVE",
"144 493 CURVE SMOOTH"
);
},
{
closed = 1;
nodes = (
"154 560 OFFCURVE",
"144 569 OFFCURVE",
"131 569 CURVE SMOOTH",
"118 569 OFFCURVE",
"108 560 OFFCURVE",
"108 550 CURVE SMOOTH",
"108 540 OFFCURVE",
"118 531 OFFCURVE",
"131 531 CURVE SMOOTH",
"144 531 OFFCURVE",
"154 540 OFFCURVE",
"154 550 CURVE SMOOTH"
);
},
{
closed = 1;
nodes = (
"163 395 OFFCURVE",
"154 404 OFFCURVE",
"144 404 CURVE SMOOTH",
"134 404 OFFCURVE",
"125 395 OFFCURVE",
"125 385 CURVE SMOOTH",
"125 375 OFFCURVE",
"134 366 OFFCURVE",
"144 366 CURVE SMOOTH",
"154 366 OFFCURVE",
"163 375 OFFCURVE",
"163 385 CURVE SMOOTH"
);
}
);
width = 576;
}
);
note = K;
unicode = 004B;
},
{
glyphname = L;
layers = (
{
hints = (
{
horizontal = 1;
place = "{-39, 34}";
type = Stem;
},
{
horizontal = 1;
place = "{78, 25}";
type = Stem;
},
{
horizontal = 1;
place = "{136, 25}";
type = Stem;
},
{
horizontal = 1;
place = "{252, 24}";
type = Stem;
},
{
horizontal = 1;
place = "{628, 48}";
type = Stem;
},
{
place = "{12, 24}";
type = Stem;
},
{
place = "{229, 34}";
type = Stem;
},
{
place = "{334, 25}";
type = Stem;
},
{
place = "{366, 36}";
type = Stem;
},
{
place = "{448, 21}";
type = Stem;
},
{
place = "{516, 41}";
type = Stem;
}
);
layerId = "9537DB68-ED58-4774-880B-66DB18EF27AD";
paths = (
{
closed = 1;
nodes = (
"557 169 OFFCURVE",
"526 239 OFFCURVE",
"482 264 CURVE SMOOTH",
"462 276 OFFCURVE",
"444 276 OFFCURVE",
"424 276 CURVE SMOOTH",
"366 276 OFFCURVE",
"332 210 OFFCURVE",
"333 159 CURVE SMOOTH",
"333 128 OFFCURVE",
"360 77 OFFCURVE",
"401 77 CURVE SMOOTH",
"446 78 OFFCURVE",
"467 111 OFFCURVE",
"468 153 CURVE SMOOTH",
"468 166 OFFCURVE",
"448 166 OFFCURVE",
"448 152 CURVE SMOOTH",
"447 124 OFFCURVE",
"431 104 OFFCURVE",
"399 103 CURVE SMOOTH",
"381 103 OFFCURVE",
"359 133 OFFCURVE",
"359 158 CURVE SMOOTH",
"358 198 OFFCURVE",
"379 252 OFFCURVE",
"423 252 CURVE SMOOTH",
"444 252 OFFCURVE",
"456 251 OFFCURVE",
"470 243 CURVE SMOOTH",
"506 223 OFFCURVE",
"515 159 OFFCURVE",
"515 114 CURVE SMOOTH",
"516 57 OFFCURVE",
"468 -8 OFFCURVE",
"408 -8 CURVE SMOOTH",
"367 -8 OFFCURVE",
"338 7 OFFCURVE",
"312 28 CURVE SMOOTH",
"288 46 OFFCURVE",
"266 67 OFFCURVE",
"242 85 CURVE",
"255 117 OFFCURVE",
"263 151 OFFCURVE",
"263 188 CURVE SMOOTH",
"263 243 OFFCURVE",
"258 258 OFFCURVE",
"250 313 CURVE",
"352 322 OFFCURVE",
"402 436 OFFCURVE",
"402 527 CURVE SMOOTH",
"402 568 OFFCURVE",
"401 625 OFFCURVE",
"368 653 CURVE SMOOTH",
"354 664 OFFCURVE",
"328 676 OFFCURVE",
"313 676 CURVE SMOOTH",
"294 676 OFFCURVE",
"268 652 OFFCURVE",
"256 636 CURVE SMOOTH",
"197 555 OFFCURVE",
"202 446 OFFCURVE",
"215 339 CURVE",
"184 349 OFFCURVE",
"165 374 OFFCURVE",
"146 399 CURVE",
"147 399 LINE",
"140 408 OFFCURVE",
"126 398 OFFCURVE",
"133 389 CURVE SMOOTH",
"144 375 OFFCURVE",
"152 358 OFFCURVE",
"164 345 CURVE SMOOTH",
"177 330 OFFCURVE",
"196 319 OFFCURVE",
"217 314 CURVE",
"224 256 OFFCURVE",
"229 239 OFFCURVE",
"229 188 CURVE SMOOTH",
"229 162 OFFCURVE",
"223 133 OFFCURVE",
"213 105 CURVE",
"180 125 OFFCURVE",
"133 160 OFFCURVE",
"96 160 CURVE SMOOTH",
"56 161 OFFCURVE",
"12 115 OFFCURVE",
"12 74 CURVE SMOOTH",
"12 11 OFFCURVE",
"81 -39 OFFCURVE",
"141 -39 CURVE SMOOTH",
"167 -39 OFFCURVE",
"180 -24 OFFCURVE",
"192 -5 CURVE SMOOTH",
"203 13 OFFCURVE",
"214 31 OFFCURVE",
"224 49 CURVE",
"280 5 OFFCURVE",
"319 -52 OFFCURVE",
"406 -52 CURVE SMOOTH",
"424 -52 OFFCURVE",
"443 -48 OFFCURVE",
"451 -45 CURVE SMOOTH",
"513 -24 OFFCURVE",
"558 51 OFFCURVE",
"557 114 CURVE SMOOTH"
);
},
{
closed = 1;
nodes = (
"366 469 OFFCURVE",
"351 410 OFFCURVE",
"314 370 CURVE SMOOTH",
"298 353 OFFCURVE",
"271 340 OFFCURVE",
"248 337 CURVE",
"241 390 OFFCURVE",
"236 444 OFFCURVE",
"243 498 CURVE SMOOTH",
"249 544 OFFCURVE",
"263 574 OFFCURVE",
"291 611 CURVE SMOOTH",
"296 618 OFFCURVE",
"306 628 OFFCURVE",
"313 628 CURVE SMOOTH",
"320 628 OFFCURVE",
"330 620 OFFCURVE",
"336 615 CURVE SMOOTH",
"360 595 OFFCURVE",
"366 556 OFFCURVE",
"366 527 CURVE SMOOTH"
);
},
{
closed = 1;
nodes = (
"197 69 LINE",
"190 54 OFFCURVE",
"182 41 OFFCURVE",
"174 30 CURVE SMOOTH",
"167 19 OFFCURVE",
"156 -5 OFFCURVE",
"141 -5 CURVE SMOOTH",
"95 -5 OFFCURVE",
"36 25 OFFCURVE",
"36 74 CURVE SMOOTH",
"36 110 OFFCURVE",
"60 134 OFFCURVE",
"97 135 CURVE SMOOTH",
"121 135 OFFCURVE",
"174 83 OFFCURVE",
"196 69 CURVE"
);
},
{
closed = 1;
nodes = (
"198 280 LINE",
"198 292 OFFCURVE",
"186 303 OFFCURVE",
"171 303 CURVE SMOOTH",
"156 303 OFFCURVE",
"143 292 OFFCURVE",
"143 279 CURVE SMOOTH",
"143 267 OFFCURVE",
"156 256 OFFCURVE",
"171 256 CURVE SMOOTH",
"186 256 OFFCURVE",
"199 267 OFFCURVE",
"199 280 CURVE"
);
},
{
closed = 1;
nodes = (
"193 203 OFFCURVE",
"182 213 OFFCURVE",
"167 213 CURVE SMOOTH",
"153 213 OFFCURVE",
"142 203 OFFCURVE",
"142 190 CURVE SMOOTH",
"142 177 OFFCURVE",
"153 167 OFFCURVE",
"168 167 CURVE SMOOTH",
"182 167 OFFCURVE",
"193 177 OFFCURVE",
"193 190 CURVE SMOOTH"
);
},
{
closed = 1;
nodes = (
"161 506 OFFCURVE",
"150 495 OFFCURVE",
"150 482 CURVE SMOOTH",
"150 470 OFFCURVE",
"161 459 OFFCURVE",
"174 459 CURVE SMOOTH",
"186 459 OFFCURVE",
"197 470 OFFCURVE",
"197 483 CURVE SMOOTH",
"196 495 OFFCURVE",
"185 506 OFFCURVE",
"173 506 CURVE SMOOTH"
);
},
{
closed = 1;
nodes = (
"201 580 OFFCURVE",
"190 590 OFFCURVE",
"177 590 CURVE SMOOTH",
"165 590 OFFCURVE",
"154 580 OFFCURVE",
"154 567 CURVE SMOOTH",
"154 554 OFFCURVE",
"165 544 OFFCURVE",
"178 544 CURVE SMOOTH",
"190 544 OFFCURVE",
"201 554 OFFCURVE",
"201 567 CURVE SMOOTH"
);
}
);
width = 574;
}
);
note = L;
unicode = 004C;
},
{
glyphname = M;
layers = (
{
hints = (
{
horizontal = 1;
place = "{-91, 31}";
type = Stem;
},
{
horizontal = 1;
place = "{-40, 25}";
type = Stem;
},
{
horizontal = 1;
place = "{58, 17}";
type = Stem;
},
{
horizontal = 1;
place = "{141, 24}";
type = Stem;
},
{
horizontal = 1;
place = "{174, 24}";
type = Stem;
},
{
horizontal = 1;
place = "{590, 30}";
type = Stem;
},
{
place = "{3, 27}";
type = Stem;
},
{
place = "{74, 17}";
type = Stem;
},
{
place = "{158, 17}";
type = Stem;
},
{
place = "{188, 26}";
type = Stem;
},
{
place = "{265, 52}";
type = Stem;
},
{
place = "{562, 34}";
type = Stem;
},
{
place = "{692, 17}";
type = Stem;
}
);
layerId = "9537DB68-ED58-4774-880B-66DB18EF27AD";
paths = (
{
closed = 1;
nodes = (
"710 83 OFFCURVE",
"702 116 OFFCURVE",
"689 137 CURVE SMOOTH",
"682 148 OFFCURVE",
"666 164 OFFCURVE",
"651 164 CURVE SMOOTH",
"625 165 OFFCURVE",
"610 142 OFFCURVE",
"608 123 CURVE SMOOTH",
"606 110 OFFCURVE",
"624 108 OFFCURVE",
"625 119 CURVE SMOOTH",
"627 130 OFFCURVE",
"637 140 OFFCURVE",
"651 140 CURVE",
"657 141 OFFCURVE",
"684 107 OFFCURVE",
"687 98 CURVE SMOOTH",
"689 92 OFFCURVE",
"693 63 OFFCURVE",
"693 60 CURVE SMOOTH",
"692 40 OFFCURVE",
"688 27 OFFCURVE",
"676 14 CURVE SMOOTH",
"669 6 OFFCURVE",
"636 -15 OFFCURVE",
"622 -15 CURVE SMOOTH",
"618 -15 OFFCURVE",
"615 -13 OFFCURVE",
"612 -11 CURVE SMOOTH",
"584 5 OFFCURVE",
"568 52 OFFCURVE",
"558 81 CURVE SMOOTH",
"543 127 OFFCURVE",
"542 172 OFFCURVE",
"535 227 CURVE SMOOTH",
"532 249 OFFCURVE",
"527 267 OFFCURVE",
"522 286 CURVE",
"565 370 OFFCURVE",
"596 456 OFFCURVE",
"596 560 CURVE SMOOTH",
"596 584 OFFCURVE",
"593 618 OFFCURVE",
"561 619 CURVE SMOOTH",
"534 619 OFFCURVE",
"519 598 OFFCURVE",
"511 580 CURVE SMOOTH",
"499 555 OFFCURVE",
"476 461 OFFCURVE",
"473 436 CURVE SMOOTH",
"469 405 OFFCURVE",
"465 374 OFFCURVE",
"467 341 CURVE SMOOTH",
"469 319 OFFCURVE",
"471 301 OFFCURVE",
"474 283 CURVE",
"426 204 LINE",
"426 205 LINE SMOOTH",
"394 389 OFFCURVE",
"298 535 OFFCURVE",
"210 645 CURVE SMOOTH",
"200 658 OFFCURVE",
"168 643 OFFCURVE",
"178 629 CURVE SMOOTH",
"298 452 OFFCURVE",
"361 400 OFFCURVE",
"400 173 CURVE SMOOTH",
"401 163 LINE",
"397 156 OFFCURVE",
"392 150 OFFCURVE",
"387 143 CURVE SMOOTH",
"384 137 OFFCURVE",
"380 132 OFFCURVE",
"376 126 CURVE",
"374 141 OFFCURVE",
"370 155 OFFCURVE",
"367 169 CURVE SMOOTH",
"355 231 OFFCURVE",
"275 431 OFFCURVE",
"226 506 CURVE SMOOTH",
"207 536 OFFCURVE",
"184 522 OFFCURVE",
"197 493 CURVE SMOOTH",
"224 432 OFFCURVE",
"227 422 OFFCURVE",
"255 363 CURVE",
"250 338 OFFCURVE",
"244 312 OFFCURVE",
"239 285 CURVE SMOOTH",
"226 207 OFFCURVE",
"206 81 OFFCURVE",
"169 14 CURVE SMOOTH",
"152 -17 OFFCURVE",
"134 -60 OFFCURVE",
"92 -60 CURVE SMOOTH",
"45 -60 OFFCURVE",
"30 -25 OFFCURVE",
"30 27 CURVE SMOOTH",
"30 80 OFFCURVE",
"45 124 OFFCURVE",
"78 161 CURVE SMOOTH",
"86 169 OFFCURVE",
"89 174 OFFCURVE",
"102 174 CURVE SMOOTH",
"124 174 OFFCURVE",
"158 157 OFFCURVE",
"158 132 CURVE SMOOTH",
"158 106 OFFCURVE",
"133 75 OFFCURVE",
"112 75 CURVE SMOOTH",
"99 75 OFFCURVE",
"91 80 OFFCURVE",
"91 90 CURVE SMOOTH",
"91 100 OFFCURVE",
"103 112 OFFCURVE",
"114 114 CURVE SMOOTH",
"125 115 OFFCURVE",
"123 132 OFFCURVE",
"112 130 CURVE SMOOTH",
"94 128 OFFCURVE",
"74 110 OFFCURVE",
"74 90 CURVE SMOOTH",
"74 65 OFFCURVE",
"96 58 OFFCURVE",
"112 58 CURVE SMOOTH",
"146 58 OFFCURVE",
"175 101 OFFCURVE",
"175 133 CURVE SMOOTH",
"175 154 OFFCURVE",
"156 183 OFFCURVE",
"142 189 CURVE SMOOTH",
"130 195 OFFCURVE",
"116 198 OFFCURVE",
"101 198 CURVE SMOOTH",
"85 198 OFFCURVE",
"77 195 OFFCURVE",
"67 185 CURVE SMOOTH",
"24 142 OFFCURVE",
"3 87 OFFCURVE",
"3 27 CURVE SMOOTH",
"3 -43 OFFCURVE",
"28 -88 OFFCURVE",
"90 -89 CURVE",
"90 -88 LINE",
"94 -90 OFFCURVE",
"99 -91 OFFCURVE",
"103 -91 CURVE SMOOTH",
"134 -91 OFFCURVE",
"185 -31 OFFCURVE",
"199 -5 CURVE SMOOTH",
"239 68 OFFCURVE",
"275 191 OFFCURVE",
"290 273 CURVE",
"303 237 OFFCURVE",
"315 199 OFFCURVE",
"323 160 CURVE SMOOTH",
"328 134 OFFCURVE",
"342 109 OFFCURVE",
"343 82 CURVE",
"347 67 LINE",
"335 39 OFFCURVE",
"329 9 OFFCURVE",
"334 -18 CURVE SMOOTH",
"336 -30 OFFCURVE",
"359 -36 OFFCURVE",
"367 -27 CURVE SMOOTH",
"385 -8 OFFCURVE",
"386 21 OFFCURVE",
"385 48 CURVE",
"392 65 OFFCURVE",
"400 81 OFFCURVE",
"410 96 CURVE",
"415 41 OFFCURVE",
"417 -13 OFFCURVE",
"417 -71 CURVE SMOOTH",
"417 -88 OFFCURVE",
"442 -88 OFFCURVE",
"442 -71 CURVE SMOOTH",
"442 -8 OFFCURVE",
"441 66 OFFCURVE",
"435 133 CURVE",
"456 166 LINE SMOOTH",
"466 182 OFFCURVE",
"475 198 OFFCURVE",
"484 214 CURVE",
"491 159 OFFCURVE",
"505 116 OFFCURVE",
"521 68 CURVE SMOOTH",
"530 40 OFFCURVE",
"576 -40 OFFCURVE",
"621 -40 CURVE SMOOTH",
"640 -40 OFFCURVE",
"679 -8 OFFCURVE",
"689 3 CURVE SMOOTH",
"705 20 OFFCURVE",
"710 37 OFFCURVE",
"710 60 CURVE SMOOTH"
);
},
{
closed = 1;
nodes = (
"563 590 OFFCURVE",
"561 587 OFFCURVE",
"561 585 CURVE",
"563 577 OFFCURVE",
"561 569 OFFCURVE",
"561 561 CURVE SMOOTH",
"562 549 OFFCURVE",
"560 549 OFFCURVE",
"559 536 CURVE SMOOTH",
"553 464 OFFCURVE",
"536 408 OFFCURVE",
"512 355 CURVE",
"511 355 LINE",
"509 381 OFFCURVE",
"508 406 OFFCURVE",
"512 431 CURVE SMOOTH",
"515 451 OFFCURVE",
"525 590 OFFCURVE",
"562 590 CURVE SMOOTH"
);
}
);
width = 704;
}
);
note = M;
unicode = 004D;
},
{
glyphname = N;
layers = (
{
hints = (
{
horizontal = 1;
place = "{-83, 32}";
type = Stem;
},
{
horizontal = 1;
place = "{175, 27}";
type = Stem;
},
{
horizontal = 1;
place = "{339, -20}";
target = down;
type = TopGhost;
},
{
horizontal = 1;
place = "{430, 17}";
type = Stem;
},
{
horizontal = 1;
place = "{595, 27}";
type = Stem;
},
{
place = "{25, 29}";
type = Stem;
},
{
place = "{172, 17}";
type = Stem;
},
{
place = "{221, 45}";
type = Stem;
},
{
place = "{454, 40}";
type = Stem;
},
{
place = "{551, 22}";
type = Stem;
},
{
place = "{616, 28}";
type = Stem;
}
);
layerId = "9537DB68-ED58-4774-880B-66DB18EF27AD";
paths = (
{
closed = 1;
nodes = (
"539 645 OFFCURVE",
"515 652 OFFCURVE",
"511 636 CURVE SMOOTH",
"478 514 OFFCURVE",
"503 352 OFFCURVE",
"483 220 CURVE",
"423 311 OFFCURVE",
"360 352 OFFCURVE",
"315 451 CURVE SMOOTH",
"256 582 OFFCURVE",
"192 675 OFFCURVE",
"116 637 CURVE SMOOTH",
"89 623 OFFCURVE",
"87 516 OFFCURVE",
"86 502 CURVE SMOOTH",
"82 396 OFFCURVE",
"103 289 OFFCURVE",
"103 183 CURVE SMOOTH",
"103 166 OFFCURVE",
"128 166 OFFCURVE",
"128 183 CURVE SMOOTH",
"128 276 OFFCURVE",
"124 391 OFFCURVE",
"127 484 CURVE SMOOTH",
"129 515 OFFCURVE",
"133 570 OFFCURVE",
"147 597 CURVE",
"219 592 OFFCURVE",
"245 463 OFFCURVE",
"278 409 CURVE SMOOTH",
"337 313 OFFCURVE",
"391 264 OFFCURVE",
"455 171 CURVE SMOOTH",
"545 40 OFFCURVE",
"526 597 OFFCURVE",
"535 629 CURVE SMOOTH"
);
},
{
closed = 1;
nodes = (
"481 99 OFFCURVE",
"470 102 OFFCURVE",
"459 103 CURVE SMOOTH",
"393 111 OFFCURVE",
"402 91 OFFCURVE",
"362 91 CURVE SMOOTH",
"317 91 OFFCURVE",
"270 119 OFFCURVE",
"212 119 CURVE SMOOTH",
"173 119 OFFCURVE",
"140 103 OFFCURVE",
"104 94 CURVE SMOOTH",
"88 90 OFFCURVE",
"94 66 OFFCURVE",
"110 70 CURVE SMOOTH",
"144 78 OFFCURVE",
"176 94 OFFCURVE",
"212 94 CURVE SMOOTH",
"262 94 OFFCURVE",
"294 51 OFFCURVE",
"346 51 CURVE SMOOTH",
"365 51 OFFCURVE",
"379 58 OFFCURVE",
"391 64 CURVE SMOOTH",
"438 88 OFFCURVE",
"440 78 OFFCURVE",
"491 74 CURVE SMOOTH",
"508 72 OFFCURVE",
"510 97 OFFCURVE",
"493 98 CURVE SMOOTH"
);
},
{
closed = 1;
nodes = (
"563 4 OFFCURVE",
"555 27 OFFCURVE",
"539 22 CURVE SMOOTH",
"498 8 OFFCURVE",
"474 31 OFFCURVE",
"435 31 CURVE SMOOTH",
"389 31 OFFCURVE",
"365 -4 OFFCURVE",
"326 -4 CURVE SMOOTH",
"292 -4 OFFCURVE",
"268 31 OFFCURVE",
"223 31 CURVE SMOOTH",
"183 31 OFFCURVE",
"152 19 OFFCURVE",
"116 5 CURVE SMOOTH",
"100 -1 OFFCURVE",
"109 -25 OFFCURVE",
"124 -19 CURVE SMOOTH",
"157 -6 OFFCURVE",
"187 6 OFFCURVE",
"223 6 CURVE SMOOTH",
"260 6 OFFCURVE",
"291 -45 OFFCURVE",
"332 -45 CURVE SMOOTH",
"378 -45 OFFCURVE",
"396 6 OFFCURVE",
"435 6 CURVE SMOOTH",
"477 6 OFFCURVE",
"496 -20 OFFCURVE",
"547 -2 CURVE SMOOTH"
);
}
);
width = 634;
}
);
note = N;
unicode = 004E;
},
{
glyphname = O;
layers = (
{
hints = (
{
horizontal = 1;
place = "{28, 39}";
type = Stem;
},
{
horizontal = 1;
place = "{125, 37}";
type = Stem;
},
{
horizontal = 1;
place = "{349, 24}";
type = Stem;
},
{
horizontal = 1;
place = "{472, -20}";
target = down;
type = TopGhost;
},
{
horizontal = 1;
place = "{509, 24}";
type = Stem;
},
{
horizontal = 1;
place = "{596, 24}";
type = Stem;
},
{
place = "{55, 36}";
type = Stem;
},
{
place = "{199, 22}";
type = Stem;
},
{
place = "{328, 22}";
type = Stem;
},
{
place = "{452, 30}";
type = Stem;
}
);
layerId = "9537DB68-ED58-4774-880B-66DB18EF27AD";
paths = (
{
closed = 1;
nodes = (
"482 404 OFFCURVE",
"467 434 OFFCURVE",
"449 466 CURVE SMOOTH",
"423 511 OFFCURVE",
"371 533 OFFCURVE",
"318 533 CURVE SMOOTH",
"287 533 OFFCURVE",
"246 507 OFFCURVE",
"227 483 CURVE SMOOTH",
"211 464 OFFCURVE",
"200 435 OFFCURVE",
"200 408 CURVE SMOOTH",
"200 369 OFFCURVE",
"229 349 OFFCURVE",
"265 349 CURVE SMOOTH",
"302 349 OFFCURVE",
"350 390 OFFCURVE",
"350 430 CURVE SMOOTH",
"350 449 OFFCURVE",
"326 472 OFFCURVE",
"307 472 CURVE SMOOTH",
"289 472 OFFCURVE",
"260 444 OFFCURVE",
"255 431 CURVE SMOOTH",
"245 401 OFFCURVE",
"281 393 OFFCURVE",
"268 417 CURVE SMOOTH",
"260 431 OFFCURVE",
"297 452 OFFCURVE",
"307 452 CURVE SMOOTH",
"316 452 OFFCURVE",
"327 440 OFFCURVE",
"327 430 CURVE SMOOTH",
"328 401 OFFCURVE",
"292 373 OFFCURVE",
"265 373 CURVE SMOOTH",
"242 373 OFFCURVE",
"222 383 OFFCURVE",
"222 407 CURVE SMOOTH",
"222 459 OFFCURVE",
"251 483 OFFCURVE",
"292 505 CURVE SMOOTH",
"301 510 OFFCURVE",
"309 509 OFFCURVE",
"319 509 CURVE SMOOTH",
"362 509 OFFCURVE",
"403 488 OFFCURVE",
"424 451 CURVE SMOOTH",
"439 424 OFFCURVE",
"451 398 OFFCURVE",
"451 362 CURVE SMOOTH",
"452 310 OFFCURVE",
"436 268 OFFCURVE",
"408 227 CURVE SMOOTH",
"382 189 OFFCURVE",
"320 162 OFFCURVE",
"274 162 CURVE SMOOTH",
"184 162 OFFCURVE",
"124 218 OFFCURVE",
"101 296 CURVE SMOOTH",
"95 316 OFFCURVE",
"91 332 OFFCURVE",
"91 356 CURVE SMOOTH",
"91 373 OFFCURVE",
"93 389 OFFCURVE",
"98 405 CURVE SMOOTH",
"124 497 OFFCURVE",
"142 542 OFFCURVE",
"229 587 CURVE SMOOTH",
"245 596 OFFCURVE",
"258 596 OFFCURVE",
"278 596 CURVE SMOOTH",
"325 596 OFFCURVE",
"370 575 OFFCURVE",
"403 542 CURVE SMOOTH",
"404 541 LINE SMOOTH",
"412 533 OFFCURVE",
"422 545 OFFCURVE",
"414 552 CURVE SMOOTH",
"401 565 OFFCURVE",
"392 583 OFFCURVE",
"376 593 CURVE SMOOTH",
"348 611 OFFCURVE",
"313 620 OFFCURVE",
"277 620 CURVE SMOOTH",
"254 620 OFFCURVE",
"239 618 OFFCURVE",
"219 607 CURVE SMOOTH",
"193 593 OFFCURVE",
"167 579 OFFCURVE",
"145 559 CURVE SMOOTH",
"100 520 OFFCURVE",
"55 419 OFFCURVE",
"55 356 CURVE SMOOTH",
"55 232 OFFCURVE",
"138 125 OFFCURVE",
"273 125 CURVE SMOOTH",
"329 125 OFFCURVE",
"404 162 OFFCURVE",
"436 208 CURVE SMOOTH",
"468 255 OFFCURVE",
"482 304 OFFCURVE",
"482 363 CURVE SMOOTH"
);
},
{
closed = 1;
nodes = (
"441 34 OFFCURVE",
"441 68 OFFCURVE",
"418 68 CURVE SMOOTH",
"401 68 OFFCURVE",
"391 69 OFFCURVE",
"373 69 CURVE SMOOTH",
"369 69 OFFCURVE",
"367 71 OFFCURVE",
"365 72 CURVE SMOOTH",
"345 78 OFFCURVE",
"332 80 OFFCURVE",
"311 80 CURVE SMOOTH",
"301 81 OFFCURVE",
"290 80 OFFCURVE",
"275 80 CURVE SMOOTH",
"260 80 OFFCURVE",
"245 81 OFFCURVE",
"230 81 CURVE SMOOTH",
"208 81 OFFCURVE",
"185 59 OFFCURVE",
"167 59 CURVE SMOOTH",
"160 59 OFFCURVE",
"155 65 OFFCURVE",
"146 65 CURVE SMOOTH",
"127 65 OFFCURVE",
"108 49 OFFCURVE",
"96 34 CURVE SMOOTH",
"89 25 OFFCURVE",
"102 15 OFFCURVE",
"109 24 CURVE SMOOTH",
"118 35 OFFCURVE",
"133 45 OFFCURVE",
"146 45 CURVE SMOOTH",
"152 45 OFFCURVE",
"157 39 OFFCURVE",
"167 39 CURVE SMOOTH",
"190 39 OFFCURVE",
"207 49 OFFCURVE",
"230 49 CURVE SMOOTH",
"245 49 OFFCURVE",
"260 38 OFFCURVE",
"275 38 CURVE SMOOTH",
"311 38 LINE SMOOTH",
"335 38 OFFCURVE",
"352 29 OFFCURVE",
"372 29 CURVE SMOOTH",
"391 29 OFFCURVE",
"401 34 OFFCURVE",
"419 34 CURVE SMOOTH"
);
}
);
width = 576;
}
);
note = O;
unicode = 004F;
},
{
glyphname = P;
layers = (
{
hints = (
{
horizontal = 1;
place = "{-60, 40}";
type = Stem;
},
{
horizontal = 1;
place = "{186, 17}";
type = Stem;
},
{
horizontal = 1;
place = "{319, 17}";
type = Stem;
},
{
horizontal = 1;
place = "{622, 36}";
type = Stem;
},
{
place = "{31, 19}";
type = Stem;
},
{
place = "{130, 17}";
type = Stem;
},
{
place = "{149, 52}";
type = Stem;
},
{
place = "{228, 17}";
type = Stem;
},
{
place = "{471, 52}";
type = Stem;
}
);
layerId = "9537DB68-ED58-4774-880B-66DB18EF27AD";
paths = (
{
closed = 1;
nodes = (
"349 461 OFFCURVE",
"331 481 OFFCURVE",
"309 481 CURVE SMOOTH",
"287 481 OFFCURVE",
"269 461 OFFCURVE",
"269 438 CURVE SMOOTH",
"269 415 OFFCURVE",
"287 395 OFFCURVE",
"309 395 CURVE SMOOTH",
"331 395 OFFCURVE",
"349 415 OFFCURVE",
"349 438 CURVE SMOOTH"
);
},
{
closed = 1;
nodes = (
"522 517 OFFCURVE",
"482 583 OFFCURVE",
"415 626 CURVE SMOOTH",
"383 646 OFFCURVE",
"349 658 OFFCURVE",
"311 658 CURVE SMOOTH",
"200 658 OFFCURVE",
"20 517 OFFCURVE",
"33 392 CURVE",
"35 385 OFFCURVE",
"39 379 OFFCURVE",
"47 377 CURVE SMOOTH",
"70 372 OFFCURVE",
"93 391 OFFCURVE",
"104 415 CURVE SMOOTH",
"109 425 OFFCURVE",
"94 432 OFFCURVE",
"89 422 CURVE SMOOTH",
"82 409 OFFCURVE",
"69 400 OFFCURVE",
"56 402 CURVE",
"55 409 OFFCURVE",
"50 423 OFFCURVE",
"52 430 CURVE SMOOTH",
"63 472 OFFCURVE",
"93 513 OFFCURVE",
"132 546 CURVE",
"131 533 OFFCURVE",
"130 520 OFFCURVE",
"130 506 CURVE SMOOTH",
"129 454 OFFCURVE",
"127 408 OFFCURVE",
"136 364 CURVE SMOOTH",
"150 292 OFFCURVE",
"149 216 OFFCURVE",
"149 143 CURVE",
"142 101 OFFCURVE",
"138 59 OFFCURVE",
"123 19 CURVE",
"121 16 OFFCURVE",
"121 11 OFFCURVE",
"119 6 CURVE SMOOTH",
"118 2 OFFCURVE",
"112 -20 OFFCURVE",
"110 -20 CURVE SMOOTH",
"68 -20 OFFCURVE",
"48 69 OFFCURVE",
"49 101 CURVE SMOOTH",
"49 130 OFFCURVE",
"55 184 OFFCURVE",
"82 185 CURVE SMOOTH",
"94 185 OFFCURVE",
"96 160 OFFCURVE",
"98 151 CURVE SMOOTH",
"100 139 OFFCURVE",
"117 142 OFFCURVE",
"115 153 CURVE SMOOTH",
"111 173 OFFCURVE",
"108 203 OFFCURVE",
"81 203 CURVE SMOOTH",
"48 202 OFFCURVE",
"32 137 OFFCURVE",
"31 100 CURVE SMOOTH",
"31 77 OFFCURVE",
"31 62 OFFCURVE",
"37 39 CURVE SMOOTH",
"45 12 OFFCURVE",
"67 -60 OFFCURVE",
"110 -60 CURVE SMOOTH",
"140 -60 OFFCURVE",
"160 -24 OFFCURVE",
"169 1 CURVE SMOOTH",
"186 45 OFFCURVE",
"200 90 OFFCURVE",
"200 136 CURVE SMOOTH",
"200 140 LINE SMOOTH",
"200 176 OFFCURVE",
"202 196 OFFCURVE",
"200 233 CURVE SMOOTH",
"197 283 OFFCURVE",
"179 325 OFFCURVE",
"171 370 CURVE SMOOTH",
"163 413 OFFCURVE",
"148 455 OFFCURVE",
"147 505 CURVE SMOOTH",
"147 525 OFFCURVE",
"148 543 OFFCURVE",
"152 561 CURVE",
"202 598 OFFCURVE",
"261 622 OFFCURVE",
"311 622 CURVE SMOOTH",
"343 622 OFFCURVE",
"364 602 OFFCURVE",
"389 586 CURVE SMOOTH",
"442 552 OFFCURVE",
"470 499 OFFCURVE",
"470 436 CURVE SMOOTH",
"470 354 OFFCURVE",
"416 225 OFFCURVE",
"328 225 CURVE SMOOTH",
"323 225 OFFCURVE",
"318 222 OFFCURVE",
"313 221 CURVE",
"275 221 OFFCURVE",
"246 245 OFFCURVE",
"245 284 CURVE SMOOTH",
"245 302 OFFCURVE",
"265 321 OFFCURVE",
"284 319 CURVE SMOOTH",
"297 319 OFFCURVE",
"298 336 OFFCURVE",
"287 337 CURVE SMOOTH",
"258 339 OFFCURVE",
"226 312 OFFCURVE",
"227 284 CURVE SMOOTH",
"227 271 OFFCURVE",
"233 261 OFFCURVE",
"236 249 CURVE SMOOTH",
"244 218 OFFCURVE",
"285 183 OFFCURVE",
"315 183 CURVE SMOOTH",
"328 183 LINE SMOOTH",
"438 183 OFFCURVE",
"522 334 OFFCURVE",
"522 436 CURVE SMOOTH"
);
}
);
width = 538;
}
);
note = P;
unicode = 0050;
},
{
glyphname = Q;
layers = (
{
hints = (
{
horizontal = 1;
place = "{-284, 52}";
type = Stem;
},
{
horizontal = 1;
place = "{-57, 25}";
type = Stem;
},
{
horizontal = 1;
place = "{119, 17}";
type = Stem;
},
{
horizontal = 1;
place = "{398, 24}";
type = Stem;
},
{
horizontal = 1;
place = "{434, 17}";
type = Stem;
},
{
horizontal = 1;
place = "{508, 25}";
type = Stem;
},
{
horizontal = 1;
place = "{586, 25}";
type = Stem;
},
{
place = "{2, 52}";
type = Stem;
},
{
place = "{131, 17}";
type = Stem;
},
{
place = "{249, 22}";
type = Stem;
},
{
place = "{318, 17}";
type = Stem;
},
{
place = "{410, 24}";
type = Stem;
},
{
place = "{527, 32}";
type = Stem;
}
);
layerId = "9537DB68-ED58-4774-880B-66DB18EF27AD";
paths = (
{
closed = 1;
nodes = (
"555 623 OFFCURVE",
"537 640 OFFCURVE",
"526 627 CURVE SMOOTH",
"505 604 OFFCURVE",
"498 596 OFFCURVE",
"480 578 CURVE SMOOTH",
"468 566 OFFCURVE",
"486 548 OFFCURVE",
"498 560 CURVE SMOOTH",
"516 578 OFFCURVE",
"523 586 OFFCURVE",
"544 611 CURVE SMOOTH"
);
},
{
closed = 1;
nodes = (
"487 694 OFFCURVE",
"466 708 OFFCURVE",
"457 694 CURVE SMOOTH",
"440 670 OFFCURVE",
"422 647 OFFCURVE",
"410 620 CURVE SMOOTH",
"403 605 OFFCURVE",
"425 595 OFFCURVE",
"432 610 CURVE SMOOTH",
"444 635 OFFCURVE",
"462 657 OFFCURVE",
"477 680 CURVE SMOOTH"
);
},
{
closed = 1;
nodes = (
"394 717 OFFCURVE",
"370 723 OFFCURVE",
"366 707 CURVE SMOOTH",
"360 685 OFFCURVE",
"355 671 OFFCURVE",
"346 650 CURVE SMOOTH",
"339 635 OFFCURVE",
"361 625 OFFCURVE",
"368 640 CURVE SMOOTH",
"379 661 OFFCURVE",
"384 677 OFFCURVE",
"390 701 CURVE SMOOTH"
);
},
{
closed = 1;
nodes = (
"263 649 LINE",
"263 700 LINE SMOOTH",
"263 717 OFFCURVE",
"238 717 OFFCURVE",
"238 700 CURVE SMOOTH",
"238 649 LINE SMOOTH",
"238 632 OFFCURVE",
"264 632 OFFCURVE",
"264 649 CURVE"
);
},
{
closed = 1;
nodes = (
"173 652 OFFCURVE",
"167 661 OFFCURVE",
"162 685 CURVE SMOOTH",
"159 702 OFFCURVE",
"134 697 OFFCURVE",
"138 681 CURVE SMOOTH",
"143 655 OFFCURVE",
"149 646 OFFCURVE",
"155 625 CURVE SMOOTH",
"160 609 OFFCURVE",
"184 615 OFFCURVE",
"179 631 CURVE SMOOTH"
);
},
{
closed = 1;
nodes = (
"100 616 OFFCURVE",
"76 637 OFFCURVE",
"54 666 CURVE SMOOTH",
"44 679 OFFCURVE",
"24 664 OFFCURVE",
"34 650 CURVE SMOOTH",
"54 624 OFFCURVE",
"79 603 OFFCURVE",
"91 572 CURVE SMOOTH",
"98 557 OFFCURVE",
"121 566 OFFCURVE",
"115 582 CURVE SMOOTH"
);
},
{
closed = 1;
nodes = (
"559 -104 OFFCURVE",
"521 -32 OFFCURVE",
"463 -32 CURVE SMOOTH",
"431 -32 OFFCURVE",
"408 -78 OFFCURVE",
"409 -102 CURVE SMOOTH",
"410 -132 OFFCURVE",
"444 -145 OFFCURVE",
"430 -111 CURVE SMOOTH",
"423 -93 OFFCURVE",
"443 -57 OFFCURVE",
"463 -57 CURVE SMOOTH",
"507 -57 OFFCURVE",
"527 -117 OFFCURVE",
"527 -158 CURVE SMOOTH",
"527 -181 OFFCURVE",
"516 -192 OFFCURVE",
"503 -211 CURVE SMOOTH",
"491 -229 OFFCURVE",
"469 -232 OFFCURVE",
"447 -232 CURVE SMOOTH",
"346 -232 OFFCURVE",
"330 -100 OFFCURVE",
"323 -16 CURVE",
"450 1 OFFCURVE",
"527 126 OFFCURVE",
"527 252 CURVE SMOOTH",
"527 330 OFFCURVE",
"476 418 OFFCURVE",
"403 444 CURVE",
"412 460 OFFCURVE",
"416 479 OFFCURVE",
"416 497 CURVE SMOOTH",
"416 570 OFFCURVE",
"359 610 OFFCURVE",
"289 610 CURVE SMOOTH",
"123 611 OFFCURVE",
"2 402 OFFCURVE",
"2 256 CURVE SMOOTH",
"2 166 OFFCURVE",
"39 93 OFFCURVE",
"102 40 CURVE SMOOTH",
"148 1 OFFCURVE",
"209 -15 OFFCURVE",
"273 -18 CURVE",
"277 -74 OFFCURVE",
"284 -132 OFFCURVE",
"305 -184 CURVE SMOOTH",
"329 -244 OFFCURVE",
"385 -284 OFFCURVE",
"447 -284 CURVE SMOOTH",
"484 -284 OFFCURVE",
"514 -264 OFFCURVE",
"535 -234 CURVE SMOOTH",
"553 -208 OFFCURVE",
"559 -189 OFFCURVE",
"559 -158 CURVE SMOOTH"
);
},
{
closed = 1;
nodes = (
"481 150 OFFCURVE",
"421 47 OFFCURVE",
"319 32 CURVE",
"317 48 OFFCURVE",
"314 66 OFFCURVE",
"313 84 CURVE SMOOTH",
"311 111 OFFCURVE",
"304 139 OFFCURVE",
"298 165 CURVE SMOOTH",
"286 221 OFFCURVE",
"254 260 OFFCURVE",
"195 260 CURVE SMOOTH",
"163 260 OFFCURVE",
"131 218 OFFCURVE",
"131 188 CURVE SMOOTH",
"131 161 OFFCURVE",
"133 119 OFFCURVE",
"171 119 CURVE SMOOTH",
"203 119 OFFCURVE",
"211 158 OFFCURVE",
"206 181 CURVE",
"205 181 LINE",
"203 192 OFFCURVE",
"185 188 OFFCURVE",
"188 177 CURVE SMOOTH",
"193 155 OFFCURVE",
"184 136 OFFCURVE",
"171 136 CURVE SMOOTH",
"146 136 OFFCURVE",
"148 172 OFFCURVE",
"148 188 CURVE SMOOTH",
"148 211 OFFCURVE",
"176 243 OFFCURVE",
"195 243 CURVE SMOOTH",
"270 243 OFFCURVE",
"265 131 OFFCURVE",
"269 81 CURVE SMOOTH",
"270 64 OFFCURVE",
"270 47 OFFCURVE",
"270 32 CURVE",
"219 35 OFFCURVE",
"172 49 OFFCURVE",
"135 80 CURVE SMOOTH",
"84 123 OFFCURVE",
"54 182 OFFCURVE",
"54 255 CURVE SMOOTH",
"54 332 OFFCURVE",
"63 402 OFFCURVE",
"102 464 CURVE SMOOTH",
"141 526 OFFCURVE",
"208 584 OFFCURVE",
"289 585 CURVE SMOOTH",
"345 585 OFFCURVE",
"392 556 OFFCURVE",
"392 497 CURVE SMOOTH",
"392 480 OFFCURVE",
"387 463 OFFCURVE",
"379 450 CURVE",
"371 451 OFFCURVE",
"363 451 OFFCURVE",
"355 451 CURVE SMOOTH",
"340 451 OFFCURVE",
"334 435 OFFCURVE",
"356 435 CURVE",
"359 434 OFFCURVE",
"362 434 OFFCURVE",
"365 434 CURVE",
"355 426 OFFCURVE",
"344 422 OFFCURVE",
"332 422 CURVE SMOOTH",
"302 422 OFFCURVE",
"271 448 OFFCURVE",
"271 476 CURVE SMOOTH",
"271 492 OFFCURVE",
"283 508 OFFCURVE",
"298 508 CURVE SMOOTH",
"308 507 OFFCURVE",
"318 503 OFFCURVE",
"318 492 CURVE SMOOTH",
"317 481 OFFCURVE",
"334 481 OFFCURVE",
"334 492 CURVE SMOOTH",
"335 505 OFFCURVE",
"335 517 OFFCURVE",
"325 524 CURVE SMOOTH",
"317 529 OFFCURVE",
"304 532 OFFCURVE",
"299 532 CURVE SMOOTH",
"271 533 OFFCURVE",
"249 505 OFFCURVE",
"249 477 CURVE SMOOTH",
"249 436 OFFCURVE",
"290 398 OFFCURVE",
"332 398 CURVE SMOOTH",
"357 398 OFFCURVE",
"376 409 OFFCURVE",
"390 425 CURVE",
"409 413 OFFCURVE",
"424 395 OFFCURVE",
"440 379 CURVE SMOOTH",
"472 346 OFFCURVE",
"481 304 OFFCURVE",
"481 252 CURVE SMOOTH"
);
}
);
width = 546;
}
);
note = Q;
unicode = 0051;
},
{
glyphname = R;
layers = (
{
hints = (
{
horizontal = 1;
place = "{-64, 25}";
type = Stem;
},
{
horizontal = 1;
place = "{-31, 38}";
type = Stem;
},
{
horizontal = 1;
place = "{102, 17}";
type = Stem;
},
{
horizontal = 1;
place = "{212, 32}";
type = Stem;
},
{
horizontal = 1;
place = "{355, 19}";
type = Stem;
},
{
horizontal = 1;
place = "{620, 45}";
type = Stem;
},
{
place = "{-8, 17}";
type = Stem;
},
{
place = "{27, 17}";
type = Stem;
},
{
place = "{156, 23}";
type = Stem;
}
);
layerId = "9537DB68-ED58-4774-880B-66DB18EF27AD";
paths = (
{
closed = 1;
nodes = (
"511 133 OFFCURVE",
"490 160 OFFCURVE",
"475 181 CURVE SMOOTH",
"462 199 OFFCURVE",
"449 218 OFFCURVE",
"423 218 CURVE",
"418 219 OFFCURVE",
"413 217 OFFCURVE",
"409 215 CURVE",
"410 215 LINE SMOOTH",
"399 214 OFFCURVE",
"399 197 OFFCURVE",
"410 197 CURVE",
"411 198 OFFCURVE",
"413 198 OFFCURVE",
"415 199 CURVE",
"416 199 OFFCURVE",
"422 202 OFFCURVE",
"423 202 CURVE SMOOTH",
"431 202 OFFCURVE",
"437 199 OFFCURVE",
"443 194 CURVE SMOOTH",
"470 168 OFFCURVE",
"477 133 OFFCURVE",
"477 97 CURVE SMOOTH",
"477 62 OFFCURVE",
"470 7 OFFCURVE",
"436 7 CURVE SMOOTH",
"395 7 OFFCURVE",
"358 47 OFFCURVE",
"347 84 CURVE SMOOTH",
"331 135 OFFCURVE",
"319 180 OFFCURVE",
"309 229 CURVE",
"346 249 OFFCURVE",
"381 282 OFFCURVE",
"403 313 CURVE SMOOTH",
"427 345 OFFCURVE",
"449 385 OFFCURVE",
"459 428 CURVE SMOOTH",
"464 447 OFFCURVE",
"470 468 OFFCURVE",
"470 488 CURVE SMOOTH",
"470 613 OFFCURVE",
"356 675 OFFCURVE",
"230 664 CURVE SMOOTH",
"186 660 OFFCURVE",
"164 640 OFFCURVE",
"127 618 CURVE SMOOTH",
"113 610 OFFCURVE",
"79 581 OFFCURVE",
"45 550 CURVE",
"39 569 OFFCURVE",
"32 585 OFFCURVE",
"24 599 CURVE SMOOTH",
"16 613 OFFCURVE",
"-6 601 OFFCURVE",
"2 587 CURVE SMOOTH",
"10 572 OFFCURVE",
"18 554 OFFCURVE",
"25 532 CURVE",
"-3 506 OFFCURVE",
"-27 482 OFFCURVE",
"-36 471 CURVE SMOOTH",
"-70 427 OFFCURVE",
"-38 419 OFFCURVE",
"-15 455 CURVE SMOOTH",
"-9 464 OFFCURVE",
"10 482 OFFCURVE",
"34 501 CURVE",
"58 414 OFFCURVE",
"72 296 OFFCURVE",
"72 230 CURVE SMOOTH",
"72 -47 LINE",
"65 -50 OFFCURVE",
"59 -51 OFFCURVE",
"53 -51 CURVE SMOOTH",
"42 -50 OFFCURVE",
"45 -75 OFFCURVE",
"53 -75 CURVE SMOOTH",
"59 -75 OFFCURVE",
"66 -74 OFFCURVE",
"72 -72 CURVE",
"72 -105 LINE SMOOTH",
"72 -122 OFFCURVE",
"97 -122 OFFCURVE",
"97 -105 CURVE SMOOTH",
"98 -60 LINE",
"139 -36 OFFCURVE",
"177 12 OFFCURVE",
"179 48 CURVE SMOOTH",
"180 69 OFFCURVE",
"188 87 OFFCURVE",
"188 112 CURVE SMOOTH",
"188 156 OFFCURVE",
"189 181 OFFCURVE",
"186 225 CURVE SMOOTH",
"183 276 OFFCURVE",
"187 327 OFFCURVE",
"183 378 CURVE SMOOTH",
"178 432 OFFCURVE",
"169 474 OFFCURVE",
"198 517 CURVE SMOOTH",
"204 527 OFFCURVE",
"190 537 OFFCURVE",
"184 528 CURVE SMOOTH",
"150 477 OFFCURVE",
"124 436 OFFCURVE",
"130 373 CURVE SMOOTH",
"132 348 OFFCURVE",
"132 314 OFFCURVE",
"133 286 CURVE SMOOTH",
"134 262 OFFCURVE",
"139 244 OFFCURVE",
"140 223 CURVE SMOOTH",
"143 179 OFFCURVE",
"158 156 OFFCURVE",
"158 112 CURVE SMOOTH",
"158 87 OFFCURVE",
"157 69 OFFCURVE",
"156 48 CURVE SMOOTH",
"154 24 OFFCURVE",
"128 -11 OFFCURVE",
"99 -32 CURVE",
"104 209 LINE SMOOTH",
"105 240 OFFCURVE",
"103 297 OFFCURVE",
"95 328 CURVE SMOOTH",
"83 376 OFFCURVE",
"72 452 OFFCURVE",
"55 518 CURVE",
"92 548 OFFCURVE",
"134 578 OFFCURVE",
"147 586 CURVE SMOOTH",
"251 648 OFFCURVE",
"417 632 OFFCURVE",
"417 488 CURVE",
"418 484 OFFCURVE",
"417 476 OFFCURVE",
"415 466 CURVE SMOOTH",
"406 423 OFFCURVE",
"396 370 OFFCURVE",
"370 335 CURVE SMOOTH",
"353 312 OFFCURVE",
"328 284 OFFCURVE",
"302 265 CURVE",
"299 277 OFFCURVE",
"297 289 OFFCURVE",
"295 302 CURVE SMOOTH",
"293 313 OFFCURVE",
"287 318 OFFCURVE",
"283 331 CURVE SMOOTH",
"278 343 OFFCURVE",
"269 356 OFFCURVE",
"252 356 CURVE SMOOTH",
"227 357 OFFCURVE",
"205 323 OFFCURVE",
"201 303 CURVE SMOOTH",
"197 287 OFFCURVE",
"199 274 OFFCURVE",
"202 260 CURVE SMOOTH",
"205 247 OFFCURVE",
"231 212 OFFCURVE",
"247 212 CURVE SMOOTH",
"259 212 OFFCURVE",
"270 214 OFFCURVE",
"281 218 CURVE",
"288 169 OFFCURVE",
"294 123 OFFCURVE",
"309 72 CURVE SMOOTH",
"324 21 OFFCURVE",
"378 -31 OFFCURVE",
"435 -31 CURVE SMOOTH",
"486 -31 OFFCURVE",
"511 44 OFFCURVE",
"511 98 CURVE SMOOTH"
);
},
{
closed = 1;
nodes = (
"278 250 LINE",
"268 246 OFFCURVE",
"258 244 OFFCURVE",
"248 244 CURVE SMOOTH",
"232 244 OFFCURVE",
"217 283 OFFCURVE",
"220 298 CURVE SMOOTH",
"225 318 OFFCURVE",
"242 340 OFFCURVE",
"252 340 CURVE SMOOTH",
"271 340 OFFCURVE",
"268 309 OFFCURVE",
"270 298 CURVE SMOOTH",
"273 281 OFFCURVE",
"275 265 OFFCURVE",
"277 250 CURVE"
);
}
);
width = 518;
}
);
note = R;
unicode = 0052;
},
{
glyphname = S;
layers = (
{
hints = (
{
horizontal = 1;
place = "{2, 42}";
type = Stem;
},
{
horizontal = 1;
place = "{106, 18}";
type = Stem;
},
{
horizontal = 1;
place = "{215, 24}";
type = Stem;
},
{
horizontal = 1;
place = "{354, 21}";
target = up;
type = BottomGhost;
},
{
horizontal = 1;
place = "{561, 22}";
type = Stem;
},
{
place = "{63, 16}";
type = Stem;
},
{
place = "{102, 35}";
type = Stem;
},
{
place = "{216, 18}";
type = Stem;
},
{
place = "{264, 32}";
type = Stem;
},
{
place = "{305, 23}";
type = Stem;
},
{
place = "{328, 14}";
type = Stem;
},
{
place = "{410, 42}";
type = Stem;
}
);
layerId = "9537DB68-ED58-4774-880B-66DB18EF27AD";
paths = (
{
closed = 1;
nodes = (
"419 645 OFFCURVE",
"403 658 OFFCURVE",
"394 648 CURVE SMOOTH",
"381 633 OFFCURVE",
"368 619 OFFCURVE",
"358 601 CURVE SMOOTH",
"351 589 OFFCURVE",
"369 580 OFFCURVE",
"376 592 CURVE SMOOTH",
"385 608 OFFCURVE",
"398 621 OFFCURVE",
"410 635 CURVE SMOOTH"
);
},
{
closed = 1;
nodes = (
"344 684 OFFCURVE",
"326 692 OFFCURVE",
"320 680 CURVE SMOOTH",
"311 658 OFFCURVE",
"298 646 OFFCURVE",
"298 620 CURVE SMOOTH",
"298 607 OFFCURVE",
"318 607 OFFCURVE",
"318 620 CURVE SMOOTH",
"318 640 OFFCURVE",
"331 655 OFFCURVE",
"339 672 CURVE SMOOTH"
);
},
{
closed = 1;
nodes = (
"263 683 LINE SMOOTH",
"263 697 OFFCURVE",
"242 697 OFFCURVE",
"242 683 CURVE SMOOTH",
"242 624 LINE SMOOTH",
"242 611 OFFCURVE",
"263 611 OFFCURVE",
"263 624 CURVE SMOOTH"
);
},
{
closed = 1;
nodes = (
"180 623 OFFCURVE",
"177 636 OFFCURVE",
"177 659 CURVE SMOOTH",
"177 672 OFFCURVE",
"157 672 OFFCURVE",
"157 659 CURVE SMOOTH",
"157 636 OFFCURVE",
"160 623 OFFCURVE",
"160 603 CURVE SMOOTH",
"160 589 OFFCURVE",
"180 589 OFFCURVE",
"180 603 CURVE SMOOTH"
);
},
{
closed = 1;
nodes = (
"112 585 OFFCURVE",
"101 607 OFFCURVE",
"84 627 CURVE SMOOTH",
"75 637 OFFCURVE",
"60 624 OFFCURVE",
"69 614 CURVE SMOOTH",
"85 595 OFFCURVE",
"96 573 OFFCURVE",
"110 552 CURVE SMOOTH",
"117 541 OFFCURVE",
"134 553 OFFCURVE",
"126 564 CURVE SMOOTH"
);
},
{
closed = 1;
nodes = (
"450 261 OFFCURVE",
"425 330 OFFCURVE",
"337 330 CURVE SMOOTH",
"237 330 OFFCURVE",
"156 307 OFFCURVE",
"156 414 CURVE SMOOTH",
"156 472 OFFCURVE",
"203 548 OFFCURVE",
"260 548 CURVE SMOOTH",
"327 548 OFFCURVE",
"384 543 OFFCURVE",
"384 482 CURVE SMOOTH",
"384 456 OFFCURVE",
"342 422 OFFCURVE",
"315 422 CURVE SMOOTH",
"294 422 OFFCURVE",
"284 433 OFFCURVE",
"294 458 CURVE SMOOTH",
"299 471 OFFCURVE",
"280 478 OFFCURVE",
"275 466 CURVE SMOOTH",
"259 427 OFFCURVE",
"279 402 OFFCURVE",
"315 402 CURVE SMOOTH",
"350 402 OFFCURVE",
"404 442 OFFCURVE",
"404 482 CURVE SMOOTH",
"404 564 OFFCURVE",
"304 589 OFFCURVE",
"240 589 CURVE SMOOTH",
"167 589 OFFCURVE",
"108 487 OFFCURVE",
"108 424 CURVE SMOOTH",
"108 294 OFFCURVE",
"229 293 OFFCURVE",
"322 293 CURVE SMOOTH",
"394 293 OFFCURVE",
"415 256 OFFCURVE",
"415 186 CURVE SMOOTH",
"415 92 OFFCURVE",
"328 57 OFFCURVE",
"240 57 CURVE SMOOTH",
"172 57 OFFCURVE",
"100 81 OFFCURVE",
"100 144 CURVE SMOOTH",
"100 189 OFFCURVE",
"131 229 OFFCURVE",
"173 229 CURVE SMOOTH",
"210 229 OFFCURVE",
"232 210 OFFCURVE",
"232 175 CURVE SMOOTH",
"232 149 OFFCURVE",
"221 137 OFFCURVE",
"199 137 CURVE SMOOTH",
"183 137 OFFCURVE",
"169 150 OFFCURVE",
"169 166 CURVE SMOOTH",
"169 168 OFFCURVE",
"169 169 OFFCURVE",
"177 171 CURVE SMOOTH",
"190 176 OFFCURVE",
"183 195 OFFCURVE",
"170 191 CURVE SMOOTH",
"163 188 OFFCURVE",
"149 183 OFFCURVE",
"149 166 CURVE SMOOTH",
"149 138 OFFCURVE",
"172 116 OFFCURVE",
"199 116 CURVE SMOOTH",
"235 116 OFFCURVE",
"252 140 OFFCURVE",
"252 175 CURVE SMOOTH",
"252 223 OFFCURVE",
"220 249 OFFCURVE",
"173 249 CURVE SMOOTH",
"116 249 OFFCURVE",
"70 210 OFFCURVE",
"70 157 CURVE SMOOTH",
"70 73 OFFCURVE",
"166 23 OFFCURVE",
"232 23 CURVE SMOOTH",
"321 23 OFFCURVE",
"450 72 OFFCURVE",
"450 185 CURVE SMOOTH"
);
},
{
closed = 1;
nodes = (
"435 -10 OFFCURVE",
"430 -2 OFFCURVE",
"414 24 CURVE SMOOTH",
"407 36 OFFCURVE",
"390 25 OFFCURVE",
"396 14 CURVE SMOOTH",
"412 -12 OFFCURVE",
"417 -19 OFFCURVE",
"427 -40 CURVE SMOOTH",
"433 -53 OFFCURVE",
"451 -44 OFFCURVE",
"445 -31 CURVE SMOOTH"
);
},
{
closed = 1;
nodes = (
"383 -53 OFFCURVE",
"369 -25 OFFCURVE",
"359 5 CURVE SMOOTH",
"355 18 OFFCURVE",
"336 12 OFFCURVE",
"340 -1 CURVE SMOOTH",
"349 -30 OFFCURVE",
"363 -57 OFFCURVE",
"367 -86 CURVE SMOOTH",
"370 -100 OFFCURVE",
"390 -97 OFFCURVE",
"388 -83 CURVE SMOOTH"
);
},
{
closed = 1;
nodes = (
"291 -67 OFFCURVE",
"287 -45 OFFCURVE",
"287 -19 CURVE SMOOTH",
"287 -5 OFFCURVE",
"267 -5 OFFCURVE",
"267 -19 CURVE SMOOTH",
"267 -45 OFFCURVE",
"270 -67 OFFCURVE",
"270 -95 CURVE SMOOTH",
"270 -108 OFFCURVE",
"291 -108 OFFCURVE",
"291 -95 CURVE SMOOTH"
);
},
{
closed = 1;
nodes = (
"217 -4 OFFCURVE",
"196 -1 OFFCURVE",
"194 -14 CURVE SMOOTH",
"190 -47 OFFCURVE",
"184 -71 OFFCURVE",
"181 -97 CURVE SMOOTH",
"179 -111 OFFCURVE",
"199 -113 OFFCURVE",
"201 -100 CURVE SMOOTH",
"204 -74 OFFCURVE",
"210 -50 OFFCURVE",
"215 -17 CURVE SMOOTH"
);
},
{
closed = 1;
nodes = (
"145 -4 OFFCURVE",
"130 9 OFFCURVE",
"121 -2 CURVE SMOOTH",
"102 -24 OFFCURVE",
"92 -52 OFFCURVE",
"73 -74 CURVE SMOOTH",
"64 -84 OFFCURVE",
"79 -98 OFFCURVE",
"88 -88 CURVE SMOOTH",
"108 -66 OFFCURVE",
"118 -37 OFFCURVE",
"136 -15 CURVE SMOOTH"
);
}
);
width = 518;
}
);
note = S;
unicode = 0053;
},
{
glyphname = T;
layers = (
{
hints = (
{
horizontal = 1;
place = "{-27, 45}";
type = Stem;
},
{
horizontal = 1;
place = "{133, 22}";
type = Stem;
},
{
horizontal = 1;
place = "{346, 36}";
type = Stem;
},
{
horizontal = 1;
place = "{532, 17}";
type = Stem;
},
{
horizontal = 1;
place = "{586, 25}";
type = Stem;
},
{
horizontal = 1;
place = "{646, 17}";
type = Stem;
},
{
place = "{-26, 27}";
type = Stem;
},
{
place = "{149, 17}";
type = Stem;
},
{
place = "{180, 24}";
type = Stem;
},
{
place = "{266, 19}";
type = Stem;
},
{
place = "{340, 52}";
type = Stem;
},
{
place = "{617, 30}";
type = Stem;
}
);
layerId = "9537DB68-ED58-4774-880B-66DB18EF27AD";
paths = (
{
closed = 1;
nodes = (
"647 637 OFFCURVE",
"588 663 OFFCURVE",
"542 663 CURVE SMOOTH",
"531 662 OFFCURVE",
"531 645 OFFCURVE",
"542 645 CURVE SMOOTH",
"576 646 OFFCURVE",
"617 624 OFFCURVE",
"617 587 CURVE SMOOTH",
"617 560 OFFCURVE",
"598 539 OFFCURVE",
"572 536 CURVE SMOOTH",
"564 535 OFFCURVE",
"559 540 OFFCURVE",
"550 540 CURVE SMOOTH",
"503 540 OFFCURVE",
"459 558 OFFCURVE",
"413 565 CURVE SMOOTH",
"399 567 OFFCURVE",
"387 570 OFFCURVE",
"376 575 CURVE SMOOTH",
"345 588 LINE",
"353 605 OFFCURVE",
"367 616 OFFCURVE",
"386 620 CURVE SMOOTH",
"397 622 OFFCURVE",
"394 639 OFFCURVE",
"383 637 CURVE SMOOTH",
"357 632 OFFCURVE",
"339 617 OFFCURVE",
"328 595 CURVE",
"282 610 OFFCURVE",
"241 615 OFFCURVE",
"183 615 CURVE SMOOTH",
"160 615 OFFCURVE",
"144 610 OFFCURVE",
"122 610 CURVE SMOOTH",
"53 611 OFFCURVE",
"-24 547 OFFCURVE",
"-25 470 CURVE SMOOTH",
"-25 434 OFFCURVE",
"-7 346 OFFCURVE",
"42 346 CURVE SMOOTH",
"65 346 OFFCURVE",
"89 359 OFFCURVE",
"103 370 CURVE SMOOTH",
"132 393 OFFCURVE",
"168 463 OFFCURVE",
"167 502 CURVE SMOOTH",
"167 523 OFFCURVE",
"161 547 OFFCURVE",
"134 548 CURVE SMOOTH",
"110 548 OFFCURVE",
"86 522 OFFCURVE",
"77 507 CURVE SMOOTH",
"71 497 OFFCURVE",
"86 488 OFFCURVE",
"92 498 CURVE SMOOTH",
"100 512 OFFCURVE",
"120 531 OFFCURVE",
"134 531 CURVE SMOOTH",
"149 532 OFFCURVE",
"149 513 OFFCURVE",
"149 502 CURVE SMOOTH",
"150 467 OFFCURVE",
"86 382 OFFCURVE",
"44 382 CURVE SMOOTH",
"11 382 OFFCURVE",
"2 446 OFFCURVE",
"2 470 CURVE SMOOTH",
"1 533 OFFCURVE",
"65 584 OFFCURVE",
"122 585 CURVE SMOOTH",
"144 585 OFFCURVE",
"160 590 OFFCURVE",
"183 590 CURVE SMOOTH",
"231 589 OFFCURVE",
"270 572 OFFCURVE",
"317 555 CURVE",
"318 554 LINE",
"313 520 OFFCURVE",
"308 482 OFFCURVE",
"308 458 CURVE SMOOTH",
"308 353 OFFCURVE",
"340 266 OFFCURVE",
"340 164 CURVE SMOOTH",
"340 112 OFFCURVE",
"326 55 OFFCURVE",
"298 32 CURVE SMOOTH",
"289 25 OFFCURVE",
"279 18 OFFCURVE",
"268 18 CURVE SMOOTH",
"236 19 OFFCURVE",
"204 59 OFFCURVE",
"204 90 CURVE SMOOTH",
"204 108 OFFCURVE",
"218 133 OFFCURVE",
"238 133 CURVE SMOOTH",
"254 133 OFFCURVE",
"266 122 OFFCURVE",
"266 107 CURVE SMOOTH",
"267 89 OFFCURVE",
"255 85 OFFCURVE",
"240 88 CURVE SMOOTH",
"229 91 OFFCURVE",
"225 74 OFFCURVE",
"236 71 CURVE SMOOTH",
"263 65 OFFCURVE",
"284 73 OFFCURVE",
"285 107 CURVE SMOOTH",
"285 132 OFFCURVE",
"267 155 OFFCURVE",
"239 155 CURVE SMOOTH",
"206 155 OFFCURVE",
"180 120 OFFCURVE",
"180 89 CURVE SMOOTH",
"180 42 OFFCURVE",
"219 -26 OFFCURVE",
"269 -26 CURVE SMOOTH",
"367 -27 OFFCURVE",
"392 84 OFFCURVE",
"392 163 CURVE SMOOTH",
"392 266 OFFCURVE",
"360 412 OFFCURVE",
"342 476 CURVE SMOOTH",
"337 495 OFFCURVE",
"335 520 OFFCURVE",
"337 547 CURVE",
"359 536 OFFCURVE",
"380 523 OFFCURVE",
"406 519 CURVE SMOOTH",
"455 512 OFFCURVE",
"502 504 OFFCURVE",
"551 504 CURVE SMOOTH",
"560 504 OFFCURVE",
"566 510 OFFCURVE",
"576 511 CURVE SMOOTH",
"616 516 OFFCURVE",
"647 546 OFFCURVE",
"647 586 CURVE SMOOTH"
);
},
{
closed = 1;
nodes = (
"290 526 OFFCURVE",
"281 535 OFFCURVE",
"271 535 CURVE SMOOTH",
"261 535 OFFCURVE",
"252 526 OFFCURVE",
"252 516 CURVE SMOOTH",
"252 506 OFFCURVE",
"261 497 OFFCURVE",
"271 497 CURVE SMOOTH",
"281 497 OFFCURVE",
"290 506 OFFCURVE",
"290 516 CURVE SMOOTH"
);
},
{
closed = 1;
nodes = (
"294 450 OFFCURVE",
"286 459 OFFCURVE",
"277 459 CURVE SMOOTH",
"268 459 OFFCURVE",
"260 450 OFFCURVE",
"260 440 CURVE SMOOTH",
"260 430 OFFCURVE",
"268 421 OFFCURVE",
"277 421 CURVE SMOOTH",
"286 421 OFFCURVE",
"294 430 OFFCURVE",
"294 440 CURVE SMOOTH"
);
},
{
closed = 1;
nodes = (
"315 170 OFFCURVE",
"309 179 OFFCURVE",
"300 179 CURVE SMOOTH",
"292 179 OFFCURVE",
"286 170 OFFCURVE",
"286 158 CURVE SMOOTH",
"286 146 OFFCURVE",
"292 137 OFFCURVE",
"301 137 CURVE SMOOTH",
"309 137 OFFCURVE",
"315 146 OFFCURVE",
"315 158 CURVE SMOOTH"
);
},
{
closed = 1;
nodes = (
"303 378 OFFCURVE",
"296 387 OFFCURVE",
"288 387 CURVE SMOOTH",
"280 387 OFFCURVE",
"273 378 OFFCURVE",
"273 368 CURVE SMOOTH",
"273 358 OFFCURVE",
"280 349 OFFCURVE",
"288 349 CURVE SMOOTH",
"296 349 OFFCURVE",
"303 358 OFFCURVE",
"303 368 CURVE SMOOTH"
);
},
{
closed = 1;
nodes = (
"291 234 OFFCURVE",
"282 228 OFFCURVE",
"282 219 CURVE SMOOTH",
"282 211 OFFCURVE",
"291 205 OFFCURVE",
"301 205 CURVE SMOOTH",
"311 205 OFFCURVE",
"320 211 OFFCURVE",
"320 220 CURVE SMOOTH",
"319 228 OFFCURVE",
"310 234 OFFCURVE",
"301 234 CURVE SMOOTH"
);
},
{
closed = 1;
nodes = (
"311 307 OFFCURVE",
"305 315 OFFCURVE",
"296 315 CURVE SMOOTH",
"288 315 OFFCURVE",
"282 307 OFFCURVE",
"282 298 CURVE SMOOTH",
"282 289 OFFCURVE",
"288 281 OFFCURVE",
"297 281 CURVE SMOOTH",
"305 281 OFFCURVE",
"311 289 OFFCURVE",
"311 298 CURVE SMOOTH"
);
}
);
width = 440;
}
);
note = T;
unicode = 0054;
},
{
glyphname = U;
layers = (
{
hints = (
{
horizontal = 1;
place = "{-25, 45}";
type = Stem;
},
{
horizontal = 1;
place = "{594, -20}";
target = down;
type = TopGhost;
},
{
place = "{15, 19}";
type = Stem;
},
{
place = "{93, 19}";
type = Stem;
},
{
place = "{146, 38}";
type = Stem;
},
{
place = "{352, 25}";
type = Stem;
},
{
place = "{424, 17}";
type = Stem;
}
);
layerId = "9537DB68-ED58-4774-880B-66DB18EF27AD";
paths = (
{
closed = 1;
nodes = (
"580 624 OFFCURVE",
"557 635 OFFCURVE",
"550 621 CURVE SMOOTH",
"539 598 OFFCURVE",
"492 603 OFFCURVE",
"471 603 CURVE SMOOTH",
"430 603 LINE",
"425 611 OFFCURVE",
"418 616 OFFCURVE",
"409 616 CURVE SMOOTH",
"404 616 OFFCURVE",
"401 612 OFFCURVE",
"400 605 CURVE",
"381 608 OFFCURVE",
"363 612 OFFCURVE",
"344 619 CURVE",
"340 619 LINE",
"340 635 OFFCURVE",
"316 636 OFFCURVE",
"316 619 CURVE",
"239 619 LINE SMOOTH",
"222 619 OFFCURVE",
"222 594 OFFCURVE",
"239 594 CURVE SMOOTH",
"316 594 LINE",
"317 492 OFFCURVE",
"324 415 OFFCURVE",
"345 324 CURVE SMOOTH",
"352 292 OFFCURVE",
"357 246 OFFCURVE",
"368 210 CURVE",
"360 188 OFFCURVE",
"350 165 OFFCURVE",
"338 137 CURVE SMOOTH",
"321 100 OFFCURVE",
"269 20 OFFCURVE",
"223 20 CURVE SMOOTH",
"164 21 OFFCURVE",
"136 82 OFFCURVE",
"131 136 CURVE SMOOTH",
"130 151 OFFCURVE",
"131 160 OFFCURVE",
"131 174 CURVE",
"142 233 OFFCURVE",
"146 268 OFFCURVE",
"162 325 CURVE SMOOTH",
"176 375 OFFCURVE",
"182 418 OFFCURVE",
"183 478 CURVE SMOOTH",
"183 513 OFFCURVE",
"156 594 OFFCURVE",
"110 594 CURVE SMOOTH",
"104 594 OFFCURVE",
"101 592 OFFCURVE",
"93 590 CURVE SMOOTH",
"45 579 OFFCURVE",
"15 506 OFFCURVE",
"15 460 CURVE SMOOTH",
"15 434 OFFCURVE",
"11 381 OFFCURVE",
"38 365 CURVE SMOOTH",
"47 360 OFFCURVE",
"55 362 OFFCURVE",
"64 362 CURVE SMOOTH",
"94 363 OFFCURVE",
"112 374 OFFCURVE",
"112 409 CURVE SMOOTH",
"112 425 OFFCURVE",
"104 440 OFFCURVE",
"96 452 CURVE",
"96 453 LINE",
"90 462 OFFCURVE",
"76 453 OFFCURVE",
"82 443 CURVE SMOOTH",
"87 434 OFFCURVE",
"93 421 OFFCURVE",
"93 408 CURVE SMOOTH",
"93 389 OFFCURVE",
"81 386 OFFCURVE",
"65 386 CURVE",
"61 385 OFFCURVE",
"58 385 OFFCURVE",
"55 385 CURVE SMOOTH",
"37 386 OFFCURVE",
"34 448 OFFCURVE",
"34 459 CURVE SMOOTH",
"34 500 OFFCURVE",
"56 564 OFFCURVE",
"97 574 CURVE SMOOTH",
"102 575 OFFCURVE",
"105 574 OFFCURVE",
"109 574 CURVE SMOOTH",
"144 574 OFFCURVE",
"146 504 OFFCURVE",
"146 478 CURVE SMOOTH",
"145 422 OFFCURVE",
"133 383 OFFCURVE",
"119 336 CURVE SMOOTH",
"102 277 OFFCURVE",
"93 242 OFFCURVE",
"82 180 CURVE",
"82 176 LINE SMOOTH",
"82 159 OFFCURVE",
"80 148 OFFCURVE",
"81 131 CURVE SMOOTH",
"88 54 OFFCURVE",
"139 -26 OFFCURVE",
"223 -25 CURVE SMOOTH",
"292 -25 OFFCURVE",
"348 55 OFFCURVE",
"384 130 CURVE",
"395 96 OFFCURVE",
"408 72 OFFCURVE",
"419 42 CURVE SMOOTH",
"437 -10 OFFCURVE",
"461 -24 OFFCURVE",
"491 -64 CURVE SMOOTH",
"503 -80 OFFCURVE",
"520 -92 OFFCURVE",
"535 -104 CURVE SMOOTH",
"544 -112 OFFCURVE",
"555 -99 OFFCURVE",
"546 -92 CURVE SMOOTH",
"488 -44 OFFCURVE",
"479 -14 OFFCURVE",
"454 55 CURVE SMOOTH",
"443 85 OFFCURVE",
"439 112 OFFCURVE",
"429 147 CURVE SMOOTH",
"414 201 LINE",
"420 220 LINE SMOOTH",
"443 295 OFFCURVE",
"441 377 OFFCURVE",
"441 462 CURVE SMOOTH",
"441 479 OFFCURVE",
"447 538 OFFCURVE",
"439 578 CURVE",
"471 578 LINE SMOOTH",
"505 578 OFFCURVE",
"554 573 OFFCURVE",
"572 609 CURVE SMOOTH"
);
},
{
closed = 1;
nodes = (
"413 371 OFFCURVE",
"403 326 OFFCURVE",
"383 255 CURVE",
"378 282 OFFCURVE",
"374 310 OFFCURVE",
"369 330 CURVE SMOOTH",
"348 418 OFFCURVE",
"342 492 OFFCURVE",
"341 593 CURVE",
"360 587 OFFCURVE",
"379 583 OFFCURVE",
"399 580 CURVE",
"401 545 OFFCURVE",
"413 494 OFFCURVE",
"413 476 CURVE SMOOTH"
);
}
);
width = 500;
}
);
note = U;
unicode = 0055;
},
{
glyphname = V;
layers = (
{
hints = (
{
horizontal = 1;
place = "{-34, 34}";
type = Stem;
},
{
horizontal = 1;
place = "{280, 19}";
type = Stem;
},
{
horizontal = 1;
place = "{567, 21}";
target = up;
type = BottomGhost;
},
{
place = "{9, 18}";
type = Stem;
},
{
place = "{141, 17}";
type = Stem;
},
{
place = "{273, 25}";
type = Stem;
},
{
place = "{349, 23}";
type = Stem;
}
);
layerId = "9537DB68-ED58-4774-880B-66DB18EF27AD";
paths = (
{
closed = 1;
nodes = (
"679 564 OFFCURVE",
"671 572 OFFCURVE",
"652 572 CURVE SMOOTH",
"631 571 OFFCURVE",
"610 562 OFFCURVE",
"591 551 CURVE SMOOTH",
"499 499 OFFCURVE",
"427 408 OFFCURVE",
"373 318 CURVE",
"367 310 OFFCURVE",
"361 300 OFFCURVE",
"355 289 CURVE",
"337 371 OFFCURVE",
"300 445 OFFCURVE",
"229 520 CURVE SMOOTH",
"212 539 OFFCURVE",
"189 553 OFFCURVE",
"168 568 CURVE SMOOTH",
"146 584 OFFCURVE",
"119 588 OFFCURVE",
"88 588 CURVE SMOOTH",
"38 587 OFFCURVE",
"17 535 OFFCURVE",
"10 486 CURVE SMOOTH",
"5 447 OFFCURVE",
"13 389 OFFCURVE",
"37 335 CURVE SMOOTH",
"45 316 OFFCURVE",
"79 279 OFFCURVE",
"107 279 CURVE SMOOTH",
"136 280 OFFCURVE",
"158 311 OFFCURVE",
"158 339 CURVE SMOOTH",
"157 373 OFFCURVE",
"135 397 OFFCURVE",
"104 409 CURVE SMOOTH",
"93 413 OFFCURVE",
"87 397 OFFCURVE",
"98 393 CURVE SMOOTH",
"125 383 OFFCURVE",
"142 365 OFFCURVE",
"141 338 CURVE SMOOTH",
"141 320 OFFCURVE",
"126 299 OFFCURVE",
"107 299 CURVE SMOOTH",
"87 298 OFFCURVE",
"62 330 OFFCURVE",
"56 343 CURVE SMOOTH",
"34 394 OFFCURVE",
"22 455 OFFCURVE",
"27 487 CURVE SMOOTH",
"32 525 OFFCURVE",
"48 565 OFFCURVE",
"87 566 CURVE SMOOTH",
"112 566 OFFCURVE",
"129 553 OFFCURVE",
"147 540 CURVE SMOOTH",
"165 527 OFFCURVE",
"177 502 OFFCURVE",
"192 486 CURVE SMOOTH",
"270 404 OFFCURVE",
"316 338 OFFCURVE",
"336 252 CURVE",
"304 186 OFFCURVE",
"273 106 OFFCURVE",
"273 51 CURVE SMOOTH",
"273 39 OFFCURVE",
"275 33 OFFCURVE",
"275 21 CURVE SMOOTH",
"274 5 OFFCURVE",
"299 -34 OFFCURVE",
"321 -34 CURVE SMOOTH",
"373 -34 OFFCURVE",
"372 68 OFFCURVE",
"372 102 CURVE SMOOTH",
"372 159 OFFCURVE",
"369 211 OFFCURVE",
"361 260 CURVE",
"410 355 OFFCURVE",
"482 451 OFFCURVE",
"553 505 CURVE SMOOTH",
"579 525 OFFCURVE",
"617 556 OFFCURVE",
"652 555 CURVE SMOOTH",
"665 555 OFFCURVE",
"669 548 OFFCURVE",
"676 539 CURVE SMOOTH",
"683 531 OFFCURVE",
"696 542 OFFCURVE",
"689 551 CURVE SMOOTH"
);
},
{
closed = 1;
nodes = (
"349 116 OFFCURVE",
"348 66 OFFCURVE",
"345 41 CURVE SMOOTH",
"343 25 OFFCURVE",
"332 0 OFFCURVE",
"322 0 CURVE SMOOTH",
"314 0 OFFCURVE",
"301 15 OFFCURVE",
"301 21 CURVE SMOOTH",
"300 33 OFFCURVE",
"297 39 OFFCURVE",
"297 51 CURVE SMOOTH",
"298 75 OFFCURVE",
"304 102 OFFCURVE",
"311 131 CURVE SMOOTH",
"318 159 OFFCURVE",
"329 189 OFFCURVE",
"343 220 CURVE",
"347 193 OFFCURVE",
"349 164 OFFCURVE",
"349 132 CURVE SMOOTH"
);
},
{
closed = 1;
nodes = (
"188 452 OFFCURVE",
"179 463 OFFCURVE",
"169 463 CURVE SMOOTH",
"159 463 OFFCURVE",
"150 452 OFFCURVE",
"150 437 CURVE SMOOTH",
"150 423 OFFCURVE",
"159 412 OFFCURVE",
"169 412 CURVE SMOOTH",
"179 412 OFFCURVE",
"188 423 OFFCURVE",
"188 438 CURVE SMOOTH"
);
},
{
closed = 1;
nodes = (
"277 162 OFFCURVE",
"268 171 OFFCURVE",
"256 171 CURVE SMOOTH",
"244 171 OFFCURVE",
"235 162 OFFCURVE",
"235 150 CURVE SMOOTH",
"235 138 OFFCURVE",
"244 129 OFFCURVE",
"256 129 CURVE SMOOTH",
"268 129 OFFCURVE",
"277 138 OFFCURVE",
"277 150 CURVE SMOOTH"
);
},
{
closed = 1;
nodes = (
"286 334 OFFCURVE",
"278 345 OFFCURVE",
"269 345 CURVE SMOOTH",
"260 345 OFFCURVE",
"252 334 OFFCURVE",
"252 319 CURVE SMOOTH",
"252 305 OFFCURVE",
"260 294 OFFCURVE",
"269 294 CURVE SMOOTH",
"278 294 OFFCURVE",
"285 304 OFFCURVE",
"286 319 CURVE SMOOTH"
);
},
{
closed = 1;
nodes = (
"121 513 OFFCURVE",
"112 522 OFFCURVE",
"101 522 CURVE SMOOTH",
"91 522 OFFCURVE",
"82 513 OFFCURVE",
"82 501 CURVE SMOOTH",
"82 489 OFFCURVE",
"91 480 OFFCURVE",
"102 480 CURVE SMOOTH",
"112 480 OFFCURVE",
"121 489 OFFCURVE",
"121 501 CURVE SMOOTH"
);
},
{
closed = 1;
nodes = (
"239 399 OFFCURVE",
"231 408 OFFCURVE",
"222 408 CURVE SMOOTH",
"213 408 OFFCURVE",
"205 399 OFFCURVE",
"205 387 CURVE SMOOTH",
"205 375 OFFCURVE",
"213 366 OFFCURVE",
"222 366 CURVE SMOOTH",
"231 366 OFFCURVE",
"239 375 OFFCURVE",
"239 387 CURVE SMOOTH"
);
},
{
closed = 1;
nodes = (
"248 83 OFFCURVE",
"240 92 OFFCURVE",
"231 92 CURVE SMOOTH",
"222 92 OFFCURVE",
"214 83 OFFCURVE",
"214 73 CURVE SMOOTH",
"214 63 OFFCURVE",
"222 54 OFFCURVE",
"231 54 CURVE SMOOTH",
"240 54 OFFCURVE",
"248 63 OFFCURVE",
"248 73 CURVE SMOOTH"
);
},
{
closed = 1;
nodes = (
"311 242 OFFCURVE",
"305 251 OFFCURVE",
"296 251 CURVE SMOOTH",
"288 251 OFFCURVE",
"282 242 OFFCURVE",
"282 232 CURVE SMOOTH",
"282 222 OFFCURVE",
"288 213 OFFCURVE",
"297 213 CURVE SMOOTH",
"305 213 OFFCURVE",
"311 222 OFFCURVE",
"311 232 CURVE SMOOTH"
);
}
);
width = 468;
}
);
note = V;
unicode = 0056;
},
{
glyphname = W;
layers = (
{
hints = (
{
horizontal = 1;
place = "{-73, 20}";
type = Stem;
},
{
horizontal = 1;
place = "{-38, 39}";
type = Stem;
},
{
horizontal = 1;
place = "{206, 26}";
type = Stem;
},
{
horizontal = 1;
place = "{424, 17}";
type = Stem;
},
{
horizontal = 1;
place = "{477, 21}";
target = up;
type = BottomGhost;
},
{
horizontal = 1;
place = "{530, 17}";
type = Stem;
},
{
horizontal = 1;
place = "{576, 25}";
type = Stem;
},
{
place = "{11, 25}";
type = Stem;
},
{
place = "{111, 17}";
type = Stem;
},
{
place = "{461, 17}";
type = Stem;
}
);
layerId = "9537DB68-ED58-4774-880B-66DB18EF27AD";
paths = (
{
closed = 1;
nodes = (
"859 687 OFFCURVE",
"841 669 OFFCURVE",
"853 657 CURVE SMOOTH",
"889 623 OFFCURVE",
"839 550 OFFCURVE",
"790 534 CURVE SMOOTH",
"707 508 OFFCURVE",
"630 528 OFFCURVE",
"545 528 CURVE SMOOTH",
"516 528 OFFCURVE",
"491 528 OFFCURVE",
"466 529 CURVE",
"461 540 OFFCURVE",
"454 547 OFFCURVE",
"443 547 CURVE SMOOTH",
"433 547 OFFCURVE",
"426 540 OFFCURVE",
"421 532 CURVE",
"342 538 OFFCURVE",
"274 549 OFFCURVE",
"176 562 CURVE SMOOTH",
"107 570 OFFCURVE",
"82 561 OFFCURVE",
"31 529 CURVE SMOOTH",
"17 521 OFFCURVE",
"24 503 OFFCURVE",
"40 506 CURVE SMOOTH",
"72 512 OFFCURVE",
"72 525 OFFCURVE",
"102 528 CURVE",
"115 523 OFFCURVE",
"134 518 OFFCURVE",
"138 518 CURVE SMOOTH",
"196 518 OFFCURVE",
"185 407 OFFCURVE",
"185 359 CURVE SMOOTH",
"185 259 OFFCURVE",
"160 184 OFFCURVE",
"152 84 CURVE SMOOTH",
"151 71 OFFCURVE",
"150 64 OFFCURVE",
"150 52 CURVE SMOOTH",
"150 19 OFFCURVE",
"193 -75 OFFCURVE",
"243 -75 CURVE SMOOTH",
"279 -75 OFFCURVE",
"371 -11 OFFCURVE",
"387 17 CURVE SMOOTH",
"407 53 OFFCURVE",
"424 96 OFFCURVE",
"437 142 CURVE",
"468 70 OFFCURVE",
"528 -38 OFFCURVE",
"606 -38 CURVE SMOOTH",
"721 -38 OFFCURVE",
"797 210 OFFCURVE",
"798 298 CURVE SMOOTH",
"798 364 OFFCURVE",
"784 460 OFFCURVE",
"731 496 CURVE",
"753 499 OFFCURVE",
"775 503 OFFCURVE",
"798 511 CURVE SMOOTH",
"843 525 OFFCURVE",
"933 616 OFFCURVE",
"871 676 CURVE SMOOTH"
);
},
{
closed = 1;
nodes = (
"752 217 OFFCURVE",
"702 1 OFFCURVE",
"605 1 CURVE SMOOTH",
"535 1 OFFCURVE",
"485 122 OFFCURVE",
"462 179 CURVE",
"459 189 OFFCURVE",
"455 198 OFFCURVE",
"452 207 CURVE",
"466 273 OFFCURVE",
"473 342 OFFCURVE",
"474 403 CURVE SMOOTH",
"474 425 OFFCURVE",
"476 441 OFFCURVE",
"477 462 CURVE SMOOTH",
"477 469 OFFCURVE",
"477 481 OFFCURVE",
"475 494 CURVE",
"496 493 OFFCURVE",
"518 493 OFFCURVE",
"540 493 CURVE SMOOTH",
"577 493 OFFCURVE",
"612 491 OFFCURVE",
"647 491 CURVE",
"639 484 OFFCURVE",
"633 476 OFFCURVE",
"631 473 CURVE",
"626 459 OFFCURVE",
"645 451 OFFCURVE",
"651 464 CURVE SMOOTH",
"653 470 OFFCURVE",
"662 480 OFFCURVE",
"670 480 CURVE SMOOTH",
"750 479 OFFCURVE",
"753 361 OFFCURVE",
"753 290 CURVE SMOOTH"
);
},
{
closed = 1;
nodes = (
"461 442 OFFCURVE",
"458 426 OFFCURVE",
"457 403 CURVE SMOOTH",
"456 355 OFFCURVE",
"448 302 OFFCURVE",
"437 250 CURVE",
"427 282 OFFCURVE",
"419 315 OFFCURVE",
"416 355 CURVE SMOOTH",
"415 370 OFFCURVE",
"413 379 OFFCURVE",
"413 394 CURVE SMOOTH",
"413 432 OFFCURVE",
"414 463 OFFCURVE",
"424 497 CURVE",
"435 496 OFFCURVE",
"446 495 OFFCURVE",
"457 495 CURVE",
"459 481 OFFCURVE",
"460 467 OFFCURVE",
"460 463 CURVE SMOOTH"
);
},
{
closed = 1;
nodes = (
"404 128 OFFCURVE",
"383 75 OFFCURVE",
"359 32 CURVE SMOOTH",
"346 9 OFFCURVE",
"273 -55 OFFCURVE",
"243 -55 CURVE SMOOTH",
"203 -55 OFFCURVE",
"195 25 OFFCURVE",
"195 52 CURVE SMOOTH",
"194 165 OFFCURVE",
"237 241 OFFCURVE",
"237 360 CURVE SMOOTH",
"237 404 OFFCURVE",
"223 483 OFFCURVE",
"187 521 CURVE",
"265 512 OFFCURVE",
"333 503 OFFCURVE",
"406 498 CURVE",
"393 464 OFFCURVE",
"385 430 OFFCURVE",
"385 393 CURVE SMOOTH",
"385 322 OFFCURVE",
"396 251 OFFCURVE",
"420 184 CURVE"
);
}
);
width = 819;
}
);
note = W;
unicode = 0057;
},
{
glyphname = X;
layers = (
{
hints = (
{
horizontal = 1;
place = "{125, 25}";
type = Stem;
},
{
horizontal = 1;
place = "{214, 19}";
type = Stem;
},
{
horizontal = 1;
place = "{258, 13}";
type = Stem;
},
{
horizontal = 1;
place = "{355, 17}";
type = Stem;
},
{
horizontal = 1;
place = "{427, 21}";
target = up;
type = BottomGhost;
},
{
horizontal = 1;
place = "{604, 16}";
type = Stem;
},
{
place = "{91, 20}";
type = Stem;
},
{
place = "{129, 19}";
type = Stem;
},
{
place = "{187, 19}";
type = Stem;
},
{
place = "{211, 13}";
type = Stem;
},
{
place = "{518, 16}";
type = Stem;
},
{
place = "{568, 13}";
type = Stem;
}
);
layerId = "9537DB68-ED58-4774-880B-66DB18EF27AD";
paths = (
{
closed = 1;
nodes = (
"582 233 OFFCURVE",
"576 271 OFFCURVE",
"555 271 CURVE SMOOTH",
"534 271 OFFCURVE",
"517 261 OFFCURVE",
"517 237 CURVE SMOOTH",
"517 231 OFFCURVE",
"520 225 OFFCURVE",
"522 221 CURVE SMOOTH",
"531 202 OFFCURVE",
"545 211 OFFCURVE",
"540 220 CURVE",
"536 225 OFFCURVE",
"534 231 OFFCURVE",
"534 236 CURVE SMOOTH",
"534 255 OFFCURVE",
"538 258 OFFCURVE",
"556 258 CURVE SMOOTH",
"565 258 OFFCURVE",
"568 225 OFFCURVE",
"568 219 CURVE SMOOTH",
"569 200 OFFCURVE",
"560 174 OFFCURVE",
"546 161 CURVE SMOOTH",
"533 150 OFFCURVE",
"514 147 OFFCURVE",
"493 149 CURVE SMOOTH",
"472 151 OFFCURVE",
"452 155 OFFCURVE",
"421 207 CURVE SMOOTH",
"388 261 OFFCURVE",
"371 330 OFFCURVE",
"352 399 CURVE",
"366 433 LINE SMOOTH",
"381 471 OFFCURVE",
"385 510 OFFCURVE",
"408 545 CURVE SMOOTH",
"426 572 OFFCURVE",
"443 603 OFFCURVE",
"479 604 CURVE SMOOTH",
"503 604 OFFCURVE",
"523 601 OFFCURVE",
"523 573 CURVE SMOOTH",
"524 549 OFFCURVE",
"499 528 OFFCURVE",
"476 528 CURVE SMOOTH",
"464 527 OFFCURVE",
"456 532 OFFCURVE",
"448 537 CURVE SMOOTH",
"440 541 OFFCURVE",
"435 530 OFFCURVE",
"442 526 CURVE SMOOTH",
"453 520 OFFCURVE",
"462 515 OFFCURVE",
"475 515 CURVE SMOOTH",
"504 514 OFFCURVE",
"537 540 OFFCURVE",
"537 573 CURVE SMOOTH",
"537 611 OFFCURVE",
"511 620 OFFCURVE",
"478 620 CURVE SMOOTH",
"473 620 OFFCURVE",
"461 619 OFFCURVE",
"454 617 CURVE SMOOTH",
"430 609 OFFCURVE",
"405 575 OFFCURVE",
"392 555 CURVE SMOOTH",
"368 519 OFFCURVE",
"361 478 OFFCURVE",
"342 440 CURVE",
"341 439 LINE",
"325 492 OFFCURVE",
"306 544 OFFCURVE",
"277 586 CURVE SMOOTH",
"266 603 OFFCURVE",
"251 623 OFFCURVE",
"232 631 CURVE SMOOTH",
"220 635 OFFCURVE",
"212 638 OFFCURVE",
"198 638 CURVE SMOOTH",
"179 638 OFFCURVE",
"171 623 OFFCURVE",
"159 617 CURVE SMOOTH",
"123 600 OFFCURVE",
"91 567 OFFCURVE",
"91 517 CURVE SMOOTH",
"91 468 OFFCURVE",
"129 427 OFFCURVE",
"179 427 CURVE SMOOTH",
"208 427 OFFCURVE",
"223 470 OFFCURVE",
"224 493 CURVE SMOOTH",
"224 509 OFFCURVE",
"220 537 OFFCURVE",
"191 537 CURVE",
"184 538 OFFCURVE",
"175 528 OFFCURVE",
"170 524 CURVE",
"160 519 OFFCURVE",
"170 507 OFFCURVE",
"178 514 CURVE SMOOTH",
"180 516 LINE SMOOTH",
"183 518 OFFCURVE",
"189 523 OFFCURVE",
"193 525 CURVE",
"207 525 OFFCURVE",
"212 510 OFFCURVE",
"212 493 CURVE SMOOTH",
"211 479 OFFCURVE",
"196 448 OFFCURVE",
"178 448 CURVE SMOOTH",
"141 448 OFFCURVE",
"112 480 OFFCURVE",
"111 517 CURVE SMOOTH",
"111 556 OFFCURVE",
"143 577 OFFCURVE",
"171 591 CURVE SMOOTH",
"180 596 OFFCURVE",
"188 601 OFFCURVE",
"199 601 CURVE SMOOTH",
"205 601 OFFCURVE",
"213 595 OFFCURVE",
"218 593 CURVE SMOOTH",
"270 574 OFFCURVE",
"305 448 OFFCURVE",
"320 387 CURVE",
"304 353 OFFCURVE",
"289 320 OFFCURVE",
"275 282 CURVE SMOOTH",
"262 246 OFFCURVE",
"238 201 OFFCURVE",
"215 172 CURVE SMOOTH",
"206 160 OFFCURVE",
"190 151 OFFCURVE",
"174 151 CURVE SMOOTH",
"136 151 OFFCURVE",
"102 206 OFFCURVE",
"102 240 CURVE SMOOTH",
"102 255 OFFCURVE",
"106 269 OFFCURVE",
"110 283 CURVE SMOOTH",
"116 304 OFFCURVE",
"135 344 OFFCURVE",
"150 353 CURVE SMOOTH",
"174 366 OFFCURVE",
"187 313 OFFCURVE",
"187 290 CURVE",
"188 282 OFFCURVE",
"177 233 OFFCURVE",
"165 233 CURVE SMOOTH",
"158 232 OFFCURVE",
"148 246 OFFCURVE",
"148 258 CURVE SMOOTH",
"148 272 OFFCURVE",
"128 272 OFFCURVE",
"129 259 CURVE SMOOTH",
"129 246 OFFCURVE",
"140 213 OFFCURVE",
"165 213 CURVE SMOOTH",
"193 214 OFFCURVE",
"207 270 OFFCURVE",
"206 290 CURVE SMOOTH",
"206 322 OFFCURVE",
"175 387 OFFCURVE",
"141 369 CURVE SMOOTH",
"118 356 OFFCURVE",
"98 309 OFFCURVE",
"92 289 CURVE SMOOTH",
"87 273 OFFCURVE",
"79 258 OFFCURVE",
"79 240 CURVE SMOOTH",
"79 196 OFFCURVE",
"126 125 OFFCURVE",
"174 125 CURVE SMOOTH",
"199 125 OFFCURVE",
"221 140 OFFCURVE",
"235 157 CURVE SMOOTH",
"259 188 OFFCURVE",
"286 234 OFFCURVE",
"301 272 CURVE SMOOTH",
"310 298 OFFCURVE",
"320 322 OFFCURVE",
"330 346 CURVE",
"345 294 OFFCURVE",
"371 229 OFFCURVE",
"394 191 CURVE SMOOTH",
"429 134 OFFCURVE",
"469 129 OFFCURVE",
"493 129 CURVE SMOOTH",
"544 129 OFFCURVE",
"582 169 OFFCURVE",
"582 219 CURVE SMOOTH"
);
},
{
closed = 1;
nodes = (
"548 42 OFFCURVE",
"530 60 OFFCURVE",
"518 48 CURVE SMOOTH",
"506 36 OFFCURVE",
"473 35 OFFCURVE",
"443 35 CURVE SMOOTH",
"364 35 OFFCURVE",
"288 61 OFFCURVE",
"209 61 CURVE SMOOTH",
"166 61 OFFCURVE",
"120 57 OFFCURVE",
"83 32 CURVE SMOOTH",
"69 23 OFFCURVE",
"83 2 OFFCURVE",
"97 12 CURVE SMOOTH",
"128 31 OFFCURVE",
"166 36 OFFCURVE",
"209 36 CURVE SMOOTH",
"288 36 OFFCURVE",
"361 1 OFFCURVE",
"440 1 CURVE SMOOTH",
"472 1 OFFCURVE",
"516 10 OFFCURVE",
"536 30 CURVE SMOOTH"
);
}
);
width = 652;
}
);
note = X;
unicode = 0058;
},
{
glyphname = Y;
layers = (
{
hints = (
{
horizontal = 1;
place = "{-311, 45}";
type = Stem;
},
{
horizontal = 1;
place = "{-188, 25}";
type = Stem;
},
{
horizontal = 1;
place = "{-101, 17}";
type = Stem;
},
{
horizontal = 1;
place = "{-35, 104}";
type = Stem;
},
{
horizontal = 1;
place = "{357, 26}";
type = Stem;
},
{
horizontal = 1;
place = "{630, -20}";
target = down;
type = TopGhost;
},
{
horizontal = 1;
place = "{682, -20}";
target = down;
type = TopGhost;
},
{
place = "{4, 17}";
type = Stem;
},
{
place = "{145, 36}";
type = Stem;
},
{
place = "{244, 18}";
type = Stem;
},
{
place = "{356, 18}";
type = Stem;
},
{
place = "{427, 20}";
type = Stem;
},
{
place = "{496, 30}";
type = Stem;
}
);
layerId = "9537DB68-ED58-4774-880B-66DB18EF27AD";
paths = (
{
closed = 1;
nodes = (
"641 608 OFFCURVE",
"629 630 OFFCURVE",
"614 622 CURVE SMOOTH",
"567 597 OFFCURVE",
"516 581 OFFCURVE",
"473 549 CURVE SMOOTH",
"397 494 OFFCURVE",
"322 405 OFFCURVE",
"307 298 CURVE",
"299 375 OFFCURVE",
"263 445 OFFCURVE",
"226 497 CURVE SMOOTH",
"185 555 OFFCURVE",
"80 623 OFFCURVE",
"-8 593 CURVE SMOOTH",
"-24 587 OFFCURVE",
"-16 564 OFFCURVE",
"0 569 CURVE SMOOTH",
"54 588 OFFCURVE",
"142 535 OFFCURVE",
"170 497 CURVE SMOOTH",
"227 421 OFFCURVE",
"252 349 OFFCURVE",
"282 251 CURVE",
"282 177 OFFCURVE",
"296 100 OFFCURVE",
"282 27 CURVE SMOOTH",
"279 11 OFFCURVE",
"332 14 OFFCURVE",
"332 31 CURVE SMOOTH",
"332 99 OFFCURVE",
"327 199 OFFCURVE",
"327 242 CURVE SMOOTH",
"327 349 OFFCURVE",
"409 456 OFFCURVE",
"489 514 CURVE SMOOTH",
"532 545 OFFCURVE",
"580 575 OFFCURVE",
"626 600 CURVE SMOOTH"
);
},
{
closed = 1;
nodes = (
"474 13 OFFCURVE",
"369 -4 OFFCURVE",
"314 -4 CURVE SMOOTH",
"229 -4 OFFCURVE",
"175 -5 OFFCURVE",
"86 -8 CURVE SMOOTH",
"69 -8 OFFCURVE",
"70 -59 OFFCURVE",
"87 -58 CURVE SMOOTH",
"176 -55 OFFCURVE",
"209 -41 OFFCURVE",
"294 -41 CURVE SMOOTH",
"338 -41 OFFCURVE",
"465 -14 OFFCURVE",
"497 -49 CURVE SMOOTH",
"508 -62 OFFCURVE",
"526 -45 OFFCURVE",
"515 -33 CURVE SMOOTH"
);
},
{
closed = 1;
nodes = (
"99 519 OFFCURVE",
"85 531 OFFCURVE",
"67 531 CURVE SMOOTH",
"50 531 OFFCURVE",
"36 519 OFFCURVE",
"36 503 CURVE SMOOTH",
"36 488 OFFCURVE",
"50 476 OFFCURVE",
"68 476 CURVE SMOOTH",
"85 476 OFFCURVE",
"99 488 OFFCURVE",
"99 504 CURVE SMOOTH"
);
},
{
closed = 1;
nodes = (
"260 302 OFFCURVE",
"251 315 OFFCURVE",
"241 315 CURVE SMOOTH",
"231 315 OFFCURVE",
"222 302 OFFCURVE",
"222 285 CURVE SMOOTH",
"222 269 OFFCURVE",
"231 256 OFFCURVE",
"241 256 CURVE SMOOTH",
"251 256 OFFCURVE",
"259 268 OFFCURVE",
"260 285 CURVE SMOOTH"
);
},
{
closed = 1;
nodes = (
"273 139 OFFCURVE",
"262 150 OFFCURVE",
"249 150 CURVE SMOOTH",
"237 150 OFFCURVE",
"226 139 OFFCURVE",
"226 126 CURVE SMOOTH",
"226 114 OFFCURVE",
"237 103 OFFCURVE",
"250 103 CURVE SMOOTH",
"261 103 OFFCURVE",
"272 113 OFFCURVE",
"273 126 CURVE SMOOTH"
);
},
{
closed = 1;
nodes = (
"171 461 OFFCURVE",
"161 472 OFFCURVE",
"148 472 CURVE SMOOTH",
"135 472 OFFCURVE",
"125 461 OFFCURVE",
"125 448 CURVE SMOOTH",
"125 436 OFFCURVE",
"135 425 OFFCURVE",
"148 425 CURVE SMOOTH",
"160 425 OFFCURVE",
"170 435 OFFCURVE",
"171 448 CURVE SMOOTH"
);
},
{
closed = 1;
nodes = (
"226 386 OFFCURVE",
"217 395 OFFCURVE",
"205 395 CURVE SMOOTH",
"193 395 OFFCURVE",
"184 386 OFFCURVE",
"184 374 CURVE SMOOTH",
"184 362 OFFCURVE",
"193 353 OFFCURVE",
"205 353 CURVE SMOOTH",
"217 353 OFFCURVE",
"226 362 OFFCURVE",
"226 374 CURVE SMOOTH"
);
},
{
closed = 1;
nodes = (
"269 204 OFFCURVE",
"259 213 OFFCURVE",
"247 213 CURVE SMOOTH",
"236 213 OFFCURVE",
"226 204 OFFCURVE",
"226 194 CURVE SMOOTH",
"226 184 OFFCURVE",
"236 175 OFFCURVE",
"248 175 CURVE SMOOTH",
"259 175 OFFCURVE",
"269 184 OFFCURVE",
"269 194 CURVE SMOOTH"
);
},
{
closed = 1;
nodes = (
"260 64 OFFCURVE",
"254 73 OFFCURVE",
"245 73 CURVE SMOOTH",
"237 73 OFFCURVE",
"231 64 OFFCURVE",
"231 52 CURVE SMOOTH",
"231 40 OFFCURVE",
"237 31 OFFCURVE",
"246 31 CURVE SMOOTH",
"254 31 OFFCURVE",
"260 40 OFFCURVE",
"260 52 CURVE SMOOTH"
);
}
);
width = 552;
}
);
note = Y;
unicode = 0059;
},
